<?xml version="1.0" encoding="UTF-8"?>
<svg xmlns="http://www.w3.org/2000/svg" xmlns:xlink="http://www.w3.org/1999/xlink" version="1.2" >
<font id="TT Firs Extrabold">
<font-face  font-family="TT Firs" units-per-em="1000" ascent="990" descent="-340" font-style="normal" font-weight="800" font-stretch="normal" cap-height="700" x-height="480" underline-position="-125" underline-thickness="50" />
<missing-glyph  d="" />
<glyph glyph-name="C" unicode="C" horiz-adv-x="780" d="M410 -30 Q333 -30 264 0.5 Q195 31 143 83 Q91 135 60.5 204 Q30 273 30 350 Q30 427 60.5 496 Q91 565 143 617 Q195 669 264 699.5 Q333 730 410 730 Q477 730 532.5 710 Q588 690 629.5 657.5 Q671 625 699 582.5 Q727 540 740 495 L585 475 Q574 497 557.5 518 Q541 539 519 555 Q497 571 469 580.5 Q441 590 405 590 Q362 590 322 571.5 Q282 553 251.5 520.5 Q221 488 203 444.5 Q185 401 185 350 Q185 299 203 255.5 Q221 212 251.5 179.5 Q282 147 322 128.5 Q362 110 405 110 Q444 110 475.5 120.5 Q507 131 531.5 149 Q556 167 574 190.5 Q592 214 605 240 L760 220 Q747 173 717.5 128 Q688 83 643.5 48 Q599 13 540 -8.5 Q481 -30 410 -30 Z " />
<glyph glyph-name="E" unicode="E" horiz-adv-x="635" d="M615 140 L615 0 L60 0 L60 700 L615 700 L615 560 L215 560 L215 420 L530 420 L530 280 L215 280 L215 140 L615 140 Z " />
<glyph glyph-name="F" unicode="F" horiz-adv-x="605" d="M215 0 L60 0 L60 700 L595 700 L595 560 L215 560 L215 395 L520 395 L520 255 L215 255 L215 0 Z " />
<glyph glyph-name="G" unicode="G" horiz-adv-x="795" d="M405 110 Q444 110 475.5 120.5 Q507 131 531 147.5 Q555 164 572 185.5 Q589 207 600 230 L600 240 L415 240 L415 380 L765 380 L765 320 Q765 247 737.5 183 Q710 119 662.5 72 Q615 25 550 -2.5 Q485 -30 410 -30 Q333 -30 264 0.5 Q195 31 143 83 Q91 135 60.5 204 Q30 273 30 350 Q30 427 60.5 496 Q91 565 143 617 Q195 669 264 699.5 Q333 730 410 730 Q477 730 532.5 710 Q588 690 629.5 657.5 Q671 625 699 582.5 Q727 540 740 495 L585 475 Q574 497 557.5 518 Q541 539 519 555 Q497 571 469 580.5 Q441 590 405 590 Q362 590 322 571.5 Q282 553 251.5 520.5 Q221 488 203 444.5 Q185 401 185 350 Q185 299 203 255.5 Q221 212 251.5 179.5 Q282 147 322 128.5 Q362 110 405 110 Z " />
<glyph glyph-name="H" unicode="H" horiz-adv-x="725" d="M60 700 L215 700 L215 415 L510 415 L510 700 L665 700 L665 0 L510 0 L510 275 L215 275 L215 0 L60 0 L60 700 Z " />
<glyph glyph-name="I" unicode="I" horiz-adv-x="275" d="M215 0 L60 0 L60 700 L215 700 L215 0 Z " />
<glyph glyph-name="J" unicode="J" horiz-adv-x="590" d="M530 235 Q530 175 511 126 Q492 77 456.5 42.5 Q421 8 370 -11 Q319 -30 256 -30 Q203 -30 159.5 -13.5 Q116 3 83 30.5 Q50 58 28.5 94.5 Q7 131 0 170 L150 205 Q161 163 189.5 136.5 Q218 110 260 110 Q309 110 342 144 Q375 178 375 235 L375 700 L530 700 L530 235 Z " />
<glyph glyph-name="K" unicode="K" horiz-adv-x="695" d="M320 315 L215 200 L215 0 L60 0 L60 700 L215 700 L215 405 L490 700 L680 700 L430 430 L695 0 L515 0 L320 315 Z " />
<glyph glyph-name="L" unicode="L" horiz-adv-x="590" d="M215 140 L580 140 L580 0 L60 0 L60 700 L215 700 L215 140 Z " />
<glyph glyph-name="M" unicode="M" horiz-adv-x="880" d="M225 485 L215 485 L215 0 L60 0 L60 700 L230 700 L440 440 L650 700 L820 700 L820 0 L665 0 L665 485 L655 485 L440 220 L225 485 Z " />
<glyph glyph-name="N" unicode="N" horiz-adv-x="725" d="M500 260 L510 260 L510 700 L665 700 L665 0 L495 0 L225 440 L215 440 L215 0 L60 0 L60 700 L230 700 L500 260 Z " />
<glyph glyph-name="O" unicode="O" horiz-adv-x="830" d="M185 350 Q185 299 203.5 255.5 Q222 212 253.5 179.5 Q285 147 326.5 128.5 Q368 110 415 110 Q462 110 503.5 128.5 Q545 147 576.5 179.5 Q608 212 626.5 255.5 Q645 299 645 350 Q645 401 626.5 444.5 Q608 488 576.5 520.5 Q545 553 503.5 571.5 Q462 590 415 590 Q368 590 326.5 571.5 Q285 553 253.5 520.5 Q222 488 203.5 444.5 Q185 401 185 350 Z M800 350 Q800 271 770 202 Q740 133 688 81.5 Q636 30 566 0 Q496 -30 415 -30 Q334 -30 264 0 Q194 30 142 81.5 Q90 133 60 202 Q30 271 30 350 Q30 429 60 498 Q90 567 142 618.5 Q194 670 264 700 Q334 730 415 730 Q496 730 566 700 Q636 670 688 618.5 Q740 567 770 498 Q800 429 800 350 Z " />
<glyph glyph-name="P" unicode="P" horiz-adv-x="715" d="M530 440 Q530 464 520 486 Q510 508 492.5 524.5 Q475 541 450 550.5 Q425 560 395 560 L215 560 L215 320 L395 320 Q425 320 450 329.5 Q475 339 492.5 355.5 Q510 372 520 394 Q530 416 530 440 Z M685 440 Q685 386 664.5 338.5 Q644 291 606 255.5 Q568 220 514.5 200 Q461 180 395 180 L215 180 L215 0 L60 0 L60 700 L395 700 Q461 700 514.5 680 Q568 660 606 624.5 Q644 589 664.5 541.5 Q685 494 685 440 Z " />
<glyph glyph-name="Q" unicode="Q" horiz-adv-x="835" d="M800 350 Q800 299 788 257.5 Q776 216 762 187 Q745 153 725 125 L825 25 L720 -80 L615 25 Q590 9 558 -3 Q531 -14 494.5 -22 Q458 -30 415 -30 Q334 -30 264 0 Q194 30 142 81.5 Q90 133 60 202 Q30 271 30 350 Q30 429 60 498 Q90 567 142 618.5 Q194 670 264 700 Q334 730 415 730 Q496 730 566 700 Q636 670 688 618.5 Q740 567 770 498 Q800 429 800 350 Z M185 350 Q185 299 203.5 255.5 Q222 212 253.5 179.5 Q285 147 326.5 128.5 Q368 110 415 110 Q438 110 455.5 113 Q473 116 485 120 Q499 124 510 130 L465 175 L570 280 L615 235 Q623 250 630 268 Q635 284 640 304.5 Q645 325 645 350 Q645 401 626.5 444.5 Q608 488 576.5 520.5 Q545 553 503.5 571.5 Q462 590 415 590 Q368 590 326.5 571.5 Q285 553 253.5 520.5 Q222 488 203.5 444.5 Q185 401 185 350 Z " />
<glyph glyph-name="R" unicode="R" horiz-adv-x="715" d="M215 210 L215 0 L60 0 L60 700 L405 700 Q467 700 517 681.5 Q567 663 602 630 Q637 597 656 552 Q675 507 675 455 Q675 424 669 398.5 Q663 373 653.5 352 Q644 331 632 314.5 Q620 298 607 286 Q577 257 540 240 L670 0 L505 0 Q476 54 447.5 105 Q419 156 390 210 L215 210 Z M405 350 Q458 350 489 380 Q520 410 520 455 Q520 500 489 530 Q458 560 405 560 L215 560 L215 350 L405 350 Z " />
<glyph glyph-name="S" unicode="S" horiz-adv-x="635" d="M455 200 Q455 232 425 251 Q395 270 350 285 Q305 300 252.5 315 Q200 330 155 355 Q110 380 80 418.5 Q50 457 50 520 Q50 559 69 597 Q88 635 123 664.5 Q158 694 208 712 Q258 730 320 730 Q382 730 431 713.5 Q480 697 516 667.5 Q552 638 575.5 599 Q599 560 610 515 L455 495 Q440 536 408 563 Q376 590 320 590 Q267 590 238.5 565 Q210 540 210 510 Q210 480 240 462.5 Q270 445 315 431.5 Q360 418 412.5 402.5 Q465 387 510 361.5 Q555 336 585 295.5 Q615 255 615 190 Q615 149 595 109.5 Q575 70 537.5 39 Q500 8 446 -11 Q392 -30 325 -30 Q257 -30 204.5 -12.5 Q152 5 113 36.5 Q74 68 48.5 111 Q23 154 10 205 L165 225 Q180 176 218.5 143 Q257 110 325 110 Q393 110 424 136 Q455 162 455 200 Z " />
<glyph glyph-name="T" unicode="T" horiz-adv-x="615" d="M10 560 L10 700 L605 700 L605 560 L385 560 L385 0 L230 0 L230 560 L10 560 Z " />
<glyph glyph-name="U" unicode="U" horiz-adv-x="730" d="M365 110 Q433 110 474 151.5 Q515 193 515 265 L515 700 L670 700 L670 265 Q670 199 648.5 145 Q627 91 587 52 Q547 13 490.5 -8.5 Q434 -30 365 -30 Q296 -30 239.5 -8.5 Q183 13 143 52 Q103 91 81.5 145 Q60 199 60 265 L60 700 L215 700 L215 265 Q215 193 256 151.5 Q297 110 365 110 Z " />
<glyph glyph-name="V" unicode="V" horiz-adv-x="715" d="M15 700 L175 700 L310 140 L405 140 L540 700 L700 700 L530 0 L185 0 L15 700 Z " />
<glyph glyph-name="W" unicode="W" horiz-adv-x="985" d="M390 700 L595 700 L695 175 L710 175 Q736 308 760.5 437.5 Q785 567 810 700 L965 700 Q932 524 898 350 Q864 176 830 0 L600 0 L500 500 L485 500 L385 0 L155 0 Q121 176 87 350 Q53 524 20 700 L175 700 Q200 567 224.5 437.5 Q249 308 275 175 L290 175 L390 700 Z " />
<glyph glyph-name="X" unicode="X" horiz-adv-x="670" d="M175 0 L-5 0 L225 360 L25 700 L200 700 L330 470 L340 470 L470 700 L645 700 L445 360 L675 0 L495 0 L340 250 L330 250 L175 0 Z " />
<glyph glyph-name="Y" unicode="Y" horiz-adv-x="675" d="M415 0 L260 0 L260 230 L-5 700 L170 700 L335 400 L340 400 L505 700 L680 700 L415 230 L415 0 Z " />
<glyph glyph-name="Z" unicode="Z" horiz-adv-x="645" d="M30 140 L400 550 L400 560 L40 560 L40 700 L605 700 L605 560 L235 150 L235 140 L615 140 L615 0 L30 0 L30 140 Z " />
<glyph glyph-name="zero" unicode="0" horiz-adv-x="730" d="M185 350 Q185 294 200.5 249.5 Q216 205 241.5 174 Q267 143 299 126.5 Q331 110 365 110 Q399 110 431 126.5 Q463 143 488.5 174 Q514 205 529.5 249.5 Q545 294 545 350 Q545 406 529.5 450.5 Q514 495 488.5 526 Q463 557 431 573.5 Q399 590 365 590 Q331 590 299 573.5 Q267 557 241.5 526 Q216 495 200.5 450.5 Q185 406 185 350 Z M700 350 Q700 267 672.5 197.5 Q645 128 598.5 77.5 Q552 27 491.5 -1.5 Q431 -30 365 -30 Q299 -30 238.5 -1.5 Q178 27 131.5 77.5 Q85 128 57.5 197.5 Q30 267 30 350 Q30 432 57.5 502 Q85 572 131.5 622.5 Q178 673 238.5 701.5 Q299 730 365 730 Q431 730 491.5 701.5 Q552 673 598.5 622.5 Q645 572 672.5 502 Q700 432 700 350 Z " />
<glyph glyph-name="one" unicode="1" horiz-adv-x="355" d="M140 480 L20 480 L20 585 Q46 585 69.5 595 Q93 605 111 621.5 Q129 638 139.5 658.5 Q150 679 150 700 L295 700 L295 0 L140 0 L140 480 Z " />
<glyph glyph-name="two" unicode="2" horiz-adv-x="625" d="M430 500 Q430 517 422 533 Q414 549 399.5 562 Q385 575 364.5 582.5 Q344 590 320 590 Q263 590 231.5 562.5 Q200 535 185 490 L30 505 Q39 548 64 588.5 Q89 629 126.5 660.5 Q164 692 213 711 Q262 730 320 730 Q378 730 426.5 711 Q475 692 510.5 660 Q546 628 565.5 586.5 Q585 545 585 500 Q585 440 557 399 Q529 358 486 329 Q443 300 392.5 279 Q342 258 297.5 238 Q253 218 221.5 195 Q190 172 185 140 L583 140 L583 0 L30 0 L30 120 Q30 180 59.5 222.5 Q89 265 133.5 296.5 Q178 328 230 351.5 Q282 375 326.5 397 Q371 419 400.5 443 Q430 467 430 500 Z " />
<glyph glyph-name="three" unicode="3" horiz-adv-x="610" d="M155 220 Q166 175 203 142.5 Q240 110 300 110 Q328 110 351 118.5 Q374 127 390.5 141.5 Q407 156 416 175 Q425 194 425 215 Q425 236 416 255 Q407 274 390.5 288.5 Q374 303 351 311.5 Q328 320 300 320 L195 320 L195 435 L335 550 L335 560 L75 560 L75 700 L555 700 L555 580 L390 445 L390 435 Q444 425 487 397 Q505 385 523 368 Q541 351 554.5 327.5 Q568 304 576.5 273.5 Q585 243 585 205 Q585 158 565 115.5 Q545 73 508 40.5 Q471 8 418.5 -11 Q366 -30 300 -30 Q238 -30 187.5 -11.5 Q137 7 99 38 Q61 69 36 110 Q11 151 0 196 L155 220 Z " />
<glyph glyph-name="four" unicode="4" horiz-adv-x="630" d="M380 0 L380 125 L20 125 L20 265 L240 700 L415 700 L195 265 L380 265 L380 425 L535 425 L535 265 L620 265 L620 125 L535 125 L535 0 L380 0 Z " />
<glyph glyph-name="five" unicode="5" horiz-adv-x="605" d="M80 330 L140 700 L540 700 L540 560 L270 560 L255 470 L300 470 Q366 470 418.5 450.5 Q471 431 508 397.5 Q545 364 565 318 Q585 272 585 220 Q585 167 565 121.5 Q545 76 508 42.5 Q471 9 418.5 -10.5 Q366 -30 300 -30 Q238 -30 187.5 -11.5 Q137 7 99 38 Q61 69 36 110 Q11 151 0 196 L155 220 Q166 175 203 142.5 Q240 110 300 110 Q328 110 351 118.5 Q374 127 390.5 142 Q407 157 416 177 Q425 197 425 220 Q425 242 416 262 Q407 282 390.5 297 Q374 312 351 321 Q328 330 300 330 L80 330 Z " />
<glyph glyph-name="six" unicode="6" horiz-adv-x="620" d="M30 230 Q30 262 37.5 291.5 Q45 321 55 343 Q66 369 80 390 L300 700 L475 700 L315 480 Q379 480 431.5 460 Q484 440 521.5 405.5 Q559 371 579.5 326 Q600 281 600 230 Q600 176 579.5 128.5 Q559 81 521.5 45.5 Q484 10 431.5 -10 Q379 -30 315 -30 Q251 -30 198.5 -10 Q146 10 108.5 45.5 Q71 81 50.5 128.5 Q30 176 30 230 Z M190 230 Q190 206 199.5 184 Q209 162 226 145.5 Q243 129 266 119.5 Q289 110 315 110 Q341 110 364 119.5 Q387 129 404 145.5 Q421 162 430.5 184 Q440 206 440 230 Q440 256 430.5 278 Q421 300 404 316 Q387 332 364.5 341 Q342 350 315 350 Q288 350 265.5 341 Q243 332 226 316 Q209 300 199.5 278 Q190 256 190 230 Z " />
<glyph glyph-name="seven" unicode="7" horiz-adv-x="515" d="M65 0 L330 550 L330 560 L10 560 L10 700 L505 700 L505 560 L235 0 L65 0 Z " />
<glyph glyph-name="eight" unicode="8" horiz-adv-x="640" d="M320 110 Q352 110 377 118.5 Q402 127 419.5 140.5 Q437 154 446 171 Q455 188 455 205 Q455 222 446 239 Q437 256 419.5 269.5 Q402 283 377 291.5 Q352 300 320 300 Q288 300 263 291.5 Q238 283 220.5 269.5 Q203 256 194 239 Q185 222 185 205 Q185 188 194 171 Q203 154 220.5 140.5 Q238 127 263 118.5 Q288 110 320 110 Z M320 430 Q369 430 397 455 Q425 480 425 510 Q425 540 397 565 Q369 590 320 590 Q271 590 243 565 Q215 540 215 510 Q215 480 243 455 Q271 430 320 430 Z M320 -30 Q252 -30 197.5 -10.5 Q143 9 105 41 Q67 73 46 113.5 Q25 154 25 195 Q25 248 45.5 281.5 Q66 315 92 335 Q122 358 160 370 L160 380 Q130 392 107 412 Q87 429 71 457.5 Q55 486 55 530 Q55 567 73 603 Q91 639 125.5 667.5 Q160 696 209 713 Q258 730 320 730 Q382 730 431 713 Q480 696 514.5 667.5 Q549 639 567 603 Q585 567 585 530 Q585 486 568.5 457.5 Q552 429 532 412 Q509 392 480 380 L480 370 Q517 358 547 335 Q573 315 594 281.5 Q615 248 615 195 Q615 154 594 113.5 Q573 73 535 41 Q497 9 442 -10.5 Q387 -30 320 -30 Z " />
<glyph glyph-name="nine" unicode="9" horiz-adv-x="620" d="M590 470 Q590 437 582 408 Q574 379 565 357 Q554 331 540 310 L320 0 L145 0 L305 220 Q241 220 188.5 240 Q136 260 98.5 294.5 Q61 329 40.5 374 Q20 419 20 470 Q20 524 40.5 571.5 Q61 619 98.5 654.5 Q136 690 188.5 710 Q241 730 305 730 Q369 730 421.5 710 Q474 690 511.5 654.5 Q549 619 569.5 571.5 Q590 524 590 470 Z M430 470 Q430 494 420.5 516 Q411 538 394 554.5 Q377 571 354 580.5 Q331 590 305 590 Q279 590 256 580.5 Q233 571 216 554.5 Q199 538 189.5 516 Q180 494 180 470 Q180 444 189.5 422 Q199 400 216 384 Q233 368 255.5 359 Q278 350 305 350 Q332 350 354.5 359 Q377 368 394 384 Q411 400 420.5 422 Q430 444 430 470 Z " />
<glyph glyph-name="D" unicode="D" horiz-adv-x="715" d="M530 350 Q530 395 514 433.5 Q498 472 469.5 500 Q441 528 401.5 544 Q362 560 315 560 L215 560 L215 140 L315 140 Q362 140 401.5 156 Q441 172 469.5 200 Q498 228 514 266.5 Q530 305 530 350 Z M685 350 Q685 277 657.5 213 Q630 149 580.5 102 Q531 55 463.5 27.5 Q396 0 315 0 L60 0 L60 700 L315 700 Q396 700 463.5 672.5 Q531 645 580.5 598 Q630 551 657.5 487 Q685 423 685 350 Z " />
<glyph glyph-name="afii10028" unicode="&#x41a;" horiz-adv-x="710" d="M530 355 Q554 348 572 333 Q588 320 601.5 297.5 Q615 275 615 240 L615 175 Q615 130 660 130 L690 130 L690 -10 L655 -10 Q553 -10 506.5 36 Q460 82 460 180 L460 225 Q460 285 405 285 L215 285 L215 0 L60 0 L60 700 L215 700 L215 425 L395 425 Q450 425 450 485 L450 520 Q450 618 496.5 664 Q543 710 645 710 L680 710 L680 570 L650 570 Q605 570 605 525 L605 470 Q605 438 593 418 Q581 398 567 386 Q550 372 530 365 L530 355 Z " />
<glyph glyph-name="afii10039" unicode="&#x425;" horiz-adv-x="670" d="M175 0 L-5 0 L225 360 L25 700 L200 700 L330 470 L340 470 L470 700 L645 700 L445 360 L675 0 L495 0 L340 250 L330 250 L175 0 Z " />
<glyph glyph-name="afii10033" unicode="&#x41f;" horiz-adv-x="725" d="M60 700 L665 700 L665 0 L510 0 L510 560 L215 560 L215 0 L60 0 L60 700 Z " />
<glyph glyph-name="afii10029" unicode="&#x41b;" horiz-adv-x="725" d="M180 700 L545 700 L715 0 L555 0 L420 560 L305 560 L170 0 L10 0 L180 700 Z " />
<glyph glyph-name="afii10018" unicode="&#x411;" horiz-adv-x="705" d="M685 230 Q685 181 666.5 139 Q648 97 613.5 66 Q579 35 529 17.5 Q479 0 416 0 L60 0 L60 700 L615 700 L615 560 L215 560 L215 460 L416 460 Q479 460 529 442.5 Q579 425 613.5 394 Q648 363 666.5 321 Q685 279 685 230 Z M415 140 Q468 140 496.5 166 Q525 192 525 230 Q525 268 496.5 294 Q468 320 415 320 L215 320 L215 140 L415 140 Z " />
<glyph glyph-name="afii10020" unicode="&#x413;" horiz-adv-x="565" d="M215 560 L215 0 L60 0 L60 700 L565 700 L565 560 L215 560 Z " />
<glyph glyph-name="afii10046" unicode="&#x42c;" horiz-adv-x="700" d="M670 245 Q670 194 650 149.5 Q630 105 593 72 Q556 39 503.5 19.5 Q451 0 385 0 L60 0 L60 700 L215 700 L215 490 L391 490 Q454 490 505.5 470.5 Q557 451 593.5 418 Q630 385 650 340.5 Q670 296 670 245 Z M385 140 Q445 140 477.5 170 Q510 200 510 245 Q510 290 477.5 320 Q445 350 385 350 L215 350 L215 140 L385 140 Z " />
<glyph glyph-name="afii10045" unicode="&#x42b;" horiz-adv-x="925" d="M865 0 L710 0 L710 700 L865 700 L865 0 Z M640 245 Q640 194 620 149.5 Q600 105 563 72 Q526 39 473.5 19.5 Q421 0 355 0 L60 0 L60 700 L215 700 L215 490 L361 490 Q424 490 475.5 470.5 Q527 451 563.5 418 Q600 385 620 340.5 Q640 296 640 245 Z M355 140 Q415 140 447.5 170 Q480 200 480 245 Q480 290 447.5 320 Q415 350 355 350 L215 350 L215 140 L355 140 Z " />
<glyph glyph-name="afii10044" unicode="&#x42a;" horiz-adv-x="750" d="M720 245 Q720 194 700 149.5 Q680 105 643 72 Q606 39 553.5 19.5 Q501 0 435 0 L140 0 L140 560 L0 560 L0 700 L295 700 L295 490 L441 490 Q504 490 555.5 470.5 Q607 451 643.5 418 Q680 385 700 340.5 Q720 296 720 245 Z M435 140 Q495 140 527.5 170 Q560 200 560 245 Q560 290 527.5 320 Q495 350 435 350 L295 350 L295 140 L435 140 Z " />
<glyph glyph-name="afii10047" unicode="&#x42d;" horiz-adv-x="780" d="M370 -30 Q299 -30 240 -8.5 Q181 13 136.5 48 Q92 83 62.5 128 Q33 173 20 220 L175 240 Q188 214 206 190.5 Q224 167 248.5 149 Q273 131 304.5 120.5 Q336 110 375 110 Q414 110 448.5 124 Q483 138 510 161.5 Q537 185 556.5 215.5 Q576 246 585 280 L325 280 L325 420 L585 420 Q576 454 556 484.5 Q536 515 508 538.5 Q480 562 446 576 Q412 590 375 590 Q339 590 311 580.5 Q283 571 261 555 Q239 539 222.5 518 Q206 497 195 475 L40 495 Q53 540 81 582.5 Q109 625 150.5 657.5 Q192 690 247 710 Q302 730 370 730 Q447 730 516 699.5 Q585 669 637 617 Q689 565 719.5 496 Q750 427 750 350 Q750 273 719.5 204 Q689 135 637 83 Q585 31 516 0.5 Q447 -30 370 -30 Z " />
<glyph glyph-name="afii10026" unicode="&#x418;" horiz-adv-x="735" d="M230 0 L60 0 L60 700 L215 700 L215 250 L225 250 L505 700 L675 700 L675 0 L520 0 L520 450 L510 450 L230 0 Z " />
<glyph glyph-name="afii10042" unicode="&#x428;" horiz-adv-x="1015" d="M955 0 L60 0 L60 700 L215 700 L215 140 L430 140 L430 700 L585 700 L585 140 L800 140 L800 700 L955 700 L955 0 Z " />
<glyph glyph-name="afii10043" unicode="&#x429;" horiz-adv-x="1045" d="M955 140 L1035 140 L1035 -115 L880 -115 L880 0 L60 0 L60 700 L215 700 L215 140 L430 140 L430 700 L585 700 L585 140 L800 140 L800 700 L955 700 L955 140 Z " />
<glyph glyph-name="afii10040" unicode="&#x426;" horiz-adv-x="735" d="M60 0 L60 700 L215 700 L215 140 L490 140 L490 700 L645 700 L645 140 L725 140 L725 -115 L570 -115 L570 0 L60 0 Z " />
<glyph glyph-name="afii10048" unicode="&#x42e;" horiz-adv-x="1035" d="M215 0 L60 0 L60 700 L215 700 L215 415 L310 415 Q321 481 352 538 Q383 595 428.5 638 Q474 681 531.5 705.5 Q589 730 655 730 Q724 730 787.5 701 Q851 672 899.5 621 Q948 570 976.5 500.5 Q1005 431 1005 350 Q1005 269 976.5 199.5 Q948 130 899.5 79 Q851 28 787.5 -1 Q724 -30 655 -30 Q589 -30 531.5 -5.5 Q474 19 428.5 60.5 Q383 102 352 157.5 Q321 213 310 275 L215 275 L215 0 Z M850 350 Q850 404 833.5 448.5 Q817 493 790 524.5 Q763 556 727.5 573 Q692 590 655 590 Q617 590 582 573 Q547 556 520 524.5 Q493 493 476.5 448.5 Q460 404 460 350 Q460 296 476.5 251.5 Q493 207 520 175.5 Q547 144 582 127 Q617 110 655 110 Q692 110 727.5 127 Q763 144 790 175.5 Q817 207 833.5 251.5 Q850 296 850 350 Z " />
<glyph glyph-name="afii10027" unicode="&#x419;" horiz-adv-x="735" d="M370 782 Q336 782 307.5 793.5 Q279 805 258.5 825.5 Q238 846 226.5 874.5 Q215 903 215 937 L315 937 Q315 914 331 898 Q347 882 370 882 Q393 882 409 898 Q425 914 425 937 L525 937 Q525 903 513.5 874.5 Q502 846 481.5 825.5 Q461 805 432.5 793.5 Q404 782 370 782 Z M230 0 L60 0 L60 700 L215 700 L215 250 L225 250 L505 700 L675 700 L675 0 L520 0 L520 450 L510 450 L230 0 Z " />
<glyph glyph-name="afii10041" unicode="&#x427;" horiz-adv-x="695" d="M205 700 L205 460 Q205 436 214.5 414 Q224 392 241 375.5 Q258 359 281 349.5 Q304 340 330 340 L480 340 L480 700 L635 700 L635 0 L480 0 L480 200 L330 200 Q266 200 214.5 219.5 Q163 239 126.5 273.5 Q90 308 70 356 Q50 404 50 460 L50 700 L205 700 Z " />
<glyph glyph-name="afii10021" unicode="&#x414;" horiz-adv-x="775" d="M155 0 L155 -115 L0 -115 L0 140 L75 140 L210 700 L565 700 L700 140 L775 140 L775 -115 L620 -115 L620 0 L155 0 Z M335 560 L235 140 L540 140 L440 560 L335 560 Z " />
<glyph glyph-name="afii10049" unicode="&#x42f;" horiz-adv-x="704" d="M320 190 L200 0 L30 0 L170 225 Q132 243 102 273 Q76 299 55.5 340.5 Q35 382 35 445 Q35 499 55 546 Q75 593 112 627 Q149 661 201.5 680.5 Q254 700 320 700 L644 700 L644 0 L490 0 L490 190 L320 190 Z M490 330 L490 560 L320 560 Q260 560 225 527 Q190 494 190 445 Q190 396 225 363 Q260 330 320 330 L490 330 Z " />
<glyph glyph-name="afii10025" unicode="&#x417;" horiz-adv-x="645" d="M165 225 Q180 176 218.5 143 Q257 110 325 110 Q393 110 424 136 Q455 162 455 200 Q455 238 424 264 Q393 290 325 290 L255 290 L255 430 L325 430 Q378 430 406.5 455 Q435 480 435 510 Q435 540 406.5 565 Q378 590 325 590 Q269 590 237 563 Q205 536 190 495 L35 515 Q46 560 69.5 599 Q93 638 129 667.5 Q165 697 214 713.5 Q263 730 325 730 Q387 730 437 712 Q487 694 522 664.5 Q557 635 576 597 Q595 559 595 520 Q595 476 576.5 448.5 Q558 421 535 404 Q509 385 475 375 L475 365 Q514 354 545 331 Q558 321 570.5 308 Q583 295 593 277.5 Q603 260 609 238.5 Q615 217 615 190 Q615 149 595 109.5 Q575 70 537.5 39 Q500 8 446 -11 Q392 -30 325 -30 Q257 -30 204.5 -12.5 Q152 5 113 36.5 Q74 68 48.5 111 Q23 154 10 205 L165 225 Z " />
<glyph glyph-name="afii10038" unicode="&#x424;" horiz-adv-x="935" d="M390 30 Q309 32 243 58.5 Q177 85 129.5 128.5 Q82 172 56 229 Q30 286 30 350 Q30 414 56 471 Q82 528 129.5 571.5 Q177 615 243 641.5 Q309 668 390 670 L390 740 L545 740 L545 670 Q626 668 692 641.5 Q758 615 805.5 571.5 Q853 528 879 471 Q905 414 905 350 Q905 286 879 229 Q853 172 805.5 128.5 Q758 85 692 58.5 Q626 32 545 30 L545 -40 L390 -40 L390 30 Z M390 531 Q343 529 305 513.5 Q267 498 240.5 473.5 Q214 449 199.5 417.5 Q185 386 185 350 Q185 314 199.5 282.5 Q214 251 240.5 226.5 Q267 202 305 187 Q343 172 390 170 L390 531 Z M545 170 Q592 172 630 187 Q668 202 694.5 226.5 Q721 251 735.5 282.5 Q750 314 750 350 Q750 386 735.5 417.5 Q721 449 694.5 473.5 Q668 498 630 513.5 Q592 529 545 531 L545 170 Z " />
<glyph glyph-name="afii10024" unicode="&#x416;" horiz-adv-x="1065" d="M885 355 Q909 348 927 333 Q943 320 956.5 297.5 Q970 275 970 240 L970 175 Q970 130 1015 130 L1045 130 L1045 -10 L1010 -10 Q908 -10 861.5 36 Q815 82 815 180 L815 225 Q815 285 760 285 L610 285 L610 0 L455 0 L455 285 L305 285 Q250 285 250 225 L250 180 Q250 82 203.5 36 Q157 -10 55 -10 L20 -10 L20 130 L50 130 Q95 130 95 175 L95 240 Q95 275 108 297.5 Q121 320 137 333 Q155 348 180 355 L180 365 Q159 372 142 386 Q128 398 116.5 418 Q105 438 105 470 L105 525 Q105 570 60 570 L30 570 L30 710 L65 710 Q167 710 213.5 664 Q260 618 260 520 L260 485 Q260 425 315 425 L455 425 L455 700 L610 700 L610 425 L750 425 Q805 425 805 485 L805 520 Q805 618 851.5 664 Q898 710 1000 710 L1035 710 L1035 570 L1005 570 Q960 570 960 525 L960 470 Q960 438 948 418 Q936 398 922 386 Q905 372 885 365 L885 355 Z " />
<glyph glyph-name="afii10037" unicode="&#x423;" horiz-adv-x="690" d="M490 165 Q456 75 402.5 27.5 Q349 -20 260 -20 L180 -20 L180 120 L260 120 Q290 120 307 135 Q324 150 335 180 L360 250 L175 250 L0 700 L160 700 L280 390 L415 390 L530 700 L690 700 L490 165 Z " />
<glyph glyph-name="exclam" unicode="&#x21;" horiz-adv-x="280" d="M215 375 L187 225 L93 225 L65 375 L65 700 L215 700 L215 375 Z M60 60 Q60 94 83 117 Q106 140 140 140 Q174 140 197 117 Q220 94 220 60 Q220 26 197 3 Q174 -20 140 -20 Q106 -20 83 3 Q60 26 60 60 Z " />
<glyph glyph-name="space" unicode="&#x20;" horiz-adv-x="190" d="" />
<glyph glyph-name="quotedbl" unicode="&#x22;" horiz-adv-x="395" d="M165 570 L145 460 L70 460 L50 570 L50 700 L165 700 L165 570 Z M345 570 L325 460 L250 460 L230 570 L230 700 L345 700 L345 570 Z " />
<glyph glyph-name="numbersign" unicode="&#x23;" horiz-adv-x="710" d="M65 0 L115 170 L30 170 L30 290 L150 290 L180 405 L90 405 L90 525 L215 525 L265 700 L405 700 L355 525 L465 525 L515 700 L655 700 L605 525 L680 525 L680 405 L570 405 L540 290 L620 290 L620 170 L505 170 L455 0 L315 0 L365 170 L255 170 L205 0 L65 0 Z M290 290 L400 290 L430 405 L320 405 L290 290 Z " />
<glyph glyph-name="hyphen" unicode="&#x2d;" horiz-adv-x="420" d="M20 245 L20 370 L400 370 L400 245 L20 245 Z " />
<glyph glyph-name="question" unicode="&#x3f;" horiz-adv-x="550" d="M275 590 Q230 590 200 562.5 Q170 535 155 490 L0 510 Q9 555 32 595 Q55 635 90.5 665 Q126 695 172.5 712.5 Q219 730 275 730 Q329 730 376 711 Q423 692 457 661 Q491 630 510.5 590.5 Q530 551 530 510 Q530 464 516 433.5 Q502 403 481 381.5 Q460 360 434.5 344.5 Q409 329 385.5 312 Q362 295 344 273.5 Q326 252 320 220 L190 220 Q190 266 203.5 297.5 Q217 329 238 351.5 Q259 374 282.5 390 Q306 406 327 422 Q348 438 361.5 456 Q375 474 375 500 Q375 538 347.5 564 Q320 590 275 590 Z M175 60 Q175 94 198 117 Q221 140 255 140 Q289 140 312 117 Q335 94 335 60 Q335 26 312 3 Q289 -20 255 -20 Q221 -20 198 3 Q175 26 175 60 Z " />
<glyph glyph-name="slash" unicode="&#x2f;" horiz-adv-x="430" d="M265 700 L420 700 L165 0 L10 0 L265 700 Z " />
<glyph glyph-name="period" unicode="&#x2e;" horiz-adv-x="220" d="M30 60 Q30 94 53 117 Q76 140 110 140 Q144 140 167 117 Q190 94 190 60 Q190 26 167 3 Q144 -20 110 -20 Q76 -20 53 3 Q30 26 30 60 Z " />
<glyph glyph-name="comma" unicode="&#x2c;" horiz-adv-x="220" d="M30 60 Q30 94 53 117 Q76 140 110 140 Q144 140 167 117 Q190 94 190 60 Q190 49 187.5 40 Q185 31 182 24 Q178 16 175 10 L95 -100 L35 -100 L70 -10 Q59 -4 50 6 Q42 14 36 27.5 Q30 41 30 60 Z " />
<glyph glyph-name="plus" unicode="&#x2b;" horiz-adv-x="455" d="M435 370 L435 245 L290 245 L290 95 L165 95 L165 245 L20 245 L20 370 L165 370 L165 520 L290 520 L290 370 L435 370 Z " />
<glyph glyph-name="quotesingle" unicode="&#x27;" horiz-adv-x="215" d="M165 570 L145 460 L70 460 L50 570 L50 700 L165 700 L165 570 Z " />
<glyph glyph-name="colon" unicode="&#x3a;" horiz-adv-x="220" d="M30 60 Q30 94 53 117 Q76 140 110 140 Q144 140 167 117 Q190 94 190 60 Q190 26 167 3 Q144 -20 110 -20 Q76 -20 53 3 Q30 26 30 60 Z M30 420 Q30 454 53 477 Q76 500 110 500 Q144 500 167 477 Q190 454 190 420 Q190 386 167 363 Q144 340 110 340 Q76 340 53 363 Q30 386 30 420 Z " />
<glyph glyph-name="semicolon" unicode="&#x3b;" horiz-adv-x="220" d="M30 60 Q30 94 53 117 Q76 140 110 140 Q144 140 167 117 Q190 94 190 60 Q190 49 187.5 40 Q185 31 182 24 Q178 16 175 10 L95 -100 L35 -100 L70 -10 Q59 -4 50 6 Q42 14 36 27.5 Q30 41 30 60 Z M30 420 Q30 454 53 477 Q76 500 110 500 Q144 500 167 477 Q190 454 190 420 Q190 386 167 363 Q144 340 110 340 Q76 340 53 363 Q30 386 30 420 Z " />
<glyph glyph-name="less" unicode="&#x3c;" horiz-adv-x="485" d="M455 340 Q385 315 317 290 Q249 265 180 240 L180 230 Q249 205 317 180 Q385 155 455 130 L455 5 L30 160 L30 310 L455 465 L455 340 L455 340 Z " />
<glyph glyph-name="greater" unicode="&#x3e;" horiz-adv-x="485" d="M30 465 L455 310 L455 160 L30 5 L30 130 Q100 155 168 180 Q236 205 305 230 L305 240 Q236 265 168 290 Q100 315 30 340 L30 465 Z " />
<glyph glyph-name="equal" unicode="&#x3d;" horiz-adv-x="435" d="M30 150 L30 265 L405 265 L405 150 L30 150 Z M30 340 L30 455 L405 455 L405 340 L30 340 Z " />
<glyph glyph-name="ampersand" unicode="&#x26;" horiz-adv-x="665" d="M205 420 L110 560 L110 700 L555 700 L555 560 L300 560 L300 550 L675 0 L490 0 L455 50 L445 50 Q426 28 400 10 Q377 -5 342 -17.5 Q307 -30 258 -30 Q208 -30 166 -13.5 Q124 3 94 31.5 Q64 60 47 98.5 Q30 137 30 180 Q30 244 57 288 Q84 332 117 359 Q156 391 205 410 L205 420 Z M285 110 Q308 110 325.5 117.5 Q343 125 355 135 Q369 146 380 160 L275 315 Q250 304 232 287 Q216 273 203 251.5 Q190 230 190 200 Q190 162 216.5 136 Q243 110 285 110 Z " />
<glyph glyph-name="bracketleft" unicode="&#x5b;" horiz-adv-x="360" d="M215 590 L215 -10 L340 -10 L340 -150 L60 -150 L60 730 L340 730 L340 590 L215 590 Z " />
<glyph glyph-name="bracketright" unicode="&#x5d;" horiz-adv-x="360" d="M20 590 L20 730 L300 730 L300 -150 L20 -150 L20 -10 L145 -10 L145 590 L20 590 Z " />
<glyph glyph-name="backslash" unicode="&#x5c;" horiz-adv-x="430" d="M420 0 L265 0 L10 700 L165 700 L420 0 Z " />
<glyph glyph-name="underscore" unicode="&#x5f;" horiz-adv-x="380" d="M0 -205 L0 -85 L380 -85 L380 -205 L0 -205 Z " />
<glyph glyph-name="parenleft" unicode="&#x28;" horiz-adv-x="370" d="M195 290 Q195 207 220.5 142 Q246 77 277 32 Q313 -21 360 -60 L295 -180 Q223 -128 167 -58 Q143 -28 120 9 Q97 46 79.5 89.5 Q62 133 51 183.5 Q40 234 40 290 Q40 346 51 396 Q62 446 79.5 489.5 Q97 533 120 570 Q143 607 167 637 Q223 707 295 760 L360 640 Q313 600 277 547 Q246 502 220.5 437.5 Q195 373 195 290 Z " />
<glyph glyph-name="parenright" unicode="&#x29;" horiz-adv-x="370" d="M175 290 Q175 331 168 368 Q161 405 149 437 Q137 469 122 496.5 Q107 524 92 547 Q56 600 10 640 L75 760 Q146 707 202 637 Q226 607 249 570 Q272 533 290 489.5 Q308 446 319 396 Q330 346 330 290 Q330 234 319 183.5 Q308 133 290 89.5 Q272 46 249 9 Q226 -28 202 -58 Q146 -128 75 -180 L10 -60 Q56 -21 92 32 Q107 54 122 82 Q137 110 149 142.5 Q161 175 168 212 Q175 249 175 290 Z " />
<glyph glyph-name="grave" unicode="&#x60;" horiz-adv-x="260" d="M75 695 L230 615 L195 535 L30 595 L75 695 Z " />
<glyph glyph-name="asciicircum" unicode="&#x5e;" horiz-adv-x="430" d="M410 360 L290 360 L220 545 L210 545 L140 360 L20 360 L151 700 L279 700 L410 360 Z " />
<glyph glyph-name="asterisk" unicode="&#x2a;" horiz-adv-x="380" d="M130 360 L50 415 L110 500 L30 500 L30 600 L140 600 L140 700 L240 700 L240 600 L350 600 L350 500 L270 500 L330 415 L250 360 L190 450 L130 360 Z " />
<glyph glyph-name="braceleft" unicode="&#x7b;" horiz-adv-x="350" d="M195 285 Q213 280 227 269 Q239 259 249.5 242.5 Q260 226 260 200 Q260 181 255.5 159 Q251 137 245 114.5 Q239 92 234.5 70.5 Q230 49 230 30 Q230 -10 275 -10 L330 -10 L330 -150 L270 -150 Q165 -150 120 -109.5 Q75 -69 75 10 Q75 29 80.5 50.5 Q86 72 92.5 94.5 Q99 117 104.5 139 Q110 161 110 180 Q110 220 70 220 L30 220 L30 360 L70 360 Q110 360 110 400 Q110 419 104.5 440.5 Q99 462 92.5 484.5 Q86 507 80.5 529 Q75 551 75 570 Q75 649 120 689.5 Q165 730 270 730 L330 730 L330 590 L275 590 Q230 590 230 550 Q230 531 234.5 509 Q239 487 245 464.5 Q251 442 255.5 420.5 Q260 399 260 380 Q260 354 249.5 337 Q239 320 227 311 Q213 300 195 295 L195 285 Z " />
<glyph glyph-name="braceright" unicode="&#x7d;" horiz-adv-x="350" d="M155 295 Q136 300 122 311 Q110 320 100 337 Q90 354 90 380 Q90 399 94.5 420.5 Q99 442 105 464.5 Q111 487 115.5 509 Q120 531 120 550 Q120 590 75 590 L20 590 L20 730 L80 730 Q185 730 230 689.5 Q275 649 275 570 Q275 551 269.5 529 Q264 507 257.5 484.5 Q251 462 245.5 440.5 Q240 419 240 400 Q240 360 280 360 L320 360 L320 220 L280 220 Q240 220 240 180 Q240 161 245.5 139 Q251 117 257.5 94.5 Q264 72 269.5 50.5 Q275 29 275 10 Q275 -69 230 -109.5 Q185 -150 80 -150 L20 -150 L20 -10 L75 -10 Q120 -10 120 30 Q120 49 115.5 70.5 Q111 92 105 114.5 Q99 137 94.5 159 Q90 181 90 200 Q90 226 100 242.5 Q110 259 122 269 Q136 280 155 285 L155 295 Z " />
<glyph glyph-name="bar" unicode="&#x7c;" horiz-adv-x="270" d="M210 -100 L60 -100 L60 750 L210 750 L210 -100 Z " />
<glyph glyph-name="asciitilde" unicode="&#x7e;" horiz-adv-x="450" d="M175 275 Q152 275 140 262 Q128 249 120 215 L20 275 Q20 301 29.5 324 Q39 347 54.5 364 Q70 381 89.5 390.5 Q109 400 130 400 Q156 400 175.5 391.5 Q195 383 211.5 372.5 Q228 362 243 353.5 Q258 345 275 345 Q298 345 310 358 Q322 371 330 405 L430 345 Q430 319 420.5 296 Q411 273 395.5 256 Q380 239 360.5 229.5 Q341 220 320 220 Q294 220 274.5 228.5 Q255 237 238.5 247.5 Q222 258 207 266.5 Q192 275 175 275 Z " />
<glyph glyph-name="endash" unicode="&#x2013;" horiz-adv-x="625" d="M20 220 L20 345 L605 345 L605 220 L20 220 Z " />
<glyph glyph-name="emdash" unicode="&#x2014;" horiz-adv-x="780" d="M20 220 L20 345 L760 345 L760 220 L20 220 Z " />
<glyph glyph-name="breve" unicode="&#x2d8;" horiz-adv-x="370" d="M185 545 Q151 545 122.5 556.5 Q94 568 73.5 588 Q53 608 41.5 635.5 Q30 663 30 695 L130 695 Q134 672 148.5 658.5 Q163 645 185 645 Q207 645 221.5 658.5 Q236 672 240 695 L340 695 Q340 663 328.5 635.5 Q317 608 296.5 588 Q276 568 247.5 556.5 Q219 545 185 545 Z " />
<glyph glyph-name="tilde" unicode="&#x2dc;" horiz-adv-x="360" d="M140 600 Q129 600 122 592.5 Q115 585 115 570 L115 560 L30 560 L30 595 Q30 652 51.5 676 Q73 700 115 700 Q140 700 153.5 692 Q167 684 177 675 Q187 666 196 658 Q205 650 220 650 Q231 650 238 657.5 Q245 665 245 680 L245 690 L330 690 L330 655 Q330 598 308.5 574 Q287 550 245 550 Q220 550 206 558 Q192 566 182.5 575 Q173 584 164 592 Q155 600 140 600 Z " />
<glyph glyph-name="dieresis" unicode="&#xa8;" horiz-adv-x="400" d="M30 630 Q30 660 50 680 Q70 700 100 700 Q130 700 150 680 Q170 660 170 630 Q170 600 150 580 Q130 560 100 560 Q70 560 50 580 Q30 600 30 630 Z M230 630 Q230 660 250 680 Q270 700 300 700 Q330 700 350 680 Q370 660 370 630 Q370 600 350 580 Q330 560 300 560 Q270 560 250 580 Q230 600 230 630 Z " />
<glyph glyph-name="afii10051" unicode="&#x402;" horiz-adv-x="755" d="M500 30 Q526 30 543 47 Q560 64 560 90 L560 180 Q560 204 550.5 226 Q541 248 524 264.5 Q507 281 484 290.5 Q461 300 435 300 L305 300 L305 0 L150 0 L150 560 L-20 560 L-20 700 L500 700 L500 560 L305 560 L305 440 L435 440 Q501 440 553 421 Q605 402 641 368 Q677 334 696 286 Q715 238 715 180 L715 90 Q715 -4 662 -57 Q609 -110 515 -110 Q498 -110 483 -108 Q468 -106 456 -103 Q442 -99 430 -95 L445 40 Q453 37 463 35 Q481 30 500 30 Z " />
<glyph glyph-name="quotesinglbase" unicode="&#x201a;" horiz-adv-x="220" d="M30 60 Q30 94 53 117 Q76 140 110 140 Q144 140 167 117 Q190 94 190 60 Q190 49 187.5 40 Q185 31 182 24 Q178 16 175 10 L95 -100 L35 -100 L70 -10 Q59 -4 50 6 Q42 14 36 27.5 Q30 41 30 60 Z " />
<glyph glyph-name="quotedblbase" unicode="&#x201e;" horiz-adv-x="410" d="M30 60 Q30 94 53 117 Q76 140 110 140 Q144 140 167 117 Q190 94 190 60 Q190 49 187.5 40 Q185 31 182 24 Q178 16 175 10 L95 -100 L35 -100 L70 -10 Q59 -4 50 6 Q42 14 36 27.5 Q30 41 30 60 Z M220 60 Q220 94 243 117 Q266 140 300 140 Q334 140 357 117 Q380 94 380 60 Q380 49 377.5 40 Q375 31 372 24 Q368 16 365 10 L285 -100 L225 -100 L260 -10 Q249 -4 240 6 Q232 14 226 27.5 Q220 41 220 60 Z " />
<glyph glyph-name="dagger" unicode="&#x2020;" horiz-adv-x="455" d="M150 390 L30 390 L30 520 L150 520 L150 700 L305 700 L305 520 L425 520 L425 390 L305 390 L305 0 L150 0 L150 390 Z " />
<glyph glyph-name="daggerdbl" unicode="&#x2021;" horiz-adv-x="455" d="M150 440 L30 440 L30 570 L150 570 L150 700 L305 700 L305 570 L425 570 L425 440 L305 440 L305 260 L425 260 L425 130 L305 130 L305 0 L150 0 L150 130 L30 130 L30 260 L150 260 L150 440 Z " />
<glyph glyph-name="Euro" unicode="&#x20ac;" horiz-adv-x="820" d="M70 325 L70 375 L20 375 L20 465 L89 465 Q108 522 143.5 570.5 Q179 619 226.5 654.5 Q274 690 331 710 Q388 730 450 730 Q517 730 572.5 710 Q628 690 669.5 657.5 Q711 625 739 582.5 Q767 540 780 495 L625 475 Q614 497 597.5 518 Q581 539 559 555 Q537 571 509 580.5 Q481 590 445 590 Q385 590 333 556 Q281 522 252 465 L470 465 L470 375 L225 375 L225 325 L470 325 L470 235 L252 235 Q281 178 333 144 Q385 110 445 110 Q484 110 515.5 120.5 Q547 131 571.5 149 Q596 167 614 190.5 Q632 214 645 240 L800 220 Q787 173 757.5 128 Q728 83 683.5 48 Q639 13 580 -8.5 Q521 -30 450 -30 Q388 -30 331 -10 Q274 10 226.5 45.5 Q179 81 143.5 129.5 Q108 178 89 235 L20 235 L20 325 L70 325 Z " />
<glyph glyph-name="afii10058" unicode="&#x409;" horiz-adv-x="1085" d="M1055 245 Q1055 194 1035 149.5 Q1015 105 978 72 Q941 39 888.5 19.5 Q836 0 770 0 L460 0 L460 560 L290 560 L155 0 L0 0 L170 700 L615 700 L615 490 L776 490 Q839 490 890.5 470.5 Q942 451 978.5 418 Q1015 385 1035 340.5 Q1055 296 1055 245 Z M770 140 Q830 140 862.5 170 Q895 200 895 245 Q895 290 862.5 320 Q830 350 770 350 L615 350 L615 140 L770 140 Z " />
<glyph glyph-name="afii10059" unicode="&#x40a;" horiz-adv-x="1130" d="M1100 230 Q1100 181 1082 139 Q1064 97 1029.5 66 Q995 35 946 17.5 Q897 0 835 0 L495 0 L495 320 L215 320 L215 0 L60 0 L60 700 L215 700 L215 460 L495 460 L495 700 L650 700 L650 460 L840 460 Q900 460 948 442.5 Q996 425 1030 394 Q1064 363 1082 321 Q1100 279 1100 230 Z M840 140 Q893 140 919 166 Q945 192 945 230 Q945 268 919 294 Q893 320 840 320 L650 320 L650 140 L840 140 Z " />
<glyph glyph-name="afii10145" unicode="&#x40f;" horiz-adv-x="725" d="M285 0 L60 0 L60 700 L215 700 L215 140 L510 140 L510 700 L665 700 L665 0 L440 0 L440 -130 L285 -130 L285 0 Z " />
<glyph glyph-name="quoteleft" unicode="&#x2018;" horiz-adv-x="220" d="M190 550 Q190 516 167 493 Q144 470 110 470 Q76 470 53 493 Q30 516 30 550 Q30 570 37 586 Q41 594 45 600 L125 710 L185 710 L150 620 Q161 614 170 604 Q178 596 184 582.5 Q190 569 190 550 Z " />
<glyph glyph-name="quoteright" unicode="&#x2019;" horiz-adv-x="220" d="M30 630 Q30 664 53 687 Q76 710 110 710 Q144 710 167 687 Q190 664 190 630 Q190 619 187.5 610 Q185 601 182 594 Q178 586 175 580 L95 470 L35 470 L70 560 Q59 566 50 576 Q42 584 36 597.5 Q30 611 30 630 Z " />
<glyph glyph-name="quotedblleft" unicode="&#x201c;" horiz-adv-x="410" d="M190 550 Q190 516 167 493 Q144 470 110 470 Q76 470 53 493 Q30 516 30 550 Q30 570 37 586 Q41 594 45 600 L125 710 L185 710 L150 620 Q161 614 170 604 Q178 596 184 582.5 Q190 569 190 550 Z M380 550 Q380 516 357 493 Q334 470 300 470 Q266 470 243 493 Q220 516 220 550 Q220 570 227 586 Q231 594 235 600 L315 710 L375 710 L340 620 Q351 614 360 604 Q368 596 374 582.5 Q380 569 380 550 Z " />
<glyph glyph-name="quotedblright" unicode="&#x201d;" horiz-adv-x="410" d="M30 630 Q30 664 53 687 Q76 710 110 710 Q144 710 167 687 Q190 664 190 630 Q190 619 187.5 610 Q185 601 182 594 Q178 586 175 580 L95 470 L35 470 L70 560 Q59 566 50 576 Q42 584 36 597.5 Q30 611 30 630 Z M220 630 Q220 664 243 687 Q266 710 300 710 Q334 710 357 687 Q380 664 380 630 Q380 619 377.5 610 Q375 601 372 594 Q368 586 365 580 L285 470 L225 470 L260 560 Q249 566 240 576 Q232 584 226 597.5 Q220 611 220 630 Z " />
<glyph glyph-name="afii10060" unicode="&#x40b;" horiz-adv-x="755" d="M560 0 L560 180 Q560 204 550.5 226 Q541 248 524 264.5 Q507 281 484 290.5 Q461 300 435 300 L305 300 L305 0 L150 0 L150 560 L-20 560 L-20 700 L500 700 L500 560 L305 560 L305 440 L435 440 Q501 440 553 421 Q605 402 641 368 Q677 334 696 286 Q715 238 715 180 L715 0 L560 0 Z " />
<glyph glyph-name="dotaccent" unicode="&#x2d9;" horiz-adv-x="220" d="M30 625 Q30 659 53 682 Q76 705 110 705 Q144 705 167 682 Q190 659 190 625 Q190 591 167 568 Q144 545 110 545 Q76 545 53 568 Q30 591 30 625 Z " />
<glyph glyph-name="circumflex" unicode="&#x2c6;" horiz-adv-x="400" d="M250 700 L370 530 L260 530 L205 605 L195 605 L140 530 L30 530 L150 700 L250 700 Z " />
<glyph glyph-name="caron" unicode="&#x2c7;" horiz-adv-x="400" d="M150 530 L30 700 L140 700 L195 625 L205 625 L260 700 L370 700 L250 530 L150 530 Z " />
<glyph glyph-name="afii57929" unicode="&#x2bc;" horiz-adv-x="210" d="M30 630 Q30 660 52.5 682.5 Q75 705 105 705 Q135 705 157.5 682.5 Q180 660 180 630 Q180 620 177.5 612 Q175 604 172 598 Q168 591 165 585 L85 480 L35 480 L70 565 Q59 571 50 581 Q42 589 36 601 Q30 613 30 630 Z " />
<glyph glyph-name="ring" unicode="&#x2da;" horiz-adv-x="280" d="M30 590 Q30 612 38.5 632 Q47 652 62 667 Q77 682 97 691 Q117 700 140 700 Q162 700 182 691 Q202 682 217 667 Q232 652 241 632 Q250 612 250 590 Q250 567 241 547 Q232 527 217 512 Q202 497 182 488.5 Q162 480 140 480 Q117 480 97 488.5 Q77 497 62 512 Q47 527 38.5 547 Q30 567 30 590 Z M95 590 Q95 567 108 553.5 Q121 540 141 540 Q159 540 172 553.5 Q185 567 185 590 Q185 613 172 626.5 Q159 640 140 640 Q121 640 108 626.5 Q95 613 95 590 Z " />
<glyph glyph-name="acute" unicode="&#xb4;" horiz-adv-x="260" d="M230 595 L65 535 L30 615 L185 695 L230 595 Z " />
<glyph glyph-name="hungarumlaut" unicode="&#x2dd;" horiz-adv-x="390" d="M90 700 L205 700 L105 540 L30 540 L90 700 Z M245 700 L360 700 L260 540 L185 540 L245 700 Z " />
<glyph glyph-name="macron" unicode="&#xaf;" horiz-adv-x="330" d="M30 700 L300 700 L300 590 L30 590 L30 700 Z " />
<glyph glyph-name="Agrave" unicode="&#xc0;" horiz-adv-x="715" d="M180 700 L535 700 L705 0 L545 0 L510 145 L205 145 L170 0 L10 0 L180 700 Z M240 285 L475 285 L410 560 L305 560 L240 285 Z M305 950 L460 870 L425 790 L260 850 L305 950 Z " />
<glyph glyph-name="Aacute" unicode="&#xc1;" horiz-adv-x="715" d="M180 700 L535 700 L705 0 L545 0 L510 145 L205 145 L170 0 L10 0 L180 700 Z M240 285 L475 285 L410 560 L305 560 L240 285 Z M460 850 L295 790 L260 870 L415 950 L460 850 Z " />
<glyph glyph-name="Abreve" unicode="&#x102;" horiz-adv-x="715" d="M180 700 L535 700 L705 0 L545 0 L510 145 L205 145 L170 0 L10 0 L180 700 Z M240 285 L475 285 L410 560 L305 560 L240 285 Z M360 790 Q326 790 297.5 801.5 Q269 813 248.5 833 Q228 853 216.5 880.5 Q205 908 205 940 L305 940 Q309 917 323.5 903.5 Q338 890 360 890 Q382 890 396.5 903.5 Q411 917 415 940 L515 940 Q515 908 503.5 880.5 Q492 853 471.5 833 Q451 813 422.5 801.5 Q394 790 360 790 Z " />
<glyph glyph-name="Acircumflex" unicode="&#xc2;" horiz-adv-x="715" d="M180 700 L535 700 L705 0 L545 0 L510 145 L205 145 L170 0 L10 0 L180 700 Z M240 285 L475 285 L410 560 L305 560 L240 285 Z M410 944 L530 774 L420 774 L365 849 L355 849 L300 774 L190 774 L310 944 L410 944 Z " />
<glyph glyph-name="Adieresis" unicode="&#xc4;" horiz-adv-x="715" d="M180 700 L535 700 L705 0 L545 0 L510 145 L205 145 L170 0 L10 0 L180 700 Z M240 285 L475 285 L410 560 L305 560 L240 285 Z M190 855 Q190 885 210 905 Q230 925 260 925 Q290 925 310 905 Q330 885 330 855 Q330 825 310 805 Q290 785 260 785 Q230 785 210 805 Q190 825 190 855 Z M390 855 Q390 885 410 905 Q430 925 460 925 Q490 925 510 905 Q530 885 530 855 Q530 825 510 805 Q490 785 460 785 Q430 785 410 805 Q390 825 390 855 Z " />
<glyph glyph-name="Amacron" unicode="&#x100;" horiz-adv-x="715" d="M180 700 L535 700 L705 0 L545 0 L510 145 L205 145 L170 0 L10 0 L180 700 Z M240 285 L475 285 L410 560 L305 560 L240 285 Z M208 900 L478 900 L478 790 L208 790 L208 900 Z " />
<glyph glyph-name="Aring" unicode="&#xc5;" horiz-adv-x="715" d="M180 700 L535 700 L705 0 L545 0 L510 145 L205 145 L170 0 L10 0 L180 700 Z M240 285 L475 285 L410 560 L305 560 L240 285 Z M250 865 Q250 887 258.5 907 Q267 927 282 942 Q297 957 317 966 Q337 975 360 975 Q382 975 402 966 Q422 957 437 942 Q452 927 461 907 Q470 887 470 865 Q470 842 461 822 Q452 802 437 787 Q422 772 402 763.5 Q382 755 360 755 Q337 755 317 763.5 Q297 772 282 787 Q267 802 258.5 822 Q250 842 250 865 Z M315 865 Q315 842 328 828.5 Q341 815 361 815 Q379 815 392 828.5 Q405 842 405 865 Q405 888 392 901.5 Q379 915 360 915 Q341 915 328 901.5 Q315 888 315 865 Z " />
<glyph glyph-name="Atilde" unicode="&#xc3;" horiz-adv-x="715" d="M180 700 L535 700 L705 0 L545 0 L510 145 L205 145 L170 0 L10 0 L180 700 Z M240 285 L475 285 L410 560 L305 560 L240 285 Z M320 830 Q309 830 302 822.5 Q295 815 295 800 L295 790 L210 790 L210 825 Q210 882 231.5 906 Q253 930 295 930 Q320 930 333.5 922 Q347 914 357 905 Q367 896 376 888 Q385 880 400 880 Q411 880 418 887.5 Q425 895 425 910 L425 920 L510 920 L510 885 Q510 828 488.5 804 Q467 780 425 780 Q400 780 386 788 Q372 796 362.5 805 Q353 814 344 822 Q335 830 320 830 Z " />
<glyph glyph-name="Cacute" unicode="&#x106;" horiz-adv-x="780" d="M410 -30 Q333 -30 264 0.5 Q195 31 143 83 Q91 135 60.5 204 Q30 273 30 350 Q30 427 60.5 496 Q91 565 143 617 Q195 669 264 699.5 Q333 730 410 730 Q477 730 532.5 710 Q588 690 629.5 657.5 Q671 625 699 582.5 Q727 540 740 495 L585 475 Q574 497 557.5 518 Q541 539 519 555 Q497 571 469 580.5 Q441 590 405 590 Q362 590 322 571.5 Q282 553 251.5 520.5 Q221 488 203 444.5 Q185 401 185 350 Q185 299 203 255.5 Q221 212 251.5 179.5 Q282 147 322 128.5 Q362 110 405 110 Q444 110 475.5 120.5 Q507 131 531.5 149 Q556 167 574 190.5 Q592 214 605 240 L760 220 Q747 173 717.5 128 Q688 83 643.5 48 Q599 13 540 -8.5 Q481 -30 410 -30 Z M520 855 L355 795 L320 875 L475 955 L520 855 Z " />
<glyph glyph-name="Ccaron" unicode="&#x10c;" horiz-adv-x="780" d="M410 -30 Q333 -30 264 0.5 Q195 31 143 83 Q91 135 60.5 204 Q30 273 30 350 Q30 427 60.5 496 Q91 565 143 617 Q195 669 264 699.5 Q333 730 410 730 Q477 730 532.5 710 Q588 690 629.5 657.5 Q671 625 699 582.5 Q727 540 740 495 L585 475 Q574 497 557.5 518 Q541 539 519 555 Q497 571 469 580.5 Q441 590 405 590 Q362 590 322 571.5 Q282 553 251.5 520.5 Q221 488 203 444.5 Q185 401 185 350 Q185 299 203 255.5 Q221 212 251.5 179.5 Q282 147 322 128.5 Q362 110 405 110 Q444 110 475.5 120.5 Q507 131 531.5 149 Q556 167 574 190.5 Q592 214 605 240 L760 220 Q747 173 717.5 128 Q688 83 643.5 48 Q599 13 540 -8.5 Q481 -30 410 -30 Z M355 795 L235 965 L345 965 L400 890 L410 890 L465 965 L575 965 L455 795 L355 795 Z " />
<glyph glyph-name="Ccircumflex" unicode="&#x108;" horiz-adv-x="780" d="M410 -30 Q333 -30 264 0.5 Q195 31 143 83 Q91 135 60.5 204 Q30 273 30 350 Q30 427 60.5 496 Q91 565 143 617 Q195 669 264 699.5 Q333 730 410 730 Q477 730 532.5 710 Q588 690 629.5 657.5 Q671 625 699 582.5 Q727 540 740 495 L585 475 Q574 497 557.5 518 Q541 539 519 555 Q497 571 469 580.5 Q441 590 405 590 Q362 590 322 571.5 Q282 553 251.5 520.5 Q221 488 203 444.5 Q185 401 185 350 Q185 299 203 255.5 Q221 212 251.5 179.5 Q282 147 322 128.5 Q362 110 405 110 Q444 110 475.5 120.5 Q507 131 531.5 149 Q556 167 574 190.5 Q592 214 605 240 L760 220 Q747 173 717.5 128 Q688 83 643.5 48 Q599 13 540 -8.5 Q481 -30 410 -30 Z M455 955 L575 785 L465 785 L410 860 L400 860 L345 785 L235 785 L355 955 L455 955 Z " />
<glyph glyph-name="Dcaron" unicode="&#x10e;" horiz-adv-x="715" d="M530 350 Q530 395 514 433.5 Q498 472 469.5 500 Q441 528 401.5 544 Q362 560 315 560 L215 560 L215 140 L315 140 Q362 140 401.5 156 Q441 172 469.5 200 Q498 228 514 266.5 Q530 305 530 350 Z M685 350 Q685 277 657.5 213 Q630 149 580.5 102 Q531 55 463.5 27.5 Q396 0 315 0 L60 0 L60 700 L315 700 Q396 700 463.5 672.5 Q531 645 580.5 598 Q630 551 657.5 487 Q685 423 685 350 Z M295 790 L175 960 L285 960 L340 885 L350 885 L405 960 L515 960 L395 790 L295 790 Z " />
<glyph glyph-name="Dcroat" unicode="&#x110;" horiz-adv-x="740" d="M710 350 Q710 277 682.5 213 Q655 149 605.5 102 Q556 55 488.5 27.5 Q421 0 340 0 L85 0 L85 285 L10 285 L10 415 L85 415 L85 700 L340 700 Q421 700 488.5 672.5 Q556 645 605.5 598 Q655 551 682.5 487 Q710 423 710 350 Z M555 350 Q555 395 539 433.5 Q523 472 494.5 500 Q466 528 426.5 544 Q387 560 340 560 L240 560 L240 415 L360 415 L360 285 L240 285 L240 140 L340 140 Q387 140 426.5 156 Q466 172 494.5 200 Q523 228 539 266.5 Q555 305 555 350 Z " />
<glyph glyph-name="Egrave" unicode="&#xc8;" horiz-adv-x="635" d="M615 140 L615 0 L60 0 L60 700 L615 700 L615 560 L215 560 L215 420 L530 420 L530 280 L215 280 L215 140 L615 140 Z M295 940 L450 860 L415 780 L250 840 L295 940 Z " />
<glyph glyph-name="Eacute" unicode="&#xc9;" horiz-adv-x="635" d="M615 140 L615 0 L60 0 L60 700 L615 700 L615 560 L215 560 L215 420 L530 420 L530 280 L215 280 L215 140 L615 140 Z M445 840 L280 780 L245 860 L400 940 L445 840 Z " />
<glyph glyph-name="Ecaron" unicode="&#x11a;" horiz-adv-x="635" d="M615 140 L615 0 L60 0 L60 700 L615 700 L615 560 L215 560 L215 420 L530 420 L530 280 L215 280 L215 140 L615 140 Z M285 790 L165 960 L275 960 L330 885 L340 885 L395 960 L505 960 L385 790 L285 790 Z " />
<glyph glyph-name="Ecircumflex" unicode="&#xca;" horiz-adv-x="635" d="M615 140 L615 0 L60 0 L60 700 L615 700 L615 560 L215 560 L215 420 L530 420 L530 280 L215 280 L215 140 L615 140 Z M385 950 L505 780 L395 780 L340 855 L330 855 L275 780 L165 780 L285 950 L385 950 Z " />
<glyph glyph-name="Edieresis" unicode="&#xcb;" horiz-adv-x="635" d="M615 140 L615 0 L60 0 L60 700 L615 700 L615 560 L215 560 L215 420 L530 420 L530 280 L215 280 L215 140 L615 140 Z M170 860 Q170 890 190 910 Q210 930 240 930 Q270 930 290 910 Q310 890 310 860 Q310 830 290 810 Q270 790 240 790 Q210 790 190 810 Q170 830 170 860 Z M370 860 Q370 890 390 910 Q410 930 440 930 Q470 930 490 910 Q510 890 510 860 Q510 830 490 810 Q470 790 440 790 Q410 790 390 810 Q370 830 370 860 Z " />
<glyph glyph-name="Edotaccent" unicode="&#x116;" horiz-adv-x="635" d="M615 140 L615 0 L60 0 L60 700 L615 700 L615 560 L215 560 L215 420 L530 420 L530 280 L215 280 L215 140 L615 140 Z M260 860 Q260 894 283 917 Q306 940 340 940 Q374 940 397 917 Q420 894 420 860 Q420 826 397 803 Q374 780 340 780 Q306 780 283 803 Q260 826 260 860 Z " />
<glyph glyph-name="Emacron" unicode="&#x112;" horiz-adv-x="635" d="M615 140 L615 0 L60 0 L60 700 L615 700 L615 560 L215 560 L215 420 L530 420 L530 280 L215 280 L215 140 L615 140 Z M193 905 L463 905 L463 795 L193 795 L193 905 Z " />
<glyph glyph-name="Gbreve" unicode="&#x11e;" horiz-adv-x="795" d="M405 110 Q444 110 475.5 120.5 Q507 131 531 147.5 Q555 164 572 185.5 Q589 207 600 230 L600 240 L415 240 L415 380 L765 380 L765 320 Q765 247 737.5 183 Q710 119 662.5 72 Q615 25 550 -2.5 Q485 -30 410 -30 Q333 -30 264 0.5 Q195 31 143 83 Q91 135 60.5 204 Q30 273 30 350 Q30 427 60.5 496 Q91 565 143 617 Q195 669 264 699.5 Q333 730 410 730 Q477 730 532.5 710 Q588 690 629.5 657.5 Q671 625 699 582.5 Q727 540 740 495 L585 475 Q574 497 557.5 518 Q541 539 519 555 Q497 571 469 580.5 Q441 590 405 590 Q362 590 322 571.5 Q282 553 251.5 520.5 Q221 488 203 444.5 Q185 401 185 350 Q185 299 203 255.5 Q221 212 251.5 179.5 Q282 147 322 128.5 Q362 110 405 110 Z M415 790 Q381 790 352.5 801.5 Q324 813 303.5 833 Q283 853 271.5 880.5 Q260 908 260 940 L360 940 Q364 917 378.5 903.5 Q393 890 415 890 Q437 890 451.5 903.5 Q466 917 470 940 L570 940 Q570 908 558.5 880.5 Q547 853 526.5 833 Q506 813 477.5 801.5 Q449 790 415 790 Z " />
<glyph glyph-name="Lacute" unicode="&#x139;" horiz-adv-x="590" d="M215 140 L580 140 L580 0 L60 0 L60 700 L215 700 L215 140 Z M270 835 L105 775 L70 855 L225 935 L270 835 Z " />
<glyph glyph-name="Igrave" unicode="&#xcc;" horiz-adv-x="280" d="M215 0 L60 0 L60 700 L215 700 L215 0 Z M66 940 L221 860 L186 780 L21 840 L66 940 Z " />
<glyph glyph-name="Iacute" unicode="&#xcd;" horiz-adv-x="280" d="M215 0 L60 0 L60 700 L215 700 L215 0 Z M260 850 L95 790 L60 870 L215 950 L260 850 Z " />
<glyph glyph-name="Icircumflex" unicode="&#xce;" horiz-adv-x="280" d="M215 0 L60 0 L60 700 L215 700 L215 0 Z M191 960 L311 790 L201 790 L146 865 L136 865 L81 790 L-29 790 L91 960 L191 960 Z " />
<glyph glyph-name="Idieresis" unicode="&#xcf;" horiz-adv-x="280" d="M215 0 L60 0 L60 700 L215 700 L215 0 Z M-29 865 Q-29 895 -9 915 Q11 935 41 935 Q71 935 91 915 Q111 895 111 865 Q111 835 91 815 Q71 795 41 795 Q11 795 -9 815 Q-29 835 -29 865 Z M171 865 Q171 895 191 915 Q211 935 241 935 Q271 935 291 915 Q311 895 311 865 Q311 835 291 815 Q271 795 241 795 Q211 795 191 815 Q171 835 171 865 Z " />
<glyph glyph-name="Imacron" unicode="&#x12a;" horiz-adv-x="280" d="M215 0 L60 0 L60 700 L215 700 L215 0 Z M-11 895 L259 895 L259 785 L-11 785 L-11 895 Z " />
<glyph glyph-name="Idotaccent" unicode="&#x130;" horiz-adv-x="270" d="M211 0 L56 0 L56 700 L211 700 L211 0 Z M55 865 Q55 899 78 922 Q101 945 135 945 Q169 945 192 922 Q215 899 215 865 Q215 831 192 808 Q169 785 135 785 Q101 785 78 808 Q55 831 55 865 Z " />
<glyph glyph-name="Nacute" unicode="&#x143;" horiz-adv-x="725" d="M500 260 L510 260 L510 700 L665 700 L665 0 L495 0 L225 440 L215 440 L215 0 L60 0 L60 700 L230 700 L500 260 Z M475 850 L310 790 L275 870 L430 950 L475 850 Z " />
<glyph glyph-name="Ncaron" unicode="&#x147;" horiz-adv-x="725" d="M500 260 L510 260 L510 700 L665 700 L665 0 L495 0 L225 440 L215 440 L215 0 L60 0 L60 700 L230 700 L500 260 Z M320 790 L200 960 L310 960 L365 885 L375 885 L430 960 L540 960 L420 790 L320 790 Z " />
<glyph glyph-name="Ncommaaccent" unicode="&#x145;" horiz-adv-x="725" d="M500 260 L510 260 L510 700 L665 700 L665 0 L495 0 L225 440 L215 440 L215 0 L60 0 L60 700 L230 700 L500 260 Z M290 -145 Q290 -132 296 -119.5 Q302 -107 312 -97 Q322 -87 334.5 -81 Q347 -75 360 -75 Q373 -75 385.5 -81 Q398 -87 408 -97 Q418 -107 424 -119.5 Q430 -132 430 -145 Q430 -155 428.5 -162 Q427 -169 425 -174 Q422 -180 420 -185 L345 -295 L295 -295 L325 -205 Q315 -200 307 -192 Q300 -185 295 -173.5 Q290 -162 290 -145 Z " />
<glyph glyph-name="Ntilde" unicode="&#xd1;" horiz-adv-x="725" d="M500 260 L510 260 L510 700 L665 700 L665 0 L495 0 L225 440 L215 440 L215 0 L60 0 L60 700 L230 700 L500 260 Z M330 835 Q319 835 312 827.5 Q305 820 305 805 L305 795 L220 795 L220 830 Q220 887 241.5 911 Q263 935 305 935 Q330 935 343.5 927 Q357 919 367 910 Q377 901 386 893 Q395 885 410 885 Q421 885 428 892.5 Q435 900 435 915 L435 925 L520 925 L520 890 Q520 833 498.5 809 Q477 785 435 785 Q410 785 396 793 Q382 801 372.5 810 Q363 819 354 827 Q345 835 330 835 Z " />
<glyph glyph-name="Ograve" unicode="&#xd2;" horiz-adv-x="830" d="M185 350 Q185 299 203.5 255.5 Q222 212 253.5 179.5 Q285 147 326.5 128.5 Q368 110 415 110 Q462 110 503.5 128.5 Q545 147 576.5 179.5 Q608 212 626.5 255.5 Q645 299 645 350 Q645 401 626.5 444.5 Q608 488 576.5 520.5 Q545 553 503.5 571.5 Q462 590 415 590 Q368 590 326.5 571.5 Q285 553 253.5 520.5 Q222 488 203.5 444.5 Q185 401 185 350 Z M800 350 Q800 271 770 202 Q740 133 688 81.5 Q636 30 566 0 Q496 -30 415 -30 Q334 -30 264 0 Q194 30 142 81.5 Q90 133 60 202 Q30 271 30 350 Q30 429 60 498 Q90 567 142 618.5 Q194 670 264 700 Q334 730 415 730 Q496 730 566 700 Q636 670 688 618.5 Q740 567 770 498 Q800 429 800 350 Z M365 950 L520 870 L485 790 L320 850 L365 950 Z " />
<glyph glyph-name="Oacute" unicode="&#xd3;" horiz-adv-x="830" d="M185 350 Q185 299 203.5 255.5 Q222 212 253.5 179.5 Q285 147 326.5 128.5 Q368 110 415 110 Q462 110 503.5 128.5 Q545 147 576.5 179.5 Q608 212 626.5 255.5 Q645 299 645 350 Q645 401 626.5 444.5 Q608 488 576.5 520.5 Q545 553 503.5 571.5 Q462 590 415 590 Q368 590 326.5 571.5 Q285 553 253.5 520.5 Q222 488 203.5 444.5 Q185 401 185 350 Z M800 350 Q800 271 770 202 Q740 133 688 81.5 Q636 30 566 0 Q496 -30 415 -30 Q334 -30 264 0 Q194 30 142 81.5 Q90 133 60 202 Q30 271 30 350 Q30 429 60 498 Q90 567 142 618.5 Q194 670 264 700 Q334 730 415 730 Q496 730 566 700 Q636 670 688 618.5 Q740 567 770 498 Q800 429 800 350 Z M515 855 L350 795 L315 875 L470 955 L515 855 Z " />
<glyph glyph-name="Ocircumflex" unicode="&#xd4;" horiz-adv-x="830" d="M185 350 Q185 299 203.5 255.5 Q222 212 253.5 179.5 Q285 147 326.5 128.5 Q368 110 415 110 Q462 110 503.5 128.5 Q545 147 576.5 179.5 Q608 212 626.5 255.5 Q645 299 645 350 Q645 401 626.5 444.5 Q608 488 576.5 520.5 Q545 553 503.5 571.5 Q462 590 415 590 Q368 590 326.5 571.5 Q285 553 253.5 520.5 Q222 488 203.5 444.5 Q185 401 185 350 Z M800 350 Q800 271 770 202 Q740 133 688 81.5 Q636 30 566 0 Q496 -30 415 -30 Q334 -30 264 0 Q194 30 142 81.5 Q90 133 60 202 Q30 271 30 350 Q30 429 60 498 Q90 567 142 618.5 Q194 670 264 700 Q334 730 415 730 Q496 730 566 700 Q636 670 688 618.5 Q740 567 770 498 Q800 429 800 350 Z M475 960 L595 790 L485 790 L430 865 L420 865 L365 790 L255 790 L375 960 L475 960 Z " />
<glyph glyph-name="Odieresis" unicode="&#xd6;" horiz-adv-x="830" d="M185 350 Q185 299 203.5 255.5 Q222 212 253.5 179.5 Q285 147 326.5 128.5 Q368 110 415 110 Q462 110 503.5 128.5 Q545 147 576.5 179.5 Q608 212 626.5 255.5 Q645 299 645 350 Q645 401 626.5 444.5 Q608 488 576.5 520.5 Q545 553 503.5 571.5 Q462 590 415 590 Q368 590 326.5 571.5 Q285 553 253.5 520.5 Q222 488 203.5 444.5 Q185 401 185 350 Z M800 350 Q800 271 770 202 Q740 133 688 81.5 Q636 30 566 0 Q496 -30 415 -30 Q334 -30 264 0 Q194 30 142 81.5 Q90 133 60 202 Q30 271 30 350 Q30 429 60 498 Q90 567 142 618.5 Q194 670 264 700 Q334 730 415 730 Q496 730 566 700 Q636 670 688 618.5 Q740 567 770 498 Q800 429 800 350 Z M250 880 Q250 910 270 930 Q290 950 320 950 Q350 950 370 930 Q390 910 390 880 Q390 850 370 830 Q350 810 320 810 Q290 810 270 830 Q250 850 250 880 Z M450 880 Q450 910 470 930 Q490 950 520 950 Q550 950 570 930 Q590 910 590 880 Q590 850 570 830 Q550 810 520 810 Q490 810 470 830 Q450 850 450 880 Z " />
<glyph glyph-name="Ohungarumlaut" unicode="&#x150;" horiz-adv-x="830" d="M185 350 Q185 299 203.5 255.5 Q222 212 253.5 179.5 Q285 147 326.5 128.5 Q368 110 415 110 Q462 110 503.5 128.5 Q545 147 576.5 179.5 Q608 212 626.5 255.5 Q645 299 645 350 Q645 401 626.5 444.5 Q608 488 576.5 520.5 Q545 553 503.5 571.5 Q462 590 415 590 Q368 590 326.5 571.5 Q285 553 253.5 520.5 Q222 488 203.5 444.5 Q185 401 185 350 Z M800 350 Q800 271 770 202 Q740 133 688 81.5 Q636 30 566 0 Q496 -30 415 -30 Q334 -30 264 0 Q194 30 142 81.5 Q90 133 60 202 Q30 271 30 350 Q30 429 60 498 Q90 567 142 618.5 Q194 670 264 700 Q334 730 415 730 Q496 730 566 700 Q636 670 688 618.5 Q740 567 770 498 Q800 429 800 350 Z M370 950 L485 950 L385 790 L310 790 L370 950 Z M525 950 L640 950 L540 790 L465 790 L525 950 Z " />
<glyph glyph-name="Omacron" unicode="&#x14c;" horiz-adv-x="830" d="M185 350 Q185 299 203.5 255.5 Q222 212 253.5 179.5 Q285 147 326.5 128.5 Q368 110 415 110 Q462 110 503.5 128.5 Q545 147 576.5 179.5 Q608 212 626.5 255.5 Q645 299 645 350 Q645 401 626.5 444.5 Q608 488 576.5 520.5 Q545 553 503.5 571.5 Q462 590 415 590 Q368 590 326.5 571.5 Q285 553 253.5 520.5 Q222 488 203.5 444.5 Q185 401 185 350 Z M800 350 Q800 271 770 202 Q740 133 688 81.5 Q636 30 566 0 Q496 -30 415 -30 Q334 -30 264 0 Q194 30 142 81.5 Q90 133 60 202 Q30 271 30 350 Q30 429 60 498 Q90 567 142 618.5 Q194 670 264 700 Q334 730 415 730 Q496 730 566 700 Q636 670 688 618.5 Q740 567 770 498 Q800 429 800 350 Z M263 920 L533 920 L533 810 L263 810 L263 920 Z " />
<glyph glyph-name="Otilde" unicode="&#xd5;" horiz-adv-x="830" d="M185 350 Q185 299 203.5 255.5 Q222 212 253.5 179.5 Q285 147 326.5 128.5 Q368 110 415 110 Q462 110 503.5 128.5 Q545 147 576.5 179.5 Q608 212 626.5 255.5 Q645 299 645 350 Q645 401 626.5 444.5 Q608 488 576.5 520.5 Q545 553 503.5 571.5 Q462 590 415 590 Q368 590 326.5 571.5 Q285 553 253.5 520.5 Q222 488 203.5 444.5 Q185 401 185 350 Z M800 350 Q800 271 770 202 Q740 133 688 81.5 Q636 30 566 0 Q496 -30 415 -30 Q334 -30 264 0 Q194 30 142 81.5 Q90 133 60 202 Q30 271 30 350 Q30 429 60 498 Q90 567 142 618.5 Q194 670 264 700 Q334 730 415 730 Q496 730 566 700 Q636 670 688 618.5 Q740 567 770 498 Q800 429 800 350 Z M380 845 Q369 845 362 837.5 Q355 830 355 815 L355 805 L270 805 L270 840 Q270 897 291.5 921 Q313 945 355 945 Q380 945 393.5 937 Q407 929 417 920 Q427 911 436 903 Q445 895 460 895 Q471 895 478 902.5 Q485 910 485 925 L485 935 L570 935 L570 900 Q570 843 548.5 819 Q527 795 485 795 Q460 795 446 803 Q432 811 422.5 820 Q413 829 404 837 Q395 845 380 845 Z " />
<glyph glyph-name="Racute" unicode="&#x154;" horiz-adv-x="715" d="M215 210 L215 0 L60 0 L60 700 L405 700 Q467 700 517 681.5 Q567 663 602 630 Q637 597 656 552 Q675 507 675 455 Q675 424 669 398.5 Q663 373 653.5 352 Q644 331 632 314.5 Q620 298 607 286 Q577 257 540 240 L670 0 L505 0 Q476 54 447.5 105 Q419 156 390 210 L215 210 Z M405 350 Q458 350 489 380 Q520 410 520 455 Q520 500 489 530 Q458 560 405 560 L215 560 L215 350 L405 350 Z M450 840 L285 780 L250 860 L405 940 L450 840 Z " />
<glyph glyph-name="Rcommaaccent" unicode="&#x156;" horiz-adv-x="715" d="M215 210 L215 0 L60 0 L60 700 L405 700 Q467 700 517 681.5 Q567 663 602 630 Q637 597 656 552 Q675 507 675 455 Q675 424 669 398.5 Q663 373 653.5 352 Q644 331 632 314.5 Q620 298 607 286 Q577 257 540 240 L670 0 L505 0 Q476 54 447.5 105 Q419 156 390 210 L215 210 Z M405 350 Q458 350 489 380 Q520 410 520 455 Q520 500 489 530 Q458 560 405 560 L215 560 L215 350 L405 350 Z M295 -140 Q295 -127 301 -114.5 Q307 -102 317 -92 Q327 -82 339.5 -76 Q352 -70 365 -70 Q378 -70 390.5 -76 Q403 -82 413 -92 Q423 -102 429 -114.5 Q435 -127 435 -140 Q435 -150 433.5 -157 Q432 -164 430 -169 Q427 -175 425 -180 L350 -290 L300 -290 L330 -200 Q320 -195 312 -187 Q305 -180 300 -168.5 Q295 -157 295 -140 Z " />
<glyph glyph-name="Rcaron" unicode="&#x158;" horiz-adv-x="715" d="M215 210 L215 0 L60 0 L60 700 L405 700 Q467 700 517 681.5 Q567 663 602 630 Q637 597 656 552 Q675 507 675 455 Q675 424 669 398.5 Q663 373 653.5 352 Q644 331 632 314.5 Q620 298 607 286 Q577 257 540 240 L670 0 L505 0 Q476 54 447.5 105 Q419 156 390 210 L215 210 Z M405 350 Q458 350 489 380 Q520 410 520 455 Q520 500 489 530 Q458 560 405 560 L215 560 L215 350 L405 350 Z M300 780 L180 950 L290 950 L345 875 L355 875 L410 950 L520 950 L400 780 L300 780 Z " />
<glyph glyph-name="Sacute" unicode="&#x15a;" horiz-adv-x="635" d="M455 200 Q455 232 425 251 Q395 270 350 285 Q305 300 252.5 315 Q200 330 155 355 Q110 380 80 418.5 Q50 457 50 520 Q50 559 69 597 Q88 635 123 664.5 Q158 694 208 712 Q258 730 320 730 Q382 730 431 713.5 Q480 697 516 667.5 Q552 638 575.5 599 Q599 560 610 515 L455 495 Q440 536 408 563 Q376 590 320 590 Q267 590 238.5 565 Q210 540 210 510 Q210 480 240 462.5 Q270 445 315 431.5 Q360 418 412.5 402.5 Q465 387 510 361.5 Q555 336 585 295.5 Q615 255 615 190 Q615 149 595 109.5 Q575 70 537.5 39 Q500 8 446 -11 Q392 -30 325 -30 Q257 -30 204.5 -12.5 Q152 5 113 36.5 Q74 68 48.5 111 Q23 154 10 205 L165 225 Q180 176 218.5 143 Q257 110 325 110 Q393 110 424 136 Q455 162 455 200 Z M440 855 L275 795 L240 875 L395 955 L440 855 Z " />
<glyph glyph-name="Scaron" unicode="&#x160;" horiz-adv-x="635" d="M455 200 Q455 232 425 251 Q395 270 350 285 Q305 300 252.5 315 Q200 330 155 355 Q110 380 80 418.5 Q50 457 50 520 Q50 559 69 597 Q88 635 123 664.5 Q158 694 208 712 Q258 730 320 730 Q382 730 431 713.5 Q480 697 516 667.5 Q552 638 575.5 599 Q599 560 610 515 L455 495 Q440 536 408 563 Q376 590 320 590 Q267 590 238.5 565 Q210 540 210 510 Q210 480 240 462.5 Q270 445 315 431.5 Q360 418 412.5 402.5 Q465 387 510 361.5 Q555 336 585 295.5 Q615 255 615 190 Q615 149 595 109.5 Q575 70 537.5 39 Q500 8 446 -11 Q392 -30 325 -30 Q257 -30 204.5 -12.5 Q152 5 113 36.5 Q74 68 48.5 111 Q23 154 10 205 L165 225 Q180 176 218.5 143 Q257 110 325 110 Q393 110 424 136 Q455 162 455 200 Z M285 790 L165 960 L275 960 L330 885 L340 885 L395 960 L505 960 L385 790 L285 790 Z " />
<glyph glyph-name="Tcaron" unicode="&#x164;" horiz-adv-x="615" d="M10 560 L10 700 L605 700 L605 560 L385 560 L385 0 L230 0 L230 560 L10 560 Z M260 790 L140 960 L250 960 L305 885 L315 885 L370 960 L480 960 L360 790 L260 790 Z " />
<glyph glyph-name="Tcommaaccent" unicode="&#x162;" horiz-adv-x="615" d="M10 560 L10 700 L605 700 L605 560 L385 560 L385 0 L230 0 L230 560 L10 560 Z M235 -155 Q235 -142 241 -129.5 Q247 -117 257 -107 Q267 -97 279.5 -91 Q292 -85 305 -85 Q318 -85 330.5 -91 Q343 -97 353 -107 Q363 -117 369 -129.5 Q375 -142 375 -155 Q375 -165 373.5 -172 Q372 -179 370 -184 Q367 -190 365 -195 L290 -305 L240 -305 L270 -215 Q260 -210 252 -202 Q245 -195 240 -183.5 Q235 -172 235 -155 Z " />
<glyph glyph-name="Yacute" unicode="&#xdd;" horiz-adv-x="675" d="M415 0 L260 0 L260 230 L-5 700 L170 700 L335 400 L340 400 L505 700 L680 700 L415 230 L415 0 Z M450 840 L285 780 L250 860 L405 940 L450 840 Z " />
<glyph glyph-name="Ydieresis" unicode="&#x178;" horiz-adv-x="675" d="M415 0 L260 0 L260 230 L-5 700 L170 700 L335 400 L340 400 L505 700 L680 700 L415 230 L415 0 Z M170 860 Q170 890 190 910 Q210 930 240 930 Q270 930 290 910 Q310 890 310 860 Q310 830 290 810 Q270 790 240 790 Q210 790 190 810 Q170 830 170 860 Z M370 860 Q370 890 390 910 Q410 930 440 930 Q470 930 490 910 Q510 890 510 860 Q510 830 490 810 Q470 790 440 790 Q410 790 390 810 Q370 830 370 860 Z " />
<glyph glyph-name="Ugrave" unicode="&#xd9;" horiz-adv-x="730" d="M365 110 Q433 110 474 151.5 Q515 193 515 265 L515 700 L670 700 L670 265 Q670 199 648.5 145 Q627 91 587 52 Q547 13 490.5 -8.5 Q434 -30 365 -30 Q296 -30 239.5 -8.5 Q183 13 143 52 Q103 91 81.5 145 Q60 199 60 265 L60 700 L215 700 L215 265 Q215 193 256 151.5 Q297 110 365 110 Z M305 950 L460 870 L425 790 L260 850 L305 950 Z " />
<glyph glyph-name="Ucircumflex" unicode="&#xdb;" horiz-adv-x="730" d="M365 110 Q433 110 474 151.5 Q515 193 515 265 L515 700 L670 700 L670 265 Q670 199 648.5 145 Q627 91 587 52 Q547 13 490.5 -8.5 Q434 -30 365 -30 Q296 -30 239.5 -8.5 Q183 13 143 52 Q103 91 81.5 145 Q60 199 60 265 L60 700 L215 700 L215 265 Q215 193 256 151.5 Q297 110 365 110 Z M420 960 L540 790 L430 790 L375 865 L365 865 L310 790 L200 790 L320 960 L420 960 Z " />
<glyph glyph-name="Uacute" unicode="&#xda;" horiz-adv-x="730" d="M365 110 Q433 110 474 151.5 Q515 193 515 265 L515 700 L670 700 L670 265 Q670 199 648.5 145 Q627 91 587 52 Q547 13 490.5 -8.5 Q434 -30 365 -30 Q296 -30 239.5 -8.5 Q183 13 143 52 Q103 91 81.5 145 Q60 199 60 265 L60 700 L215 700 L215 265 Q215 193 256 151.5 Q297 110 365 110 Z M475 850 L310 790 L275 870 L430 950 L475 850 Z " />
<glyph glyph-name="Udieresis" unicode="&#xdc;" horiz-adv-x="730" d="M365 110 Q433 110 474 151.5 Q515 193 515 265 L515 700 L670 700 L670 265 Q670 199 648.5 145 Q627 91 587 52 Q547 13 490.5 -8.5 Q434 -30 365 -30 Q296 -30 239.5 -8.5 Q183 13 143 52 Q103 91 81.5 145 Q60 199 60 265 L60 700 L215 700 L215 265 Q215 193 256 151.5 Q297 110 365 110 Z M185 865 Q185 895 205 915 Q225 935 255 935 Q285 935 305 915 Q325 895 325 865 Q325 835 305 815 Q285 795 255 795 Q225 795 205 815 Q185 835 185 865 Z M385 865 Q385 895 405 915 Q425 935 455 935 Q485 935 505 915 Q525 895 525 865 Q525 835 505 815 Q485 795 455 795 Q425 795 405 815 Q385 835 385 865 Z " />
<glyph glyph-name="Uhungarumlaut" unicode="&#x170;" horiz-adv-x="730" d="M365 110 Q433 110 474 151.5 Q515 193 515 265 L515 700 L670 700 L670 265 Q670 199 648.5 145 Q627 91 587 52 Q547 13 490.5 -8.5 Q434 -30 365 -30 Q296 -30 239.5 -8.5 Q183 13 143 52 Q103 91 81.5 145 Q60 199 60 265 L60 700 L215 700 L215 265 Q215 193 256 151.5 Q297 110 365 110 Z M290 950 L405 950 L305 790 L230 790 L290 950 Z M445 950 L560 950 L460 790 L385 790 L445 950 Z " />
<glyph glyph-name="Umacron" unicode="&#x16a;" horiz-adv-x="730" d="M365 110 Q433 110 474 151.5 Q515 193 515 265 L515 700 L670 700 L670 265 Q670 199 648.5 145 Q627 91 587 52 Q547 13 490.5 -8.5 Q434 -30 365 -30 Q296 -30 239.5 -8.5 Q183 13 143 52 Q103 91 81.5 145 Q60 199 60 265 L60 700 L215 700 L215 265 Q215 193 256 151.5 Q297 110 365 110 Z M213 900 L483 900 L483 790 L213 790 L213 900 Z " />
<glyph glyph-name="Uring" unicode="&#x16e;" horiz-adv-x="730" d="M365 110 Q433 110 474 151.5 Q515 193 515 265 L515 700 L670 700 L670 265 Q670 199 648.5 145 Q627 91 587 52 Q547 13 490.5 -8.5 Q434 -30 365 -30 Q296 -30 239.5 -8.5 Q183 13 143 52 Q103 91 81.5 145 Q60 199 60 265 L60 700 L215 700 L215 265 Q215 193 256 151.5 Q297 110 365 110 Z M255 880 Q255 902 263.5 922 Q272 942 287 957 Q302 972 322 981 Q342 990 365 990 Q387 990 407 981 Q427 972 442 957 Q457 942 466 922 Q475 902 475 880 Q475 857 466 837 Q457 817 442 802 Q427 787 407 778.5 Q387 770 365 770 Q342 770 322 778.5 Q302 787 287 802 Q272 817 263.5 837 Q255 857 255 880 Z M320 880 Q320 857 333 843.5 Q346 830 366 830 Q384 830 397 843.5 Q410 857 410 880 Q410 903 397 916.5 Q384 930 365 930 Q346 930 333 916.5 Q320 903 320 880 Z " />
<glyph glyph-name="Zacute" unicode="&#x179;" horiz-adv-x="645" d="M30 140 L400 550 L400 560 L40 560 L40 700 L605 700 L605 560 L235 150 L235 140 L615 140 L615 0 L30 0 L30 140 Z M445 855 L280 795 L245 875 L400 955 L445 855 Z " />
<glyph glyph-name="Zcaron" unicode="&#x17d;" horiz-adv-x="645" d="M30 140 L400 550 L400 560 L40 560 L40 700 L605 700 L605 560 L235 150 L235 140 L615 140 L615 0 L30 0 L30 140 Z M285 790 L165 960 L275 960 L330 885 L340 885 L395 960 L505 960 L385 790 L285 790 Z " />
<glyph glyph-name="Zdotaccent" unicode="&#x17b;" horiz-adv-x="645" d="M30 140 L400 550 L400 560 L40 560 L40 700 L605 700 L605 560 L235 150 L235 140 L615 140 L615 0 L30 0 L30 140 Z M250 870 Q250 904 273 927 Q296 950 330 950 Q364 950 387 927 Q410 904 410 870 Q410 836 387 813 Q364 790 330 790 Q296 790 273 813 Q250 836 250 870 Z " />
<glyph glyph-name="afii10052" unicode="&#x403;" horiz-adv-x="565" d="M435 840 L270 780 L235 860 L390 940 L435 840 Z M215 560 L215 0 L60 0 L60 700 L565 700 L565 560 L215 560 Z " />
<glyph glyph-name="afii10061" unicode="&#x40c;" horiz-adv-x="710" d="M485 835 L320 775 L285 855 L440 935 L485 835 Z M530 355 Q554 348 572 333 Q588 320 601.5 297.5 Q615 275 615 240 L615 175 Q615 130 660 130 L690 130 L690 -10 L655 -10 Q553 -10 506.5 36 Q460 82 460 180 L460 225 Q460 285 405 285 L215 285 L215 0 L60 0 L60 700 L215 700 L215 425 L395 425 Q450 425 450 485 L450 520 Q450 618 496.5 664 Q543 710 645 710 L680 710 L680 570 L650 570 Q605 570 605 525 L605 470 Q605 438 593 418 Q581 398 567 386 Q550 372 530 365 L530 355 Z " />
<glyph glyph-name="afii10062" unicode="&#x40e;" horiz-adv-x="690" d="M347 782 Q313 782 284.5 793.5 Q256 805 235.5 825.5 Q215 846 203.5 874.5 Q192 903 192 937 L292 937 Q292 914 308 898 Q324 882 347 882 Q370 882 386 898 Q402 914 402 937 L502 937 Q502 903 490.5 874.5 Q479 846 458.5 825.5 Q438 805 409.5 793.5 Q381 782 347 782 Z M490 165 Q456 75 402.5 27.5 Q349 -20 260 -20 L180 -20 L180 120 L260 120 Q290 120 307 135 Q324 150 335 180 L360 250 L175 250 L0 700 L160 700 L280 390 L415 390 L530 700 L690 700 L490 165 Z " />
<glyph glyph-name="bullet" unicode="&#x2022;" horiz-adv-x="290" d="M40 295 Q40 340 70 370 Q100 400 145 400 Q190 400 220 370 Q250 340 250 295 Q250 250 220 220 Q190 190 145 190 Q100 190 70 220 Q40 250 40 295 Z " />
<glyph glyph-name="brokenbar" unicode="&#xa6;" horiz-adv-x="270" d="M210 383 L60 383 L60 750 L210 750 L210 383 Z M210 -100 L60 -100 L60 267 L210 267 L210 -100 Z " />
<glyph glyph-name="afii10050" unicode="&#x490;" horiz-adv-x="565" d="M215 560 L215 0 L60 0 L60 700 L410 700 L410 790 L565 790 L565 560 L215 560 Z " />
<glyph glyph-name="paragraph" unicode="&#xb6;" horiz-adv-x="510" d="M30 485 Q30 532 46 571.5 Q62 611 91 639.5 Q120 668 160.5 684 Q201 700 249 700 L490 700 L490 560 L400 560 L400 -200 L250 -200 L250 270 Q205 270 165 287.5 Q125 305 95 334.5 Q65 364 47.5 403 Q30 442 30 485 Z " />
<glyph glyph-name="periodcentered" unicode="&#xb7;" horiz-adv-x="190" d="M15 350 Q15 384 38 407 Q61 430 95 430 Q129 430 152 407 Q175 384 175 350 Q175 316 152 293 Q129 270 95 270 Q61 270 38 293 Q15 316 15 350 Z " />
<glyph glyph-name="afii61352" unicode="&#x2116;" horiz-adv-x="1070" d="M730 0 L730 115 L1030 115 L1030 0 L730 0 Z M500 260 L510 260 L510 700 L665 700 L665 0 L495 0 L225 440 L215 440 L215 0 L60 0 L60 700 L230 700 L500 260 Z M880 270 Q899 270 914.5 288 Q930 306 930 340 Q930 374 914.5 392 Q899 410 880 410 Q861 410 845.5 392 Q830 374 830 340 Q830 306 845.5 288 Q861 270 880 270 Z M880 170 Q848 170 819 183 Q790 196 768 219 Q746 242 733 273 Q720 304 720 340 Q720 376 733 407 Q746 438 768 461 Q790 484 819 497 Q848 510 880 510 Q912 510 941 497 Q970 484 992 461 Q1014 438 1027 407 Q1040 376 1040 340 Q1040 304 1027 273 Q1014 242 992 219 Q970 196 941 183 Q912 170 880 170 Z " />
<glyph glyph-name="currency" unicode="&#xa4;" horiz-adv-x="675" d="M30 375 L100 375 L100 700 L370 700 Q437 700 488.5 683 Q540 666 575 636 Q610 606 627.5 565 Q645 524 645 475 Q645 426 627.5 385 Q610 344 575 314 Q540 284 488.5 267 Q437 250 370 250 L255 250 L255 205 L475 205 L475 80 L255 80 L255 0 L100 0 L100 80 L30 80 L30 205 L100 205 L100 250 L30 250 L30 375 Z M255 575 L255 375 L370 375 Q427 375 458.5 404 Q490 433 490 475 Q490 517 458.5 546 Q427 575 370 575 L255 575 Z " />
<glyph glyph-name="AE" unicode="&#xc6;" horiz-adv-x="1000" d="M980 140 L980 0 L440 0 L440 145 L190 145 L155 0 L0 0 L170 700 L980 700 L980 560 L595 560 L595 420 L895 420 L895 280 L595 280 L595 140 L980 140 Z M225 285 L440 285 L440 560 L290 560 L225 285 Z " />
<glyph glyph-name="Eth" unicode="&#xd0;" horiz-adv-x="740" d="M710 350 Q710 277 682.5 213 Q655 149 605.5 102 Q556 55 488.5 27.5 Q421 0 340 0 L85 0 L85 285 L10 285 L10 415 L85 415 L85 700 L340 700 Q421 700 488.5 672.5 Q556 645 605.5 598 Q655 551 682.5 487 Q710 423 710 350 Z M555 350 Q555 395 539 433.5 Q523 472 494.5 500 Q466 528 426.5 544 Q387 560 340 560 L240 560 L240 415 L360 415 L360 285 L240 285 L240 140 L340 140 Q387 140 426.5 156 Q466 172 494.5 200 Q523 228 539 266.5 Q555 305 555 350 Z " />
<glyph glyph-name="sterling" unicode="&#xa3;" horiz-adv-x="549" d="M294 220 Q294 201 289 187.5 Q284 174 279 166 Q272 156 264 150 L264 140 L539 140 L539 0 L20 0 L20 140 L65 140 Q97 140 118 161 Q139 182 139 220 L139 300 L64 300 L64 440 L139 440 L139 530 Q139 624 187 677 Q235 730 329 730 Q348 730 366.5 727 Q385 724 400 720 Q418 716 434 710 L419 580 Q412 582 402 585 Q394 587 383 588.5 Q372 590 358 590 Q328 590 311 573 Q294 556 294 530 L294 440 L404 440 L404 300 L294 300 L294 220 Z " />
<glyph glyph-name="Lslash" unicode="&#x141;" horiz-adv-x="620" d="M245 470 L350 515 L350 385 L245 340 L245 139 L610 139 L610 0 L90 0 L90 280 L10 250 L10 380 L90 410 L90 700 L245 700 L245 470 Z " />
<glyph glyph-name="OE" unicode="&#x152;" horiz-adv-x="1045" d="M1025 140 L1025 0 L405 0 Q322 0 253.5 27.5 Q185 55 135 102 Q85 149 57.5 213 Q30 277 30 350 Q30 423 57.5 487 Q85 551 135 598 Q185 645 253.5 672.5 Q322 700 405 700 L1025 700 L1025 560 L640 560 L640 420 L940 420 L940 280 L640 280 L640 140 L1025 140 Z M185 350 Q185 307 202 268.5 Q219 230 248.5 201.5 Q278 173 318 156.5 Q358 140 405 140 L485 140 L485 560 L405 560 Q358 560 318 543.5 Q278 527 248.5 498.5 Q219 470 202 431.5 Q185 393 185 350 Z " />
<glyph glyph-name="Thorn" unicode="&#xde;" horiz-adv-x="655" d="M290 660 Q367 660 429 637 Q491 614 534.5 572.5 Q578 531 601.5 474 Q625 417 625 350 Q625 282 601.5 225.5 Q578 169 534.5 127.5 Q491 86 429 63 Q367 40 290 40 L215 40 L215 -20 L60 -20 L60 720 L215 720 L215 660 L290 660 Z M215 520 L215 180 L290 180 Q331 180 364.5 192.5 Q398 205 421.5 227.5 Q445 250 457.5 281 Q470 312 470 350 Q470 387 457.5 418.5 Q445 450 421.5 472.5 Q398 495 364.5 507.5 Q331 520 290 520 L215 520 Z " />
<glyph glyph-name="yen" unicode="&#xa5;" horiz-adv-x="660" d="M250 165 L250 215 L115 215 L115 311 L206 311 L-5 700 L170 700 L325 400 L330 400 L490 700 L665 700 L450 311 L540 311 L540 215 L405 215 L405 165 L540 165 L540 70 L405 70 L405 0 L250 0 L250 70 L115 70 L115 165 L250 165 Z " />
<glyph glyph-name="minus" unicode="&#x2212;" horiz-adv-x="420" d="M20 245 L20 370 L400 370 L400 245 L20 245 Z " />
<glyph glyph-name="divide" unicode="&#xf7;" horiz-adv-x="420" d="M400 250 L20 250 L20 370 L400 370 L400 250 Z M130 510 Q130 544 153 567 Q176 590 210 590 Q244 590 267 567 Q290 544 290 510 Q290 476 267 453 Q244 430 210 430 Q176 430 153 453 Q130 476 130 510 Z M20 370 L400 370 L400 250 L20 250 L20 370 Z M290 110 Q290 76 267 53 Q244 30 210 30 Q176 30 153 53 Q130 76 130 110 Q130 144 153 167 Q176 190 210 190 Q244 190 267 167 Q290 144 290 110 Z " />
<glyph glyph-name="multiply" unicode="&#xd7;" horiz-adv-x="440" d="M410 205 L325 120 L220 225 L115 120 L30 205 L135 310 L30 415 L115 500 L220 395 L325 500 L410 415 L305 310 L410 205 Z " />
<glyph glyph-name="cedilla" unicode="&#xb8;" horiz-adv-x="285" d="M175 -45 Q197 -51 215 -63 Q230 -74 242.5 -93.5 Q255 -113 255 -145 Q255 -198 220 -231.5 Q185 -265 125 -265 Q102 -265 84.5 -258 Q67 -251 55 -243 Q41 -233 30 -220 L75 -165 Q80 -171 88 -175 Q94 -179 103.5 -182 Q113 -185 125 -185 Q144 -185 157 -172.5 Q170 -160 170 -145 Q170 -130 157 -117.5 Q144 -105 125 -105 L75 -105 L125 15 L200 15 L175 -45 Z " />
<glyph glyph-name="ogonek" unicode="&#x2db;" horiz-adv-x="260" d="M140 -250 Q87 -250 58.5 -222.5 Q30 -195 30 -150 Q30 -115 50.5 -87 Q71 -59 97 -39 Q127 -16 165 0 L230 0 Q198 -20 172 -43 Q150 -63 132.5 -87 Q115 -111 115 -135 Q115 -175 155 -175 Q173 -175 187 -168 Q194 -164 200 -160 L220 -230 Q209 -236 197 -240 Q186 -244 171.5 -247 Q157 -250 140 -250 Z " />
<glyph glyph-name="exclamdown" unicode="&#xa1;" horiz-adv-x="280" d="M215 -200 L65 -200 L65 105 L93 255 L187 255 L215 105 L215 -200 Z M60 420 Q60 454 83 477 Q106 500 140 500 Q174 500 197 477 Q220 454 220 420 Q220 386 197 363 Q174 340 140 340 Q106 340 83 363 Q60 386 60 420 Z " />
<glyph glyph-name="questiondown" unicode="&#xbf;" horiz-adv-x="550" d="M275 -85 Q320 -85 350 -57.5 Q380 -30 395 15 L550 -5 Q541 -50 518 -90 Q495 -130 459.5 -160 Q424 -190 377.5 -207.5 Q331 -225 275 -225 Q221 -225 174 -206 Q127 -187 93 -156 Q59 -125 39.5 -85.5 Q20 -46 20 -5 Q20 41 34 69.5 Q48 98 69 117 Q90 136 115.5 148.5 Q141 161 164.5 175 Q188 189 206 208 Q224 227 230 260 L360 260 Q360 214 346.5 184.5 Q333 155 312 135 Q291 115 267.5 102.5 Q244 90 223 77 Q202 64 188.5 47.5 Q175 31 175 5 Q175 -33 202.5 -59 Q230 -85 275 -85 Z M375 420 Q375 386 352 363 Q329 340 295 340 Q261 340 238 363 Q215 386 215 420 Q215 454 238 477 Q261 500 295 500 Q329 500 352 477 Q375 454 375 420 Z " />
<glyph glyph-name="Oslash" unicode="&#xd8;" horiz-adv-x="870" d="M820 350 Q820 271 790 202 Q760 133 708 81.5 Q656 30 586 0 Q516 -30 435 -30 Q383 -30 335 -17.5 Q287 -5 245 18.5 Q203 42 168 74.5 Q133 107 108 147 L0 100 L0 220 L64 248 Q50 298 50 350 Q50 429 80 498 Q110 567 162 618.5 Q214 670 284 700 Q354 730 435 730 Q487 730 535 717 Q583 704 625 681 Q667 658 701.5 625 Q736 592 761 552 L870 600 L870 480 L806 452 Q820 401 820 350 Z M665 350 Q665 369 662 389 L249 209 Q281 163 329.5 136.5 Q378 110 435 110 Q482 110 523.5 128.5 Q565 147 596.5 179.5 Q628 212 646.5 255.5 Q665 299 665 350 Z M205 350 Q205 329 208 311 L621 491 Q589 537 540.5 563.5 Q492 590 435 590 Q388 590 346.5 571.5 Q305 553 273.5 520.5 Q242 488 223.5 444.5 Q205 401 205 350 Z " />
<glyph glyph-name="uni20BD" unicode="&#x20bd;" horiz-adv-x="675" d="M30 375 L100 375 L100 700 L370 700 Q437 700 488.5 683 Q540 666 575 636 Q610 606 627.5 565 Q645 524 645 475 Q645 426 627.5 385 Q610 344 575 314 Q540 284 488.5 267 Q437 250 370 250 L255 250 L255 205 L475 205 L475 80 L255 80 L255 0 L100 0 L100 80 L30 80 L30 205 L100 205 L100 250 L30 250 L30 375 Z M255 575 L255 375 L370 375 Q427 375 458.5 404 Q490 433 490 475 Q490 517 458.5 546 Q427 575 370 575 L255 575 Z " />
<glyph glyph-name="uni1E9E" unicode="&#x1e9e;" horiz-adv-x="710" d="M330 320 L330 415 L450 560 L450 570 L335 570 Q275 570 245 541.5 Q215 513 215 460 L215 0 L60 0 L60 460 Q60 512 78.5 556.5 Q97 601 132 632.5 Q167 664 218 682 Q269 700 335 700 L630 700 L630 585 L505 430 L505 420 Q553 408 592 382 Q608 371 624 356.5 Q640 342 652.5 322.5 Q665 303 672.5 279 Q680 255 680 225 Q680 178 663 137 Q646 96 612.5 65.5 Q579 35 528 17.5 Q477 0 410 0 L330 0 L330 130 L410 130 Q434 130 454.5 138 Q475 146 489.5 159 Q504 172 512 189 Q520 206 520 225 Q520 244 512 261 Q504 278 489.5 291 Q475 304 454.5 312 Q434 320 410 320 L330 320 Z " />
<glyph glyph-name="commaaccent" unicode="&#xf6c3;" horiz-adv-x="200" d="M30 -160 Q30 -147 36 -134.5 Q42 -122 52 -112 Q62 -102 74.5 -96 Q87 -90 100 -90 Q113 -90 125.5 -96 Q138 -102 148 -112 Q158 -122 164 -134.5 Q170 -147 170 -160 Q170 -170 168.5 -177 Q167 -184 165 -189 Q162 -195 160 -200 L85 -310 L35 -310 L65 -220 Q55 -215 47 -207 Q40 -200 35 -188.5 Q30 -177 30 -160 Z " />
<glyph glyph-name="afii10017" unicode="&#x410;" horiz-adv-x="715" d="M180 700 L535 700 L705 0 L545 0 L510 145 L205 145 L170 0 L10 0 L180 700 Z M240 285 L475 285 L410 560 L305 560 L240 285 Z " />
<glyph glyph-name="afii10019" unicode="&#x412;" horiz-adv-x="710" d="M385 700 Q436 700 477.5 684.5 Q519 669 548.5 643.5 Q578 618 594 586 Q610 554 610 520 Q610 484 596.5 461 Q583 438 567 424 Q549 408 525 400 L525 390 Q571 381 607 358 Q622 348 637 334.5 Q652 321 664 303 Q676 285 683 262 Q690 239 690 210 Q690 167 672.5 128.5 Q655 90 622.5 61.5 Q590 33 542.5 16.5 Q495 0 435 0 L60 0 L60 700 L385 700 Z M435 140 Q480 140 505 163 Q530 186 530 220 Q530 254 505 277 Q480 300 435 300 L215 300 L215 140 L435 140 Z M215 560 L215 440 L385 440 Q415 440 432.5 457 Q450 474 450 500 Q450 526 432.5 543 Q415 560 385 560 L215 560 Z " />
<glyph glyph-name="afii10022" unicode="&#x415;" horiz-adv-x="635" d="M615 140 L615 0 L60 0 L60 700 L615 700 L615 560 L215 560 L215 420 L530 420 L530 280 L215 280 L215 140 L615 140 Z " />
<glyph glyph-name="afii10030" unicode="&#x41c;" horiz-adv-x="880" d="M225 485 L215 485 L215 0 L60 0 L60 700 L230 700 L440 440 L650 700 L820 700 L820 0 L665 0 L665 485 L655 485 L440 220 L225 485 Z " />
<glyph glyph-name="afii10031" unicode="&#x41d;" horiz-adv-x="725" d="M60 700 L215 700 L215 415 L510 415 L510 700 L665 700 L665 0 L510 0 L510 275 L215 275 L215 0 L60 0 L60 700 Z " />
<glyph glyph-name="afii10032" unicode="&#x41e;" horiz-adv-x="830" d="M185 350 Q185 299 203.5 255.5 Q222 212 253.5 179.5 Q285 147 326.5 128.5 Q368 110 415 110 Q462 110 503.5 128.5 Q545 147 576.5 179.5 Q608 212 626.5 255.5 Q645 299 645 350 Q645 401 626.5 444.5 Q608 488 576.5 520.5 Q545 553 503.5 571.5 Q462 590 415 590 Q368 590 326.5 571.5 Q285 553 253.5 520.5 Q222 488 203.5 444.5 Q185 401 185 350 Z M800 350 Q800 271 770 202 Q740 133 688 81.5 Q636 30 566 0 Q496 -30 415 -30 Q334 -30 264 0 Q194 30 142 81.5 Q90 133 60 202 Q30 271 30 350 Q30 429 60 498 Q90 567 142 618.5 Q194 670 264 700 Q334 730 415 730 Q496 730 566 700 Q636 670 688 618.5 Q740 567 770 498 Q800 429 800 350 Z " />
<glyph glyph-name="afii10034" unicode="&#x420;" horiz-adv-x="715" d="M530 440 Q530 464 520 486 Q510 508 492.5 524.5 Q475 541 450 550.5 Q425 560 395 560 L215 560 L215 320 L395 320 Q425 320 450 329.5 Q475 339 492.5 355.5 Q510 372 520 394 Q530 416 530 440 Z M685 440 Q685 386 664.5 338.5 Q644 291 606 255.5 Q568 220 514.5 200 Q461 180 395 180 L215 180 L215 0 L60 0 L60 700 L395 700 Q461 700 514.5 680 Q568 660 606 624.5 Q644 589 664.5 541.5 Q685 494 685 440 Z " />
<glyph glyph-name="afii10035" unicode="&#x421;" horiz-adv-x="780" d="M410 -30 Q333 -30 264 0.5 Q195 31 143 83 Q91 135 60.5 204 Q30 273 30 350 Q30 427 60.5 496 Q91 565 143 617 Q195 669 264 699.5 Q333 730 410 730 Q477 730 532.5 710 Q588 690 629.5 657.5 Q671 625 699 582.5 Q727 540 740 495 L585 475 Q574 497 557.5 518 Q541 539 519 555 Q497 571 469 580.5 Q441 590 405 590 Q362 590 322 571.5 Q282 553 251.5 520.5 Q221 488 203 444.5 Q185 401 185 350 Q185 299 203 255.5 Q221 212 251.5 179.5 Q282 147 322 128.5 Q362 110 405 110 Q444 110 475.5 120.5 Q507 131 531.5 149 Q556 167 574 190.5 Q592 214 605 240 L760 220 Q747 173 717.5 128 Q688 83 643.5 48 Q599 13 540 -8.5 Q481 -30 410 -30 Z " />
<glyph glyph-name="afii10036" unicode="&#x422;" horiz-adv-x="615" d="M10 560 L10 700 L605 700 L605 560 L385 560 L385 0 L230 0 L230 560 L10 560 Z " />
<glyph glyph-name="cyrBreve" unicode="&#xf6d1;" horiz-adv-x="370" d="M185 785 Q151 785 122.5 796.5 Q94 808 73.5 828.5 Q53 849 41.5 877.5 Q30 906 30 940 L130 940 Q130 917 146 901 Q162 885 185 885 Q208 885 224 901 Q240 917 240 940 L340 940 Q340 906 328.5 877.5 Q317 849 296.5 828.5 Q276 808 247.5 796.5 Q219 785 185 785 Z " />
<glyph glyph-name="cyrbreve" unicode="&#xf6d4;" horiz-adv-x="340" d="M170 555 Q140 555 114.5 565.5 Q89 576 70 595 Q51 614 40.5 639.5 Q30 665 30 695 L120 695 Q120 672 133.5 658.5 Q147 645 170 645 Q193 645 206.5 658.5 Q220 672 220 695 L310 695 Q310 665 299.5 639.5 Q289 614 270 595 Q251 576 225.5 565.5 Q200 555 170 555 Z " />
<glyph glyph-name="afii10023" unicode="&#x401;" horiz-adv-x="635" d="M615 140 L615 0 L60 0 L60 700 L615 700 L615 560 L215 560 L215 420 L530 420 L530 280 L215 280 L215 140 L615 140 Z M165 864 Q165 894 185 914 Q205 934 235 934 Q265 934 285 914 Q305 894 305 864 Q305 834 285 814 Q265 794 235 794 Q205 794 185 814 Q165 834 165 864 Z M365 864 Q365 894 385 914 Q405 934 435 934 Q465 934 485 914 Q505 894 505 864 Q505 834 485 814 Q465 794 435 794 Q405 794 385 814 Q365 834 365 864 Z " />
<glyph glyph-name="afii10056" unicode="&#x407;" horiz-adv-x="300" d="M230 0 L75 0 L75 700 L230 700 L230 0 Z M-19 862 Q-19 892 1 912 Q21 932 51 932 Q81 932 101 912 Q121 892 121 862 Q121 832 101 812 Q81 792 51 792 Q21 792 1 812 Q-19 832 -19 862 Z M181 862 Q181 892 201 912 Q221 932 251 932 Q281 932 301 912 Q321 892 321 862 Q321 832 301 812 Q281 792 251 792 Q221 792 201 812 Q181 832 181 862 Z " />
<glyph glyph-name="Gcommaaccent" unicode="&#x122;" horiz-adv-x="795" d="M405 110 Q444 110 475.5 120.5 Q507 131 531 147.5 Q555 164 572 185.5 Q589 207 600 230 L600 240 L415 240 L415 380 L765 380 L765 320 Q765 247 737.5 183 Q710 119 662.5 72 Q615 25 550 -2.5 Q485 -30 410 -30 Q333 -30 264 0.5 Q195 31 143 83 Q91 135 60.5 204 Q30 273 30 350 Q30 427 60.5 496 Q91 565 143 617 Q195 669 264 699.5 Q333 730 410 730 Q477 730 532.5 710 Q588 690 629.5 657.5 Q671 625 699 582.5 Q727 540 740 495 L585 475 Q574 497 557.5 518 Q541 539 519 555 Q497 571 469 580.5 Q441 590 405 590 Q362 590 322 571.5 Q282 553 251.5 520.5 Q221 488 203 444.5 Q185 401 185 350 Q185 299 203 255.5 Q221 212 251.5 179.5 Q282 147 322 128.5 Q362 110 405 110 Z M340 -160 Q340 -147 346 -134.5 Q352 -122 362 -112 Q372 -102 384.5 -96 Q397 -90 410 -90 Q423 -90 435.5 -96 Q448 -102 458 -112 Q468 -122 474 -134.5 Q480 -147 480 -160 Q480 -170 478.5 -177 Q477 -184 475 -189 Q472 -195 470 -200 L395 -310 L345 -310 L375 -220 Q365 -215 357 -207 Q350 -200 345 -188.5 Q340 -177 340 -160 Z " />
<glyph glyph-name="Kcommaaccent" unicode="&#x136;" horiz-adv-x="695" d="M320 315 L215 200 L215 0 L60 0 L60 700 L215 700 L215 405 L490 700 L680 700 L430 430 L695 0 L515 0 L320 315 Z M280 -140 Q280 -127 286 -114.5 Q292 -102 302 -92 Q312 -82 324.5 -76 Q337 -70 350 -70 Q363 -70 375.5 -76 Q388 -82 398 -92 Q408 -102 414 -114.5 Q420 -127 420 -140 Q420 -150 418.5 -157 Q417 -164 415 -169 Q412 -175 410 -180 L335 -290 L285 -290 L315 -200 Q305 -195 297 -187 Q290 -180 285 -168.5 Q280 -157 280 -140 Z " />
<glyph glyph-name="Lcaron" unicode="&#x13d;" horiz-adv-x="590" d="M215 140 L580 140 L580 0 L60 0 L60 700 L215 700 L215 140 Z M270 635 Q270 665 292.5 687.5 Q315 710 345 710 Q375 710 397.5 687.5 Q420 665 420 635 Q420 625 417.5 617 Q415 609 412 603 Q408 596 405 590 L325 485 L275 485 L310 570 Q299 576 290 586 Q282 594 276 606 Q270 618 270 635 Z " />
<glyph glyph-name="Lcommaaccent" unicode="&#x13b;" horiz-adv-x="590" d="M215 140 L580 140 L580 0 L60 0 L60 700 L215 700 L215 140 Z M255 -150 Q255 -137 261 -124.5 Q267 -112 277 -102 Q287 -92 299.5 -86 Q312 -80 325 -80 Q338 -80 350.5 -86 Q363 -92 373 -102 Q383 -112 389 -124.5 Q395 -137 395 -150 Q395 -160 393.5 -167 Q392 -174 390 -179 Q387 -185 385 -190 L310 -300 L260 -300 L290 -210 Q280 -205 272 -197 Q265 -190 260 -178.5 Q255 -167 255 -150 Z " />
<glyph glyph-name="Scommaaccent" unicode="&#x218;" horiz-adv-x="635" d="M455 200 Q455 232 425 251 Q395 270 350 285 Q305 300 252.5 315 Q200 330 155 355 Q110 380 80 418.5 Q50 457 50 520 Q50 559 69 597 Q88 635 123 664.5 Q158 694 208 712 Q258 730 320 730 Q382 730 431 713.5 Q480 697 516 667.5 Q552 638 575.5 599 Q599 560 610 515 L455 495 Q440 536 408 563 Q376 590 320 590 Q267 590 238.5 565 Q210 540 210 510 Q210 480 240 462.5 Q270 445 315 431.5 Q360 418 412.5 402.5 Q465 387 510 361.5 Q555 336 585 295.5 Q615 255 615 190 Q615 149 595 109.5 Q575 70 537.5 39 Q500 8 446 -11 Q392 -30 325 -30 Q257 -30 204.5 -12.5 Q152 5 113 36.5 Q74 68 48.5 111 Q23 154 10 205 L165 225 Q180 176 218.5 143 Q257 110 325 110 Q393 110 424 136 Q455 162 455 200 Z M250 -164 Q250 -151 256 -138.5 Q262 -126 272 -116 Q282 -106 294.5 -100 Q307 -94 320 -94 Q333 -94 345.5 -100 Q358 -106 368 -116 Q378 -126 384 -138.5 Q390 -151 390 -164 Q390 -174 388.5 -181 Q387 -188 385 -193 Q382 -199 380 -204 L305 -314 L255 -314 L285 -224 Q275 -219 267 -211 Q260 -204 255 -192.5 Q250 -181 250 -164 Z " />
<glyph glyph-name="uni20B4" unicode="&#x20b4;" horiz-adv-x="655" d="M40 375 L40 465 L415 465 Q422 470 427 478 Q432 485 436 494 Q440 503 440 515 Q440 545 411 570 Q382 595 325 595 Q272 595 244 571.5 Q216 548 205 510 L50 530 Q59 569 81.5 605.5 Q104 642 139 669.5 Q174 697 220.5 713.5 Q267 730 326 730 Q393 730 444.5 713.5 Q496 697 530.5 669 Q565 641 582.5 603.5 Q600 566 600 525 Q600 509 597 498.5 Q594 488 590 480 Q586 471 580 465 L615 465 L615 375 L40 375 Z M615 325 L615 235 L240 235 Q232 230 227 222 Q222 215 218.5 205.5 Q215 196 215 185 Q215 155 244 130 Q273 105 330 105 Q383 105 411 128.5 Q439 152 450 190 L605 170 Q596 131 573.5 94.5 Q551 58 516 30.5 Q481 3 434 -13.5 Q387 -30 329 -30 Q262 -30 210.5 -13.5 Q159 3 124.5 31 Q90 59 72.5 96.5 Q55 134 55 175 Q55 190 58 201 Q61 212 65 220 Q69 229 75 235 L40 235 L40 325 L615 325 Z " />
<glyph glyph-name="A" unicode="A" horiz-adv-x="715" d="M180 700 L535 700 L705 0 L545 0 L510 145 L205 145 L170 0 L10 0 L180 700 Z M240 285 L475 285 L410 560 L305 560 L240 285 Z " />
<glyph glyph-name="afii10055" unicode="&#x406;" horiz-adv-x="275" d="M215 0 L60 0 L60 700 L215 700 L215 0 Z " />
<glyph glyph-name="afii10053" unicode="&#x404;" horiz-adv-x="780" d="M410 -30 Q333 -30 264 0.5 Q195 31 143 83 Q91 135 60.5 204 Q30 273 30 350 Q30 427 60.5 496 Q91 565 143 617 Q195 669 264 699.5 Q333 730 410 730 Q477 730 532.5 710 Q588 690 629.5 657.5 Q671 625 699 582.5 Q727 540 740 495 L585 475 Q574 497 557.5 518 Q541 539 519 555 Q497 571 469 580.5 Q441 590 405 590 Q367 590 333.5 576 Q300 562 272 538.5 Q244 515 224 484.5 Q204 454 195 420 L455 420 L455 280 L195 280 Q204 246 223.5 215.5 Q243 185 270 161.5 Q297 138 331.5 124 Q366 110 405 110 Q444 110 475.5 120.5 Q507 131 531.5 149 Q556 167 574 190.5 Q592 214 605 240 L760 220 Q747 173 717.5 128 Q688 83 643.5 48 Q599 13 540 -8.5 Q481 -30 410 -30 Z " />
<glyph glyph-name="afii10054" unicode="&#x405;" horiz-adv-x="635" d="M455 200 Q455 232 425 251 Q395 270 350 285 Q305 300 252.5 315 Q200 330 155 355 Q110 380 80 418.5 Q50 457 50 520 Q50 559 69 597 Q88 635 123 664.5 Q158 694 208 712 Q258 730 320 730 Q382 730 431 713.5 Q480 697 516 667.5 Q552 638 575.5 599 Q599 560 610 515 L455 495 Q440 536 408 563 Q376 590 320 590 Q267 590 238.5 565 Q210 540 210 510 Q210 480 240 462.5 Q270 445 315 431.5 Q360 418 412.5 402.5 Q465 387 510 361.5 Q555 336 585 295.5 Q615 255 615 190 Q615 149 595 109.5 Q575 70 537.5 39 Q500 8 446 -11 Q392 -30 325 -30 Q257 -30 204.5 -12.5 Q152 5 113 36.5 Q74 68 48.5 111 Q23 154 10 205 L165 225 Q180 176 218.5 143 Q257 110 325 110 Q393 110 424 136 Q455 162 455 200 Z " />
<glyph glyph-name="afii10057" unicode="&#x408;" horiz-adv-x="590" d="M530 235 Q530 175 511 126 Q492 77 456.5 42.5 Q421 8 370 -11 Q319 -30 256 -30 Q203 -30 159.5 -13.5 Q116 3 83 30.5 Q50 58 28.5 94.5 Q7 131 0 170 L150 205 Q161 163 189.5 136.5 Q218 110 260 110 Q309 110 342 144 Q375 178 375 235 L375 700 L530 700 L530 235 Z " />
<glyph glyph-name="ellipsis" unicode="&#x2026;" horiz-adv-x="680" d="M30 60 Q30 94 53 117 Q76 140 110 140 Q144 140 167 117 Q190 94 190 60 Q190 26 167 3 Q144 -20 110 -20 Q76 -20 53 3 Q30 26 30 60 Z M490 60 Q490 94 513 117 Q536 140 570 140 Q604 140 627 117 Q650 94 650 60 Q650 26 627 3 Q604 -20 570 -20 Q536 -20 513 3 Q490 26 490 60 Z M260 60 Q260 94 283 117 Q306 140 340 140 Q374 140 397 117 Q420 94 420 60 Q420 26 397 3 Q374 -20 340 -20 Q306 -20 283 3 Q260 26 260 60 Z " />
<glyph glyph-name="nonmarkingreturn" unicode="&#xd;" d="" />
<glyph glyph-name="B" unicode="B" horiz-adv-x="710" d="M385 700 Q436 700 477.5 684.5 Q519 669 548.5 643.5 Q578 618 594 586 Q610 554 610 520 Q610 484 596.5 461 Q583 438 567 424 Q549 408 525 400 L525 390 Q571 381 607 358 Q622 348 637 334.5 Q652 321 664 303 Q676 285 683 262 Q690 239 690 210 Q690 167 672.5 128.5 Q655 90 622.5 61.5 Q590 33 542.5 16.5 Q495 0 435 0 L60 0 L60 700 L385 700 Z M435 140 Q480 140 505 163 Q530 186 530 220 Q530 254 505 277 Q480 300 435 300 L215 300 L215 140 L435 140 Z M215 560 L215 440 L385 440 Q415 440 432.5 457 Q450 474 450 500 Q450 526 432.5 543 Q415 560 385 560 L215 560 Z " />
<glyph glyph-name="plusminus" unicode="&#xb1;" horiz-adv-x="475" d="M445 390 L445 265 L300 265 L300 150 L440 150 L440 30 L35 30 L35 150 L175 150 L175 265 L30 265 L30 390 L175 390 L175 540 L300 540 L300 390 L445 390 Z " />
<glyph glyph-name="dollar" unicode="&#x24;" horiz-adv-x="540" d="M205 70 Q169 76 138.5 91 Q108 106 84 129 Q60 152 43.5 181.5 Q27 211 20 245 L145 265 Q156 231 186.5 205.5 Q217 180 270 180 Q323 180 346.5 199.5 Q370 219 370 245 Q370 264 346.5 274 Q323 284 287 292 Q251 300 210 310 Q169 320 133 338 Q97 356 73.5 386 Q50 416 50 465 Q50 525 91.5 567.5 Q133 610 205 625 L205 720 L325 720 L325 625 Q400 614 445.5 571.5 Q491 529 510 465 L385 445 Q374 475 349.5 495 Q325 515 280 515 Q231 515 210.5 499 Q190 483 190 460 Q190 439 213.5 428.5 Q237 418 273 410 Q309 402 350 393 Q391 384 427 367 Q463 350 486.5 321 Q510 292 510 245 Q510 215 496.5 186.5 Q483 158 458.5 135 Q434 112 400 94.5 Q366 77 325 70 L325 -23 L205 -23 L205 70 Z " />
<glyph glyph-name="guilsinglleft" unicode="&#x2039;" horiz-adv-x="365" d="M195 230 L345 75 L260 -10 L20 235 L260 480 L345 395 L195 240 L195 230 Z " />
<glyph glyph-name="guilsinglright" unicode="&#x203a;" horiz-adv-x="365" d="M170 240 L20 395 L105 480 L345 235 L105 -10 L20 75 L170 230 L170 240 Z " />
<glyph glyph-name="section" unicode="&#xa7;" horiz-adv-x="510" d="M185 360 Q185 341 199.5 329 Q214 317 232 309 Q253 300 280 295 Q292 299 302 307 Q310 314 317.5 324.5 Q325 335 325 350 Q325 369 310 381 Q295 393 277 401 Q256 410 230 415 Q217 410 207 402 Q199 395 192 385 Q185 375 185 360 Z M465 360 Q465 329 452.5 309 Q440 289 425 277 Q407 263 385 255 L385 245 Q407 237 425 222 Q440 209 452.5 188 Q465 167 465 135 Q465 107 449 77.5 Q433 48 403.5 24 Q374 0 332.5 -15 Q291 -30 240 -30 Q197 -30 160 -15.5 Q123 -1 94.5 22 Q66 45 46.5 73.5 Q27 102 20 130 L155 150 Q163 131 184.5 113 Q206 95 240 95 Q282 95 301 110.5 Q320 126 320 145 Q320 163 299.5 174 Q279 185 248.5 195 Q218 205 182.5 216 Q147 227 116.5 244 Q86 261 65.5 286 Q45 311 45 350 Q45 381 57.5 401 Q70 421 85 433 Q103 447 125 455 L125 465 Q106 473 92 488 Q80 501 70 522 Q60 543 60 575 Q60 603 74.5 631 Q89 659 116 681 Q143 703 182 716.5 Q221 730 270 730 Q311 730 345.5 717 Q380 704 407 683.5 Q434 663 452.5 637 Q471 611 480 585 L345 565 Q334 580 317 592.5 Q300 605 270 605 Q236 605 220.5 592 Q205 579 205 565 Q205 547 224.5 536 Q244 525 272.5 515 Q301 505 335 494 Q369 483 397.5 466 Q426 449 445.5 424 Q465 399 465 360 Z " />
<glyph glyph-name="guillemotleft" unicode="&#xab;" horiz-adv-x="510" d="M140 440 L270 440 L160 240 L270 40 L140 40 L30 240 L140 440 Z M350 440 L480 440 L370 240 L480 40 L350 40 L240 240 L350 440 Z " />
<glyph glyph-name="logicalnot" unicode="&#xac;" horiz-adv-x="425" d="M270 275 L20 275 L20 400 L395 400 L395 170 L270 170 L270 275 Z " />
<glyph glyph-name="uni00AD" unicode="&#xad;" horiz-adv-x="420" d="M20 245 L20 370 L400 370 L400 245 L20 245 Z " />
<glyph glyph-name="degree" unicode="&#xb0;" horiz-adv-x="330" d="M165 705 Q193 705 217.5 694.5 Q242 684 260.5 665.5 Q279 647 289.5 622.5 Q300 598 300 570 Q300 542 289.5 517.5 Q279 493 260.5 474.5 Q242 456 217.5 445.5 Q193 435 165 435 Q136 435 111.5 445.5 Q87 456 69 474.5 Q51 493 40.5 517.5 Q30 542 30 570 Q30 598 40.5 622.5 Q51 647 69.5 665.5 Q88 684 112.5 694.5 Q137 705 165 705 Z M165 510 Q191 510 208 527 Q225 544 225 570 Q225 596 208 613 Q191 630 165 630 Q139 630 122 613 Q105 596 105 570 Q105 544 122 527 Q139 510 165 510 Z " />
<glyph glyph-name="guillemotright" unicode="&#xbb;" horiz-adv-x="510" d="M480 240 L370 40 L240 40 L350 240 L240 440 L370 440 L480 240 Z M270 240 L160 40 L30 40 L140 240 L30 440 L160 440 L270 240 Z " />
<glyph glyph-name="percent" unicode="&#x25;" horiz-adv-x="755" d="M245 0 L95 0 L510 700 L660 700 L245 0 Z M180 480 Q199 480 214.5 498 Q230 516 230 550 Q230 584 214.5 602 Q199 620 180 620 Q161 620 145.5 602 Q130 584 130 550 Q130 516 145.5 498 Q161 480 180 480 Z M180 380 Q148 380 119 393 Q90 406 68 429 Q46 452 33 483 Q20 514 20 550 Q20 586 33 617 Q46 648 68 671 Q90 694 119 707 Q148 720 180 720 Q212 720 241 707 Q270 694 292 671 Q314 648 327 617 Q340 586 340 550 Q340 514 327 483 Q314 452 292 429 Q270 406 241 393 Q212 380 180 380 Z M575 80 Q594 80 609.5 98 Q625 116 625 150 Q625 184 609.5 202 Q594 220 575 220 Q556 220 540.5 202 Q525 184 525 150 Q525 116 540.5 98 Q556 80 575 80 Z M575 -20 Q543 -20 514 -7 Q485 6 463 29 Q441 52 428 83 Q415 114 415 150 Q415 186 428 217 Q441 248 463 271 Q485 294 514 307 Q543 320 575 320 Q607 320 636 307 Q665 294 687 271 Q709 248 722 217 Q735 186 735 150 Q735 114 722 83 Q709 52 687 29 Q665 6 636 -7 Q607 -20 575 -20 Z " />
<glyph glyph-name="at" unicode="&#x40;" horiz-adv-x="820" d="M475 190 L465 190 Q459 179 448 170 Q439 162 424 156 Q409 150 388 150 Q359 150 331.5 163 Q304 176 282.5 199 Q261 222 248 253 Q235 284 235 320 Q235 356 248 387 Q261 418 282.5 441 Q304 464 331.5 477 Q359 490 388 490 Q409 490 424 484 Q439 478 448 470 Q459 461 465 450 L475 450 L475 480 L585 480 L585 265 Q619 273 644.5 303 Q670 333 670 390 Q670 431 653.5 467.5 Q637 504 605 531 Q573 558 526.5 574 Q480 590 420 590 Q364 590 314.5 569 Q265 548 228.5 511.5 Q192 475 171 425.5 Q150 376 150 320 Q150 264 171 214.5 Q192 165 228.5 128.5 Q265 92 314.5 71 Q364 50 420 50 Q459 50 493 57.5 Q527 65 552 75 Q581 86 605 100 L605 -15 Q581 -28 552 -38 Q527 -46 493 -53 Q459 -60 420 -60 Q337 -60 266 -30 Q195 0 142.5 51.5 Q90 103 60 172 Q30 241 30 320 Q30 399 60 468 Q90 537 142.5 588.5 Q195 640 266 670 Q337 700 420 700 Q506 700 574.5 675.5 Q643 651 691 609 Q739 567 764.5 510.5 Q790 454 790 390 Q790 343 771.5 301.5 Q753 260 719.5 228.5 Q686 197 640 178.5 Q594 160 540 160 L475 160 L475 190 Z M475 345 Q467 357 457 367 Q449 375 437 382.5 Q425 390 410 390 Q384 390 364.5 370 Q345 350 345 320 Q345 290 364.5 270 Q384 250 410 250 Q425 250 437 257 Q449 264 457 272 Q467 282 475 295 L475 345 Z " />
<glyph glyph-name="a" unicode="a" horiz-adv-x="585" d="M30 240 Q30 296 49 344 Q68 392 99.5 426.5 Q131 461 171.5 480.5 Q212 500 255 500 Q290 500 315 489 Q340 478 356 465 Q374 449 385 430 L395 430 L395 480 L535 480 L535 0 L395 0 L395 50 L385 50 Q374 30 356 15 Q340 1 315 -9.5 Q290 -20 255 -20 Q212 -20 171.5 -0.5 Q131 19 99.5 53.5 Q68 88 49 136 Q30 184 30 240 Z M395 290 Q383 314 366 332 Q352 348 331.5 361.5 Q311 375 285 375 Q236 375 203 339.5 Q170 304 170 240 Q170 176 203 140.5 Q236 105 285 105 Q311 105 331.5 118 Q352 131 366 147 Q383 165 395 190 L395 290 Z " />
<glyph glyph-name="b" unicode="b" horiz-adv-x="590" d="M560 240 Q560 184 541 136 Q522 88 490.5 53.5 Q459 19 418.5 -0.5 Q378 -20 335 -20 Q299 -20 274.5 -9.5 Q250 1 234 15 Q216 30 205 50 L195 50 L195 0 L55 0 L55 700 L195 700 L195 430 L205 430 Q216 449 234 465 Q250 478 274.5 489 Q299 500 335 500 Q378 500 418.5 480.5 Q459 461 490.5 426.5 Q522 392 541 344 Q560 296 560 240 Z M195 190 Q207 165 224 147 Q238 131 258.5 118 Q279 105 305 105 Q354 105 387 140.5 Q420 176 420 240 Q420 304 387 339.5 Q354 375 305 375 Q279 375 258.5 361.5 Q238 348 224 332 Q207 314 195 290 L195 190 Z " />
<glyph glyph-name="c" unicode="c" horiz-adv-x="550" d="M285 -20 Q234 -20 188 1 Q142 22 107 57.5 Q72 93 51 140 Q30 187 30 240 Q30 292 51 339.5 Q72 387 107 422.5 Q142 458 188 479 Q234 500 285 500 Q334 500 374 485.5 Q414 471 444 447.5 Q474 424 493 394.5 Q512 365 520 335 L380 315 Q369 338 346 356.5 Q323 375 285 375 Q262 375 241.5 365 Q221 355 205 337.5 Q189 320 179.5 295 Q170 270 170 240 Q170 210 179.5 185 Q189 160 205 142.5 Q221 125 241.5 115 Q262 105 285 105 Q327 105 353 127.5 Q379 150 390 180 L530 160 Q522 124 502.5 91.5 Q483 59 452.5 34.5 Q422 10 379.5 -5 Q337 -20 285 -20 Z " />
<glyph glyph-name="d" unicode="d" horiz-adv-x="590" d="M30 240 Q30 296 49 344 Q68 392 99.5 426.5 Q131 461 171.5 480.5 Q212 500 255 500 Q290 500 315 489 Q340 478 356 465 Q374 449 385 430 L395 430 L395 700 L535 700 L535 0 L395 0 L395 50 L385 50 Q374 30 356 15 Q340 1 315 -9.5 Q290 -20 255 -20 Q212 -20 171.5 -0.5 Q131 19 99.5 53.5 Q68 88 49 136 Q30 184 30 240 Z M395 290 Q383 314 366 332 Q352 348 331.5 361.5 Q311 375 285 375 Q236 375 203 339.5 Q170 304 170 240 Q170 176 203 140.5 Q236 105 285 105 Q311 105 331.5 118 Q352 131 366 147 Q383 165 395 190 L395 290 Z " />
<glyph glyph-name="e" unicode="e" horiz-adv-x="570" d="M285 500 Q339 500 386.5 480 Q434 460 469.5 424.5 Q505 389 525 341.5 Q545 294 545 240 L495 190 L180 190 Q191 152 217 128.5 Q243 105 285 105 Q309 105 326.5 109.5 Q344 114 357 121.5 Q370 129 378.5 139 Q387 149 395 160 L535 140 Q524 110 503 81 Q482 52 451 29.5 Q420 7 378.5 -6.5 Q337 -20 285 -20 Q234 -20 188 1 Q142 22 107 57.5 Q72 93 51 140 Q30 187 30 240 Q30 292 51 339.5 Q72 387 107 422.5 Q142 458 188 479 Q234 500 285 500 Z M285 375 Q243 375 217 351.5 Q191 328 180 290 L390 290 Q379 328 353 351.5 Q327 375 285 375 Z " />
<glyph glyph-name="f" unicode="f" horiz-adv-x="325" d="M20 480 L75 480 L75 525 Q75 568 89 604 Q103 640 127.5 665.5 Q152 691 184.5 705.5 Q217 720 255 720 Q275 720 293.5 717 Q312 714 326 710 Q342 706 355 700 L335 580 Q328 583 319 587 Q311 590 301 592.5 Q291 595 280 595 Q250 595 232.5 577 Q215 559 215 525 L215 480 L315 480 L315 355 L215 355 L215 0 L75 0 L75 355 L20 355 L20 480 Z " />
<glyph glyph-name="g" unicode="g" horiz-adv-x="585" d="M30 250 Q30 302 49 348 Q68 394 99.5 427.5 Q131 461 171.5 480.5 Q212 500 255 500 Q290 500 315 489 Q340 478 356 465 Q374 449 385 430 L395 430 L395 480 L535 480 L535 14 Q535 -33 515.5 -75 Q496 -117 463 -149.5 Q430 -182 385.5 -201 Q341 -220 290 -220 Q239 -220 199.5 -207 Q160 -194 130.5 -172 Q101 -150 81 -121 Q61 -92 50 -60 L190 -40 Q201 -59 225 -77 Q249 -95 290 -95 Q335 -95 365 -64.5 Q395 -34 395 15 L395 70 L385 70 Q374 50 356 35 Q340 21 315 10.5 Q290 0 255 0 Q212 0 171.5 19.5 Q131 39 99.5 72.5 Q68 106 49 151.5 Q30 197 30 250 Z M395 290 Q383 314 366 332 Q352 348 331.5 361.5 Q311 375 285 375 Q236 375 203 341 Q170 307 170 250 Q170 193 203 159 Q236 125 285 125 Q311 125 331.5 138 Q352 151 366 167 Q383 185 395 210 L395 290 Z " />
<glyph glyph-name="h" unicode="h" horiz-adv-x="570" d="M525 0 L385 0 L385 275 Q385 320 359.5 347.5 Q334 375 300 375 Q275 375 256 361.5 Q237 348 223 332 Q207 314 195 290 L195 0 L55 0 L55 700 L195 700 L195 430 L205 430 Q216 449 234 465 Q249 478 272.5 489 Q296 500 330 500 Q369 500 404.5 484 Q440 468 467 438.5 Q494 409 509.5 367.5 Q525 326 525 275 L525 0 Z " />
<glyph glyph-name="i" unicode="i" horiz-adv-x="250" d="M195 0 L55 0 L55 480 L195 480 L195 0 Z M45 650 Q45 684 68 707 Q91 730 125 730 Q159 730 182 707 Q205 684 205 650 Q205 616 182 593 Q159 570 125 570 Q91 570 68 593 Q45 616 45 650 Z " />
<glyph glyph-name="j" unicode="j" horiz-adv-x="250" d="M195 -25 Q195 -68 181 -104 Q167 -140 142.5 -165.5 Q118 -191 85 -205.5 Q52 -220 15 -220 Q-6 -220 -24 -217 Q-42 -214 -56 -210 Q-72 -206 -85 -200 L-65 -80 Q-58 -84 -49 -88 Q-32 -95 -10 -95 Q20 -95 37.5 -77 Q55 -59 55 -25 L55 480 L195 480 L195 -25 Z M45 650 Q45 684 68 707 Q91 730 125 730 Q159 730 182 707 Q205 684 205 650 Q205 616 182 593 Q159 570 125 570 Q91 570 68 593 Q45 616 45 650 Z " />
<glyph glyph-name="k" unicode="k" horiz-adv-x="540" d="M195 0 L55 0 L55 700 L195 700 L195 310 L355 480 L525 480 L355 300 L540 0 L385 0 L260 200 L195 130 L195 0 Z " />
<glyph glyph-name="l" unicode="l" horiz-adv-x="270" d="M75 575 L10 575 L10 700 L215 700 L215 0 L75 0 L75 575 Z " />
<glyph glyph-name="m" unicode="m" horiz-adv-x="795" d="M470 0 L330 0 L330 295 Q330 333 312.5 354 Q295 375 265 375 Q248 375 234.5 363 Q221 351 211 337 Q200 320 190 300 L190 0 L50 0 L50 480 L190 480 L190 430 L200 430 Q211 449 227 465 Q241 478 260.5 489 Q280 500 308 500 Q339 500 362 489 Q385 478 400 465 Q418 449 430 430 L440 430 Q452 449 472 465 Q489 478 515.5 489 Q542 500 580 500 Q614 500 644.5 485.5 Q675 471 698.5 444.5 Q722 418 736 380 Q750 342 750 295 L750 0 L610 0 L610 295 Q610 329 590 352 Q570 375 540 375 Q510 375 490 352 Q470 329 470 295 L470 0 Z " />
<glyph glyph-name="n" unicode="n" horiz-adv-x="565" d="M520 0 L380 0 L380 275 Q380 320 354.5 347.5 Q329 375 295 375 Q270 375 251 361.5 Q232 348 218 332 Q202 314 190 290 L190 0 L50 0 L50 480 L190 480 L190 430 L200 430 Q211 449 229 465 Q244 478 267.5 489 Q291 500 325 500 Q364 500 399.5 484 Q435 468 462 438.5 Q489 409 504.5 367.5 Q520 326 520 275 L520 0 Z " />
<glyph glyph-name="o" unicode="o" horiz-adv-x="590" d="M295 105 Q319 105 342 115.5 Q365 126 382 144.5 Q399 163 409.5 187.5 Q420 212 420 240 Q420 268 409.5 292.5 Q399 317 382 335.5 Q365 354 342 364.5 Q319 375 295 375 Q271 375 248 364.5 Q225 354 208 335.5 Q191 317 180.5 292.5 Q170 268 170 240 Q170 212 180.5 187.5 Q191 163 208 144.5 Q225 126 248 115.5 Q271 105 295 105 Z M295 -20 Q241 -20 192.5 1 Q144 22 108 57.5 Q72 93 51 140 Q30 187 30 240 Q30 292 51 339.5 Q72 387 108 422.5 Q144 458 192.5 479 Q241 500 295 500 Q349 500 397.5 479 Q446 458 482 422.5 Q518 387 539 339.5 Q560 292 560 240 Q560 187 539 140 Q518 93 482 57.5 Q446 22 397.5 1 Q349 -20 295 -20 Z " />
<glyph glyph-name="p" unicode="p" horiz-adv-x="585" d="M555 240 Q555 184 536 136 Q517 88 485.5 53.5 Q454 19 413.5 -0.5 Q373 -20 330 -20 Q294 -20 269.5 -9.5 Q245 1 229 15 Q211 30 200 50 L190 50 L190 -200 L50 -200 L50 480 L190 480 L190 430 L200 430 Q211 449 229 465 Q245 478 269.5 489 Q294 500 330 500 Q373 500 413.5 480.5 Q454 461 485.5 426.5 Q517 392 536 344 Q555 296 555 240 Z M190 190 Q202 165 219 147 Q233 131 253.5 118 Q274 105 300 105 Q349 105 382 140.5 Q415 176 415 240 Q415 304 382 339.5 Q349 375 300 375 Q274 375 253.5 361.5 Q233 348 219 332 Q202 314 190 290 L190 190 Z " />
<glyph glyph-name="q" unicode="q" horiz-adv-x="585" d="M30 240 Q30 296 49 344 Q68 392 99.5 426.5 Q131 461 171.5 480.5 Q212 500 255 500 Q290 500 315 489 Q340 478 356 465 Q374 449 385 430 L395 430 L395 480 L535 480 L535 -200 L395 -200 L395 50 L385 50 Q374 30 356 15 Q340 1 315 -9.5 Q290 -20 255 -20 Q212 -20 171.5 -0.5 Q131 19 99.5 53.5 Q68 88 49 136 Q30 184 30 240 Z M395 290 Q383 314 366 332 Q352 348 331.5 361.5 Q311 375 285 375 Q236 375 203 339.5 Q170 304 170 240 Q170 176 203 140.5 Q236 105 285 105 Q311 105 331.5 118 Q352 131 366 147 Q383 165 395 190 L395 290 Z " />
<glyph glyph-name="r" unicode="r" horiz-adv-x="345" d="M335 355 L290 355 Q260 355 240.5 343 Q221 331 210 317 Q197 300 190 280 L190 0 L50 0 L50 480 L190 480 L190 430 L200 430 Q211 447 229 460 Q244 471 267.5 480.5 Q291 490 325 490 L335 490 L335 355 Z " />
<glyph glyph-name="s" unicode="s" horiz-adv-x="495" d="M40 355 Q40 381 54 407 Q68 433 95 453.5 Q122 474 162 487 Q202 500 255 500 Q300 500 336.5 487 Q373 474 400.5 453.5 Q428 433 447 407 Q466 381 475 355 L345 335 Q337 350 315 367.5 Q293 385 255 385 Q225 385 207.5 370 Q190 355 190 340 Q190 324 211 314.5 Q232 305 264 296.5 Q296 288 332.5 277.5 Q369 267 401 248.5 Q433 230 454 200.5 Q475 171 475 125 Q475 99 461 73 Q447 47 419 26.5 Q391 6 348.5 -7 Q306 -20 250 -20 Q199 -20 159.5 -7 Q120 6 90.5 27.5 Q61 49 41 77 Q21 105 10 135 L150 155 Q161 132 184.5 113.5 Q208 95 250 95 Q288 95 306.5 110 Q325 125 325 140 Q325 156 304 165.5 Q283 175 251 183.5 Q219 192 182.5 202.5 Q146 213 114 231.5 Q82 250 61 279.5 Q40 309 40 355 Z " />
<glyph glyph-name="t" unicode="t" horiz-adv-x="375" d="M20 480 L75 480 L75 600 L215 600 L215 480 L315 480 L315 355 L215 355 L215 175 Q215 141 232.5 123 Q250 105 280 105 Q291 105 301 107 Q311 109 319 112 Q328 116 335 120 L355 0 Q342 -6 326 -10 Q312 -14 293.5 -17 Q275 -20 255 -20 Q217 -20 184.5 -5.5 Q152 9 127.5 34.5 Q103 60 89 96 Q75 132 75 175 L75 355 L20 355 L20 480 Z " />
<glyph glyph-name="u" unicode="u" horiz-adv-x="570" d="M50 480 L190 480 L190 205 Q190 160 215.5 132.5 Q241 105 275 105 Q299 105 318.5 118 Q338 131 352 147 Q368 165 380 190 L380 480 L520 480 L520 0 L380 0 L380 50 L370 50 Q359 30 341 15 Q326 1 302.5 -9.5 Q279 -20 245 -20 Q206 -20 170.5 -4 Q135 12 108 41.5 Q81 71 65.5 112.5 Q50 154 50 205 L50 480 Z " />
<glyph glyph-name="v" unicode="v" horiz-adv-x="535" d="M20 480 L160 480 L235 125 L300 125 L376 480 L515 480 L415 0 L120 0 L20 480 Z " />
<glyph glyph-name="w" unicode="w" horiz-adv-x="760" d="M375 310 L320 0 L110 0 L20 480 L160 480 L215 150 L230 150 L290 480 L470 480 L530 150 L545 150 L600 480 L740 480 L650 0 L440 0 L385 310 L375 310 Z " />
<glyph glyph-name="x" unicode="x" horiz-adv-x="500" d="M255 160 L245 160 L155 0 L0 0 L150 250 L10 480 L160 480 L245 340 L255 340 L340 480 L490 480 L350 250 L500 0 L345 0 L255 160 Z " />
<glyph glyph-name="y" unicode="y" horiz-adv-x="540" d="M520 480 L420 0 Q395 -120 343 -175 Q291 -230 220 -230 Q199 -230 181 -227 Q163 -224 149 -220 Q133 -216 120 -210 L140 -90 Q147 -94 156 -98 Q173 -105 195 -105 Q225 -105 247 -81 Q269 -57 280 0 L125 0 L20 480 L160 480 L236 125 L305 125 L380 480 L520 480 Z " />
<glyph glyph-name="z" unicode="z" horiz-adv-x="485" d="M450 355 L220 135 L220 125 L460 125 L460 0 L25 0 L25 125 L255 345 L255 355 L35 355 L35 480 L450 480 L450 355 Z " />
<glyph glyph-name="afii10100" unicode="&#x453;" horiz-adv-x="430" d="M350 600 L185 540 L150 620 L305 700 L350 600 Z M50 480 L430 480 L430 355 L190 355 L190 0 L50 0 L50 480 Z " />
<glyph glyph-name="perthousand" unicode="&#x2030;" horiz-adv-x="1095" d="M245 0 L95 0 L510 700 L660 700 L245 0 Z M180 480 Q199 480 214.5 498 Q230 516 230 550 Q230 584 214.5 602 Q199 620 180 620 Q161 620 145.5 602 Q130 584 130 550 Q130 516 145.5 498 Q161 480 180 480 Z M180 380 Q148 380 119 393 Q90 406 68 429 Q46 452 33 483 Q20 514 20 550 Q20 586 33 617 Q46 648 68 671 Q90 694 119 707 Q148 720 180 720 Q212 720 241 707 Q270 694 292 671 Q314 648 327 617 Q340 586 340 550 Q340 514 327 483 Q314 452 292 429 Q270 406 241 393 Q212 380 180 380 Z M570 80 Q589 80 604.5 98 Q620 116 620 150 Q620 184 604.5 202 Q589 220 570 220 Q551 220 535.5 202 Q520 184 520 150 Q520 116 535.5 98 Q551 80 570 80 Z M570 -20 Q538 -20 509 -7 Q480 6 458 29 Q436 52 423 83 Q410 114 410 150 Q410 186 423 217 Q436 248 458 271 Q480 294 509 307 Q538 320 570 320 Q602 320 631 307 Q660 294 682 271 Q704 248 717 217 Q730 186 730 150 Q730 114 717 83 Q704 52 682 29 Q660 6 631 -7 Q602 -20 570 -20 Z M915 80 Q934 80 949.5 98 Q965 116 965 150 Q965 184 949.5 202 Q934 220 915 220 Q896 220 880.5 202 Q865 184 865 150 Q865 116 880.5 98 Q896 80 915 80 Z M915 -20 Q883 -20 854 -7 Q825 6 803 29 Q781 52 768 83 Q755 114 755 150 Q755 186 768 217 Q781 248 803 271 Q825 294 854 307 Q883 320 915 320 Q947 320 976 307 Q1005 294 1027 271 Q1049 248 1062 217 Q1075 186 1075 150 Q1075 114 1062 83 Q1049 52 1027 29 Q1005 6 976 -7 Q947 -20 915 -20 Z " />
<glyph glyph-name="afii10099" unicode="&#x452;" horiz-adv-x="575" d="M535 30 Q535 -13 521 -49 Q507 -85 482.5 -110.5 Q458 -136 425 -150.5 Q392 -165 355 -165 Q334 -165 316 -162 Q298 -159 284 -155 Q268 -151 255 -145 L275 -25 Q282 -29 291 -33 Q308 -40 330 -40 Q360 -40 377.5 -22 Q395 -4 395 30 L395 210 Q395 255 369.5 282.5 Q344 310 310 310 Q285 310 266 296.5 Q247 283 233 267 Q217 249 205 225 L205 0 L65 0 L65 480 L10 480 L10 605 L65 605 L65 700 L205 700 L205 605 L308 605 L308 480 L205 480 L205 365 L215 365 Q226 384 244 400 Q259 413 282.5 424 Q306 435 340 435 Q379 435 414.5 419 Q450 403 477 373.5 Q504 344 519.5 302.5 Q535 261 535 210 L535 30 Z " />
<glyph glyph-name="trademark" unicode="&#x2122;" horiz-adv-x="765" d="M460 540 L450 540 L450 380 L335 380 L335 700 L460 700 L535 600 L610 700 L735 700 L735 380 L620 380 L620 540 L610 540 L535 440 L460 540 Z M305 595 L215 595 L215 380 L100 380 L100 595 L10 595 L10 700 L305 700 L305 595 Z " />
<glyph glyph-name="afii10106" unicode="&#x459;" horiz-adv-x="780" d="M320 0 L320 355 L215 355 L140 0 L0 0 L105 480 L460 480 L460 350 L545 350 Q596 350 635.5 336 Q675 322 703 298 Q731 274 745.5 242.5 Q760 211 760 175 Q760 139 745.5 107.5 Q731 76 703.5 52 Q676 28 636.5 14 Q597 0 547 0 L320 0 Z M545 110 Q575 110 595 129.5 Q615 149 615 175 Q615 201 595 220.5 Q575 240 545 240 L460 240 L460 110 L545 110 Z " />
<glyph glyph-name="afii10107" unicode="&#x45a;" horiz-adv-x="800" d="M345 0 L345 205 L190 205 L190 0 L50 0 L50 480 L190 480 L190 330 L345 330 L345 480 L485 480 L485 330 L580 330 Q627 330 664 317 Q701 304 727 281.5 Q753 259 766.5 229 Q780 199 780 165 Q780 131 766.5 101 Q753 71 727 48.5 Q701 26 664 13 Q627 0 580 0 L345 0 Z M580 110 Q606 110 623 126 Q640 142 640 165 Q640 188 623 204 Q606 220 580 220 L485 220 L485 110 L580 110 Z " />
<glyph glyph-name="afii10109" unicode="&#x45c;" horiz-adv-x="535" d="M385 600 L220 540 L185 620 L340 700 L385 600 Z M400 240 Q417 235 430 226 Q441 218 450.5 206 Q460 194 460 175 L460 150 Q460 135 470 125 Q480 115 495 115 L515 115 L515 -10 L485 -10 Q399 -10 362 21 Q325 52 325 105 L325 140 Q325 180 285 180 L190 180 L190 0 L50 0 L50 480 L190 480 L190 305 L275 305 Q315 305 315 345 L315 375 Q315 427 352 458.5 Q389 490 475 490 L505 490 L505 365 L485 365 Q470 365 460 355 Q450 345 450 330 L450 310 Q450 291 442 279.5 Q434 268 425 261 Q414 253 400 250 L400 240 Z " />
<glyph glyph-name="afii10108" unicode="&#x45b;" horiz-adv-x="580" d="M535 0 L395 0 L395 210 Q395 255 369.5 282.5 Q344 310 310 310 Q285 310 266 296.5 Q247 283 233 267 Q217 249 205 225 L205 0 L65 0 L65 480 L10 480 L10 605 L65 605 L65 700 L205 700 L205 605 L308 605 L308 480 L205 480 L205 365 L215 365 Q226 384 244 400 Q259 413 282.5 424 Q306 435 340 435 Q379 435 414.5 419 Q450 403 477 373.5 Q504 344 519.5 302.5 Q535 261 535 210 L535 0 Z " />
<glyph glyph-name="afii10193" unicode="&#x45f;" horiz-adv-x="555" d="M505 0 L345 0 L345 -110 L205 -110 L205 0 L50 0 L50 480 L190 480 L190 125 L365 125 L365 480 L505 480 L505 0 Z " />
<glyph glyph-name="afii10110" unicode="&#x45e;" horiz-adv-x="540" d="M520 480 L420 0 Q395 -120 343 -175 Q291 -230 220 -230 Q199 -230 181 -227 Q163 -224 149 -220 Q133 -216 120 -210 L140 -90 Q147 -94 156 -98 Q173 -105 195 -105 Q225 -105 247 -81 Q269 -57 280 0 L125 0 L20 480 L160 480 L236 125 L305 125 L380 480 L520 480 Z M267 555 Q237 555 211.5 565.5 Q186 576 167 595 Q148 614 137.5 639.5 Q127 665 127 695 L217 695 Q217 672 230.5 658.5 Q244 645 267 645 Q290 645 303.5 658.5 Q317 672 317 695 L407 695 Q407 665 396.5 639.5 Q386 614 367 595 Q348 576 322.5 565.5 Q297 555 267 555 Z " />
<glyph glyph-name="copyright" unicode="&#xa9;" horiz-adv-x="900" d="M460 115 Q423 115 390.5 129 Q358 143 333.5 167 Q309 191 294.5 222.5 Q280 254 280 290 Q280 326 294 357.5 Q308 389 332.5 413 Q357 437 390 451 Q423 465 460 465 Q492 465 518 455.5 Q544 446 564.5 429.5 Q585 413 598.5 391 Q612 369 620 345 L515 330 Q511 341 497 353 Q483 365 460 365 Q434 365 414.5 344.5 Q395 324 395 290 Q395 256 414.5 235.5 Q434 215 460 215 Q491 215 506 227.5 Q521 240 525 255 L630 240 Q622 214 607.5 191.5 Q593 169 572 152 Q551 135 523 125 Q495 115 460 115 Z M30 290 Q30 378 63.5 455.5 Q97 533 154 590.5 Q211 648 287.5 681.5 Q364 715 450 715 Q536 715 612.5 681.5 Q689 648 746 590 Q803 532 836.5 455 Q870 378 870 290 Q870 202 836.5 124.5 Q803 47 746 -10.5 Q689 -68 612.5 -101.5 Q536 -135 450 -135 Q364 -135 287.5 -101.5 Q211 -68 154 -10.5 Q97 47 63.5 124.5 Q30 202 30 290 Z M150 290 Q150 228 174.5 172.5 Q199 117 240 75.5 Q281 34 335.5 9.5 Q390 -15 450 -15 Q510 -15 564.5 9.5 Q619 34 660 75.5 Q701 117 725.5 172.5 Q750 228 750 290 Q750 352 725.5 407.5 Q701 463 660 504.5 Q619 546 564.5 570.5 Q510 595 450 595 Q390 595 335.5 570.5 Q281 546 240 504.5 Q199 463 174.5 407.5 Q150 352 150 290 Z " />
<glyph glyph-name="registered" unicode="&#xae;" horiz-adv-x="900" d="M490 460 Q522 460 548.5 449.5 Q575 439 594.5 421 Q614 403 624.5 379.5 Q635 356 635 330 Q635 303 626.5 284.5 Q618 266 607 255 Q595 242 580 235 L650 120 L530 120 L480 200 L410 200 L410 120 L305 120 L305 460 L490 460 Z M410 365 L410 295 L490 295 Q509 295 519.5 305 Q530 315 530 330 Q530 345 519.5 355 Q509 365 490 365 L410 365 Z M30 290 Q30 378 63.5 455.5 Q97 533 154 590.5 Q211 648 287.5 681.5 Q364 715 450 715 Q536 715 612.5 681.5 Q689 648 746 590 Q803 532 836.5 455 Q870 378 870 290 Q870 202 836.5 124.5 Q803 47 746 -10.5 Q689 -68 612.5 -101.5 Q536 -135 450 -135 Q364 -135 287.5 -101.5 Q211 -68 154 -10.5 Q97 47 63.5 124.5 Q30 202 30 290 Z M150 290 Q150 228 174.5 172.5 Q199 117 240 75.5 Q281 34 335.5 9.5 Q390 -15 450 -15 Q510 -15 564.5 9.5 Q619 34 660 75.5 Q701 117 725.5 172.5 Q750 228 750 290 Q750 352 725.5 407.5 Q701 463 660 504.5 Q619 546 564.5 570.5 Q510 595 450 595 Q390 595 335.5 570.5 Q281 546 240 504.5 Q199 463 174.5 407.5 Q150 352 150 290 Z " />
<glyph glyph-name="afii10103" unicode="&#x456;" horiz-adv-x="250" d="M195 0 L55 0 L55 480 L195 480 L195 0 Z M45 650 Q45 684 68 707 Q91 730 125 730 Q159 730 182 707 Q205 684 205 650 Q205 616 182 593 Q159 570 125 570 Q91 570 68 593 Q45 616 45 650 Z " />
<glyph glyph-name="afii10098" unicode="&#x491;" horiz-adv-x="430" d="M190 0 L50 0 L50 480 L290 480 L290 560 L430 560 L430 355 L190 355 L190 0 Z " />
<glyph glyph-name="mu" unicode="&#xb5;" horiz-adv-x="570" d="M50 480 L190 480 L190 200 Q190 181 198 164 Q206 147 219 134 Q232 121 249 113 Q266 105 285 105 Q304 105 321 113 Q338 121 351 134 Q364 147 372 164 Q380 181 380 200 L380 480 L520 480 L520 0 L380 0 L380 40 L370 40 Q362 25 350 14 Q339 4 323.5 -3.5 Q308 -11 285 -11 Q262 -11 246.5 -3.5 Q231 4 220 14 Q208 25 200 40 L190 40 L190 -200 L50 -200 L50 480 Z " />
<glyph glyph-name="afii10071" unicode="&#x451;" horiz-adv-x="570" d="M285 500 Q339 500 386.5 480 Q434 460 469.5 424.5 Q505 389 525 341.5 Q545 294 545 240 L495 190 L180 190 Q191 152 217 128.5 Q243 105 285 105 Q309 105 326.5 109.5 Q344 114 357 121.5 Q370 129 378.5 139 Q387 149 395 160 L535 140 Q524 110 503 81 Q482 52 451 29.5 Q420 7 378.5 -6.5 Q337 -20 285 -20 Q234 -20 188 1 Q142 22 107 57.5 Q72 93 51 140 Q30 187 30 240 Q30 292 51 339.5 Q72 387 107 422.5 Q142 458 188 479 Q234 500 285 500 Z M285 375 Q243 375 217 351.5 Q191 328 180 290 L390 290 Q379 328 353 351.5 Q327 375 285 375 Z M108 631 Q108 661 128 681 Q148 701 178 701 Q208 701 228 681 Q248 661 248 631 Q248 601 228 581 Q208 561 178 561 Q148 561 128 581 Q108 601 108 631 Z M308 631 Q308 661 328 681 Q348 701 378 701 Q408 701 428 681 Q448 661 448 631 Q448 601 428 581 Q408 561 378 561 Q348 561 328 581 Q308 601 308 631 Z " />
<glyph glyph-name="afii10101" unicode="&#x454;" horiz-adv-x="550" d="M325 186 L179 186 Q191 151 217 128 Q243 105 285 105 Q327 105 353 127.5 Q379 150 390 180 L530 160 Q522 124 502.5 91.5 Q483 59 452.5 34.5 Q422 10 379.5 -5 Q337 -20 285 -20 Q234 -20 188 1 Q142 22 107 57.5 Q72 93 51 140 Q30 187 30 240 Q30 292 51 339.5 Q72 387 107 422.5 Q142 458 188 479 Q234 500 285 500 Q334 500 374 485.5 Q414 471 444 447.5 Q474 424 493 394.5 Q512 365 520 335 L380 315 Q369 338 346 356.5 Q323 375 285 375 Q243 375 217 352 Q191 329 180 296 L325 296 L325 186 Z " />
<glyph glyph-name="afii10105" unicode="&#x458;" horiz-adv-x="250" d="M195 -25 Q195 -68 181 -104 Q167 -140 142.5 -165.5 Q118 -191 85 -205.5 Q52 -220 15 -220 Q-6 -220 -24 -217 Q-42 -214 -56 -210 Q-72 -206 -85 -200 L-65 -80 Q-58 -84 -49 -88 Q-32 -95 -10 -95 Q20 -95 37.5 -77 Q55 -59 55 -25 L55 480 L195 480 L195 -25 Z M45 650 Q45 684 68 707 Q91 730 125 730 Q159 730 182 707 Q205 684 205 650 Q205 616 182 593 Q159 570 125 570 Q91 570 68 593 Q45 616 45 650 Z " />
<glyph glyph-name="afii10102" unicode="&#x455;" horiz-adv-x="495" d="M40 355 Q40 381 54 407 Q68 433 95 453.5 Q122 474 162 487 Q202 500 255 500 Q300 500 336.5 487 Q373 474 400.5 453.5 Q428 433 447 407 Q466 381 475 355 L345 335 Q337 350 315 367.5 Q293 385 255 385 Q225 385 207.5 370 Q190 355 190 340 Q190 324 211 314.5 Q232 305 264 296.5 Q296 288 332.5 277.5 Q369 267 401 248.5 Q433 230 454 200.5 Q475 171 475 125 Q475 99 461 73 Q447 47 419 26.5 Q391 6 348.5 -7 Q306 -20 250 -20 Q199 -20 159.5 -7 Q120 6 90.5 27.5 Q61 49 41 77 Q21 105 10 135 L150 155 Q161 132 184.5 113.5 Q208 95 250 95 Q288 95 306.5 110 Q325 125 325 140 Q325 156 304 165.5 Q283 175 251 183.5 Q219 192 182.5 202.5 Q146 213 114 231.5 Q82 250 61 279.5 Q40 309 40 355 Z " />
<glyph glyph-name="afii10104" unicode="&#x457;" horiz-adv-x="260" d="M-39 634 Q-39 664 -19 684 Q1 704 31 704 Q61 704 81 684 Q101 664 101 634 Q101 604 81 584 Q61 564 31 564 Q1 564 -19 584 Q-39 604 -39 634 Z M161 634 Q161 664 181 684 Q201 704 231 704 Q261 704 281 684 Q301 664 301 634 Q301 604 281 584 Q261 564 231 564 Q201 564 181 584 Q161 604 161 634 Z M200 0 L60 0 L60 480 L200 480 L200 0 Z " />
<glyph glyph-name="afii10065" unicode="&#x430;" horiz-adv-x="585" d="M30 240 Q30 296 49 344 Q68 392 99.5 426.5 Q131 461 171.5 480.5 Q212 500 255 500 Q290 500 315 489 Q340 478 356 465 Q374 449 385 430 L395 430 L395 480 L535 480 L535 0 L395 0 L395 50 L385 50 Q374 30 356 15 Q340 1 315 -9.5 Q290 -20 255 -20 Q212 -20 171.5 -0.5 Q131 19 99.5 53.5 Q68 88 49 136 Q30 184 30 240 Z M395 290 Q383 314 366 332 Q352 348 331.5 361.5 Q311 375 285 375 Q236 375 203 339.5 Q170 304 170 240 Q170 176 203 140.5 Q236 105 285 105 Q311 105 331.5 118 Q352 131 366 147 Q383 165 395 190 L395 290 Z " />
<glyph glyph-name="afii10066" unicode="&#x431;" horiz-adv-x="575" d="M295 105 Q317 105 337 113.5 Q357 122 372 137 Q387 152 396 172 Q405 192 405 215 Q405 238 396 258 Q387 278 372 293 Q357 308 337 316.5 Q317 325 295 325 Q272 325 252 316 Q232 307 217 292 Q202 277 193.5 257 Q185 237 185 215 Q185 192 193.5 172 Q202 152 217 137 Q232 122 252 113.5 Q272 105 295 105 Z M295 -20 Q242 -20 196.5 -1 Q151 18 117 50.5 Q83 83 64 125.5 Q45 168 45 215 L45 440 Q45 527 92.5 578.5 Q140 630 215 645 L340 670 Q370 676 370 705 L370 720 L495 720 L495 660 Q495 575 370 550 L245 525 Q219 520 202 499 Q185 478 185 440 L185 400 Q198 414 216 425 Q232 434 255 442 Q278 450 310 450 Q357 450 399.5 431 Q442 412 474.5 379.5 Q507 347 526 304.5 Q545 262 545 215 Q545 168 525.5 125.5 Q506 83 472.5 50.5 Q439 18 393 -1 Q347 -20 295 -20 Z " />
<glyph glyph-name="afii10067" unicode="&#x432;" horiz-adv-x="525" d="M280 480 Q323 480 356.5 469 Q390 458 413 440 Q436 422 448 399.5 Q460 377 460 355 Q460 330 449.5 314 Q439 298 427 288 Q413 277 395 270 L395 260 Q425 253 450 237 Q470 223 487.5 198.5 Q505 174 505 135 Q505 111 492 86.5 Q479 62 454.5 43 Q430 24 393.5 12 Q357 0 310 0 L50 0 L50 480 L280 480 Z M315 110 Q334 110 347 123 Q360 136 360 155 Q360 174 347 187 Q334 200 315 200 L190 200 L190 110 L315 110 Z M190 370 L190 300 L280 300 Q295 300 305 310 Q315 320 315 335 Q315 350 305 360 Q295 370 280 370 L190 370 Z " />
<glyph glyph-name="afii10068" unicode="&#x433;" horiz-adv-x="430" d="M50 480 L430 480 L430 355 L190 355 L190 0 L50 0 L50 480 Z " />
<glyph glyph-name="afii10069" unicode="&#x434;" horiz-adv-x="585" d="M575 125 L575 -100 L435 -100 L435 0 L150 0 L150 -100 L10 -100 L10 125 L70 125 L145 480 L440 480 L515 125 L575 125 Z M375 125 L325 355 L260 355 L210 125 L375 125 Z " />
<glyph glyph-name="afii10070" unicode="&#x435;" horiz-adv-x="570" d="M285 500 Q339 500 386.5 480 Q434 460 469.5 424.5 Q505 389 525 341.5 Q545 294 545 240 L495 190 L180 190 Q191 152 217 128.5 Q243 105 285 105 Q309 105 326.5 109.5 Q344 114 357 121.5 Q370 129 378.5 139 Q387 149 395 160 L535 140 Q524 110 503 81 Q482 52 451 29.5 Q420 7 378.5 -6.5 Q337 -20 285 -20 Q234 -20 188 1 Q142 22 107 57.5 Q72 93 51 140 Q30 187 30 240 Q30 292 51 339.5 Q72 387 107 422.5 Q142 458 188 479 Q234 500 285 500 Z M285 375 Q243 375 217 351.5 Q191 328 180 290 L390 290 Q379 328 353 351.5 Q327 375 285 375 Z " />
<glyph glyph-name="afii10072" unicode="&#x436;" horiz-adv-x="780" d="M645 240 Q662 235 675 226 Q686 218 695.5 206 Q705 194 705 175 L705 150 Q705 135 715 125 Q725 115 740 115 L760 115 L760 -10 L730 -10 Q644 -10 607 21 Q570 52 570 105 L570 140 Q570 180 530 180 L460 180 L460 0 L320 0 L320 180 L250 180 Q210 180 210 140 L210 105 Q210 52 173 21 Q136 -10 50 -10 L20 -10 L20 115 L40 115 Q55 115 65 125 Q75 135 75 150 L75 175 Q75 194 84.5 206 Q94 218 105 226 Q118 235 135 240 L135 250 Q121 253 110 261 Q100 268 92.5 279.5 Q85 291 85 310 L85 330 Q85 345 75 355 Q65 365 50 365 L30 365 L30 490 L60 490 Q146 490 183 458.5 Q220 427 220 375 L220 345 Q220 305 260 305 L320 305 L320 480 L460 480 L460 305 L520 305 Q560 305 560 345 L560 375 Q560 427 597 458.5 Q634 490 720 490 L750 490 L750 365 L730 365 Q715 365 705 355 Q695 345 695 330 L695 310 Q695 291 687 279.5 Q679 268 670 261 Q659 253 645 250 L645 240 Z " />
<glyph glyph-name="afii10073" unicode="&#x437;" horiz-adv-x="505" d="M250 95 Q288 95 306.5 110 Q325 125 325 140 Q325 155 306.5 170 Q288 185 250 185 L195 185 L195 295 L245 295 Q275 295 292.5 310 Q310 325 310 340 Q310 355 292.5 370 Q275 385 245 385 Q207 385 185 367.5 Q163 350 155 335 L25 355 Q34 381 53 407 Q72 433 99.5 453.5 Q127 474 163.5 487 Q200 500 245 500 Q297 500 337.5 487 Q378 474 405 453.5 Q432 433 446 407 Q460 381 460 355 Q460 325 446.5 305.5 Q433 286 417 275 Q399 262 375 255 L375 245 Q403 237 425 222 Q444 208 459.5 185.5 Q475 163 475 125 Q475 99 461 73 Q447 47 419 26.5 Q391 6 348.5 -7 Q306 -20 250 -20 Q199 -20 159.5 -7 Q120 6 90.5 27.5 Q61 49 41 77 Q21 105 10 135 L150 155 Q161 132 184.5 113.5 Q208 95 250 95 Z " />
<glyph glyph-name="afii10074" unicode="&#x438;" horiz-adv-x="565" d="M50 480 L190 480 L190 225 L200 225 L375 480 L515 480 L515 0 L375 0 L375 255 L365 255 L190 0 L50 0 L50 480 Z " />
<glyph glyph-name="afii10075" unicode="&#x439;" horiz-adv-x="565" d="M284 555 Q254 555 228.5 565.5 Q203 576 184 595 Q165 614 154.5 639.5 Q144 665 144 695 L234 695 Q234 672 247.5 658.5 Q261 645 284 645 Q307 645 320.5 658.5 Q334 672 334 695 L424 695 Q424 665 413.5 639.5 Q403 614 384 595 Q365 576 339.5 565.5 Q314 555 284 555 Z M50 480 L190 480 L190 225 L200 225 L375 480 L515 480 L515 0 L375 0 L375 255 L365 255 L190 0 L50 0 L50 480 Z " />
<glyph glyph-name="afii10076" unicode="&#x43a;" horiz-adv-x="535" d="M400 240 Q417 235 430 226 Q441 218 450.5 206 Q460 194 460 175 L460 150 Q460 135 470 125 Q480 115 495 115 L515 115 L515 -10 L485 -10 Q399 -10 362 21 Q325 52 325 105 L325 140 Q325 180 285 180 L190 180 L190 0 L50 0 L50 480 L190 480 L190 305 L275 305 Q315 305 315 345 L315 375 Q315 427 352 458.5 Q389 490 475 490 L505 490 L505 365 L485 365 Q470 365 460 355 Q450 345 450 330 L450 310 Q450 291 442 279.5 Q434 268 425 261 Q414 253 400 250 L400 240 Z " />
<glyph glyph-name="afii10077" unicode="&#x43b;" horiz-adv-x="535" d="M525 0 L385 0 L310 355 L225 355 L150 0 L10 0 L110 480 L425 480 L525 0 Z " />
<glyph glyph-name="afii10078" unicode="&#x43c;" horiz-adv-x="660" d="M200 300 L190 300 L190 0 L50 0 L50 480 L200 480 L330 320 L460 480 L610 480 L610 0 L470 0 L470 300 L460 300 L330 140 L200 300 Z " />
<glyph glyph-name="afii10079" unicode="&#x43d;" horiz-adv-x="555" d="M50 480 L190 480 L190 295 L365 295 L365 480 L505 480 L505 0 L365 0 L365 170 L190 170 L190 0 L50 0 L50 480 Z " />
<glyph glyph-name="afii10080" unicode="&#x43e;" horiz-adv-x="590" d="M295 105 Q319 105 342 115.5 Q365 126 382 144.5 Q399 163 409.5 187.5 Q420 212 420 240 Q420 268 409.5 292.5 Q399 317 382 335.5 Q365 354 342 364.5 Q319 375 295 375 Q271 375 248 364.5 Q225 354 208 335.5 Q191 317 180.5 292.5 Q170 268 170 240 Q170 212 180.5 187.5 Q191 163 208 144.5 Q225 126 248 115.5 Q271 105 295 105 Z M295 -20 Q241 -20 192.5 1 Q144 22 108 57.5 Q72 93 51 140 Q30 187 30 240 Q30 292 51 339.5 Q72 387 108 422.5 Q144 458 192.5 479 Q241 500 295 500 Q349 500 397.5 479 Q446 458 482 422.5 Q518 387 539 339.5 Q560 292 560 240 Q560 187 539 140 Q518 93 482 57.5 Q446 22 397.5 1 Q349 -20 295 -20 Z " />
<glyph glyph-name="afii10081" unicode="&#x43f;" horiz-adv-x="555" d="M50 480 L505 480 L505 0 L365 0 L365 355 L190 355 L190 0 L50 0 L50 480 Z " />
<glyph glyph-name="afii10082" unicode="&#x440;" horiz-adv-x="585" d="M555 240 Q555 184 536 136 Q517 88 485.5 53.5 Q454 19 413.5 -0.5 Q373 -20 330 -20 Q294 -20 269.5 -9.5 Q245 1 229 15 Q211 30 200 50 L190 50 L190 -200 L50 -200 L50 480 L190 480 L190 430 L200 430 Q211 449 229 465 Q245 478 269.5 489 Q294 500 330 500 Q373 500 413.5 480.5 Q454 461 485.5 426.5 Q517 392 536 344 Q555 296 555 240 Z M190 190 Q202 165 219 147 Q233 131 253.5 118 Q274 105 300 105 Q349 105 382 140.5 Q415 176 415 240 Q415 304 382 339.5 Q349 375 300 375 Q274 375 253.5 361.5 Q233 348 219 332 Q202 314 190 290 L190 190 Z " />
<glyph glyph-name="afii10083" unicode="&#x441;" horiz-adv-x="550" d="M285 -20 Q234 -20 188 1 Q142 22 107 57.5 Q72 93 51 140 Q30 187 30 240 Q30 292 51 339.5 Q72 387 107 422.5 Q142 458 188 479 Q234 500 285 500 Q334 500 374 485.5 Q414 471 444 447.5 Q474 424 493 394.5 Q512 365 520 335 L380 315 Q369 338 346 356.5 Q323 375 285 375 Q262 375 241.5 365 Q221 355 205 337.5 Q189 320 179.5 295 Q170 270 170 240 Q170 210 179.5 185 Q189 160 205 142.5 Q221 125 241.5 115 Q262 105 285 105 Q327 105 353 127.5 Q379 150 390 180 L530 160 Q522 124 502.5 91.5 Q483 59 452.5 34.5 Q422 10 379.5 -5 Q337 -20 285 -20 Z " />
<glyph glyph-name="afii10084" unicode="&#x442;" horiz-adv-x="460" d="M10 480 L450 480 L450 355 L300 355 L300 0 L160 0 L160 355 L10 355 L10 480 Z " />
<glyph glyph-name="afii10085" unicode="&#x443;" horiz-adv-x="540" d="M520 480 L420 0 Q395 -120 343 -175 Q291 -230 220 -230 Q199 -230 181 -227 Q163 -224 149 -220 Q133 -216 120 -210 L140 -90 Q147 -94 156 -98 Q173 -105 195 -105 Q225 -105 247 -81 Q269 -57 280 0 L125 0 L20 480 L160 480 L236 125 L305 125 L380 480 L520 480 Z " />
<glyph glyph-name="afii10086" unicode="&#x444;" horiz-adv-x="670" d="M265 -10 Q218 -6 175.5 15 Q133 36 100.5 70 Q68 104 49 147.5 Q30 191 30 240 Q30 289 49 332.5 Q68 376 100.5 410 Q133 444 175.5 465 Q218 486 265 490 L265 700 L405 700 L405 490 Q452 486 494.5 465 Q537 444 569.5 410 Q602 376 621 332.5 Q640 289 640 240 Q640 191 621 147.5 Q602 104 569.5 70 Q537 36 494.5 15 Q452 -6 405 -10 L405 -200 L265 -200 L265 -10 Z M500 240 Q500 293 471.5 325 Q443 357 405 365 L405 115 Q443 123 471.5 155 Q500 187 500 240 Z M170 240 Q170 187 198.5 155 Q227 123 265 115 L265 365 Q227 357 198.5 325 Q170 293 170 240 Z " />
<glyph glyph-name="afii10087" unicode="&#x445;" horiz-adv-x="500" d="M255 160 L245 160 L155 0 L0 0 L150 250 L10 480 L160 480 L245 340 L255 340 L340 480 L490 480 L350 250 L500 0 L345 0 L255 160 Z " />
<glyph glyph-name="afii10088" unicode="&#x446;" horiz-adv-x="565" d="M50 480 L190 480 L190 125 L345 125 L345 480 L485 480 L485 125 L555 125 L555 -100 L415 -100 L415 0 L50 0 L50 480 Z " />
<glyph glyph-name="afii10089" unicode="&#x447;" horiz-adv-x="525" d="M180 320 Q180 250 255 250 L335 250 L335 480 L475 480 L475 0 L335 0 L335 125 L255 125 Q153 125 96.5 177 Q40 229 40 320 L40 480 L180 480 L180 320 Z " />
<glyph glyph-name="afii10090" unicode="&#x448;" horiz-adv-x="770" d="M455 125 L580 125 L580 480 L720 480 L720 0 L50 0 L50 480 L190 480 L190 125 L315 125 L315 480 L455 480 L455 125 Z " />
<glyph glyph-name="afii10091" unicode="&#x449;" horiz-adv-x="795" d="M455 125 L580 125 L580 480 L720 480 L720 125 L785 125 L785 -100 L645 -100 L645 0 L50 0 L50 480 L190 480 L190 125 L315 125 L315 480 L455 480 L455 125 Z " />
<glyph glyph-name="afii10092" unicode="&#x44a;" horiz-adv-x="555" d="M105 0 L105 355 L0 355 L0 480 L245 480 L245 350 L320 350 Q371 350 410.5 336 Q450 322 478 298 Q506 274 520.5 242.5 Q535 211 535 175 Q535 139 520.5 107.5 Q506 76 478.5 52 Q451 28 411.5 14 Q372 0 322 0 L105 0 Z M320 110 Q350 110 370 129.5 Q390 149 390 175 Q390 201 370 220.5 Q350 240 320 240 L245 240 L245 110 L320 110 Z " />
<glyph glyph-name="afii10093" unicode="&#x44b;" horiz-adv-x="714" d="M525 480 L664 480 L664 0 L525 0 L525 480 Z M265 110 Q295 110 315 129.5 Q335 149 335 175 Q335 201 315 220.5 Q295 240 265 240 L190 240 L190 110 L265 110 Z M50 0 L50 480 L190 480 L190 350 L265 350 Q316 350 355.5 336 Q395 322 423 298 Q451 274 465.5 242.5 Q480 211 480 175 Q480 139 465.5 107.5 Q451 76 423.5 52 Q396 28 356.5 14 Q317 0 267 0 L50 0 Z " />
<glyph glyph-name="afii10094" unicode="&#x44c;" horiz-adv-x="510" d="M275 110 Q305 110 325 129.5 Q345 149 345 175 Q345 201 325 220.5 Q305 240 275 240 L190 240 L190 110 L275 110 Z M50 0 L50 480 L190 480 L190 350 L275 350 Q326 350 365.5 336 Q405 322 433 298 Q461 274 475.5 242.5 Q490 211 490 175 Q490 139 475.5 107.5 Q461 76 433.5 52 Q406 28 366.5 14 Q327 0 277 0 L50 0 Z " />
<glyph glyph-name="afii10095" unicode="&#x44d;" horiz-adv-x="550" d="M225 296 L370 296 Q359 329 333 352 Q307 375 265 375 Q227 375 204 356.5 Q181 338 170 315 L30 335 Q37 365 56.5 394.5 Q76 424 106 447.5 Q136 471 176 485.5 Q216 500 265 500 Q316 500 362 479 Q408 458 443 422.5 Q478 387 499 339.5 Q520 292 520 240 Q520 187 499 140 Q478 93 443 57.5 Q408 22 362 1 Q316 -20 265 -20 Q212 -20 170 -5 Q128 10 97.5 34.5 Q67 59 47 91.5 Q27 124 20 160 L160 180 Q171 150 197 127.5 Q223 105 265 105 Q307 105 333 128 Q359 151 371 186 L225 186 L225 296 Z " />
<glyph glyph-name="afii10096" unicode="&#x44e;" horiz-adv-x="750" d="M480 500 Q529 500 572.5 480.5 Q616 461 649 426.5 Q682 392 701 344 Q720 296 720 240 Q720 184 701 136 Q682 88 649 53.5 Q616 19 572.5 -0.5 Q529 -20 480 -20 Q435 -20 397 -5 Q359 10 329 36 Q299 62 277.5 98 Q256 134 245 175 L190 175 L190 0 L50 0 L50 480 L190 480 L190 300 L245 300 Q256 343 277.5 379.5 Q299 416 329 443 Q359 470 397 485 Q435 500 480 500 Z M480 375 Q461 375 443 366 Q425 357 411 339.5 Q397 322 388.5 297 Q380 272 380 240 Q380 208 388.5 183 Q397 158 411 140.5 Q425 123 443 114 Q461 105 480 105 Q499 105 517 114 Q535 123 549 140.5 Q563 158 571.5 183 Q580 208 580 240 Q580 272 571.5 297 Q563 322 549 339.5 Q535 357 517 366 Q499 375 480 375 Z " />
<glyph glyph-name="afii10097" unicode="&#x44f;" horiz-adv-x="530" d="M480 480 L480 0 L340 0 L340 120 L245 120 L170 0 L20 0 L115 155 Q90 168 72 188 Q56 205 43 232.5 Q30 260 30 300 Q30 337 44.5 370 Q59 403 87 427.5 Q115 452 154.5 466 Q194 480 245 480 L480 480 Z M245 365 Q215 365 195 345.5 Q175 326 175 300 Q175 274 193.5 254.5 Q212 235 245 235 L340 235 L340 365 L245 365 Z " />
<glyph glyph-name="agrave" unicode="&#xe0;" horiz-adv-x="585" d="M30 240 Q30 296 49 344 Q68 392 99.5 426.5 Q131 461 171.5 480.5 Q212 500 255 500 Q290 500 315 489 Q340 478 356 465 Q374 449 385 430 L395 430 L395 480 L535 480 L535 0 L395 0 L395 50 L385 50 Q374 30 356 15 Q340 1 315 -9.5 Q290 -20 255 -20 Q212 -20 171.5 -0.5 Q131 19 99.5 53.5 Q68 88 49 136 Q30 184 30 240 Z M395 290 Q383 314 366 332 Q352 348 331.5 361.5 Q311 375 285 375 Q236 375 203 339.5 Q170 304 170 240 Q170 176 203 140.5 Q236 105 285 105 Q311 105 331.5 118 Q352 131 366 147 Q383 165 395 190 L395 290 Z M235 730 L390 650 L355 570 L190 630 L235 730 Z " />
<glyph glyph-name="aacute" unicode="&#xe1;" horiz-adv-x="585" d="M30 240 Q30 296 49 344 Q68 392 99.5 426.5 Q131 461 171.5 480.5 Q212 500 255 500 Q290 500 315 489 Q340 478 356 465 Q374 449 385 430 L395 430 L395 480 L535 480 L535 0 L395 0 L395 50 L385 50 Q374 30 356 15 Q340 1 315 -9.5 Q290 -20 255 -20 Q212 -20 171.5 -0.5 Q131 19 99.5 53.5 Q68 88 49 136 Q30 184 30 240 Z M395 290 Q383 314 366 332 Q352 348 331.5 361.5 Q311 375 285 375 Q236 375 203 339.5 Q170 304 170 240 Q170 176 203 140.5 Q236 105 285 105 Q311 105 331.5 118 Q352 131 366 147 Q383 165 395 190 L395 290 Z M400 630 L235 570 L200 650 L355 730 L400 630 Z " />
<glyph glyph-name="abreve" unicode="&#x103;" horiz-adv-x="585" d="M30 240 Q30 296 49 344 Q68 392 99.5 426.5 Q131 461 171.5 480.5 Q212 500 255 500 Q290 500 315 489 Q340 478 356 465 Q374 449 385 430 L395 430 L395 480 L535 480 L535 0 L395 0 L395 50 L385 50 Q374 30 356 15 Q340 1 315 -9.5 Q290 -20 255 -20 Q212 -20 171.5 -0.5 Q131 19 99.5 53.5 Q68 88 49 136 Q30 184 30 240 Z M395 290 Q383 314 366 332 Q352 348 331.5 361.5 Q311 375 285 375 Q236 375 203 339.5 Q170 304 170 240 Q170 176 203 140.5 Q236 105 285 105 Q311 105 331.5 118 Q352 131 366 147 Q383 165 395 190 L395 290 Z M295 575 Q261 575 232.5 586.5 Q204 598 183.5 618 Q163 638 151.5 665.5 Q140 693 140 725 L240 725 Q244 702 258.5 688.5 Q273 675 295 675 Q317 675 331.5 688.5 Q346 702 350 725 L450 725 Q450 693 438.5 665.5 Q427 638 406.5 618 Q386 598 357.5 586.5 Q329 575 295 575 Z " />
<glyph glyph-name="acircumflex" unicode="&#xe2;" horiz-adv-x="585" d="M30 240 Q30 296 49 344 Q68 392 99.5 426.5 Q131 461 171.5 480.5 Q212 500 255 500 Q290 500 315 489 Q340 478 356 465 Q374 449 385 430 L395 430 L395 480 L535 480 L535 0 L395 0 L395 50 L385 50 Q374 30 356 15 Q340 1 315 -9.5 Q290 -20 255 -20 Q212 -20 171.5 -0.5 Q131 19 99.5 53.5 Q68 88 49 136 Q30 184 30 240 Z M395 290 Q383 314 366 332 Q352 348 331.5 361.5 Q311 375 285 375 Q236 375 203 339.5 Q170 304 170 240 Q170 176 203 140.5 Q236 105 285 105 Q311 105 331.5 118 Q352 131 366 147 Q383 165 395 190 L395 290 Z M345 740 L465 570 L355 570 L300 645 L290 645 L235 570 L125 570 L245 740 L345 740 Z " />
<glyph glyph-name="adieresis" unicode="&#xe4;" horiz-adv-x="585" d="M30 240 Q30 296 49 344 Q68 392 99.5 426.5 Q131 461 171.5 480.5 Q212 500 255 500 Q290 500 315 489 Q340 478 356 465 Q374 449 385 430 L395 430 L395 480 L535 480 L535 0 L395 0 L395 50 L385 50 Q374 30 356 15 Q340 1 315 -9.5 Q290 -20 255 -20 Q212 -20 171.5 -0.5 Q131 19 99.5 53.5 Q68 88 49 136 Q30 184 30 240 Z M395 290 Q383 314 366 332 Q352 348 331.5 361.5 Q311 375 285 375 Q236 375 203 339.5 Q170 304 170 240 Q170 176 203 140.5 Q236 105 285 105 Q311 105 331.5 118 Q352 131 366 147 Q383 165 395 190 L395 290 Z M125 645 Q125 675 145 695 Q165 715 195 715 Q225 715 245 695 Q265 675 265 645 Q265 615 245 595 Q225 575 195 575 Q165 575 145 595 Q125 615 125 645 Z M325 645 Q325 675 345 695 Q365 715 395 715 Q425 715 445 695 Q465 675 465 645 Q465 615 445 595 Q425 575 395 575 Q365 575 345 595 Q325 615 325 645 Z " />
<glyph glyph-name="amacron" unicode="&#x101;" horiz-adv-x="585" d="M30 240 Q30 296 49 344 Q68 392 99.5 426.5 Q131 461 171.5 480.5 Q212 500 255 500 Q290 500 315 489 Q340 478 356 465 Q374 449 385 430 L395 430 L395 480 L535 480 L535 0 L395 0 L395 50 L385 50 Q374 30 356 15 Q340 1 315 -9.5 Q290 -20 255 -20 Q212 -20 171.5 -0.5 Q131 19 99.5 53.5 Q68 88 49 136 Q30 184 30 240 Z M395 290 Q383 314 366 332 Q352 348 331.5 361.5 Q311 375 285 375 Q236 375 203 339.5 Q170 304 170 240 Q170 176 203 140.5 Q236 105 285 105 Q311 105 331.5 118 Q352 131 366 147 Q383 165 395 190 L395 290 Z M143 696 L413 696 L413 586 L143 586 L143 696 Z " />
<glyph glyph-name="aring" unicode="&#xe5;" horiz-adv-x="585" d="M30 240 Q30 296 49 344 Q68 392 99.5 426.5 Q131 461 171.5 480.5 Q212 500 255 500 Q290 500 315 489 Q340 478 356 465 Q374 449 385 430 L395 430 L395 480 L535 480 L535 0 L395 0 L395 50 L385 50 Q374 30 356 15 Q340 1 315 -9.5 Q290 -20 255 -20 Q212 -20 171.5 -0.5 Q131 19 99.5 53.5 Q68 88 49 136 Q30 184 30 240 Z M395 290 Q383 314 366 332 Q352 348 331.5 361.5 Q311 375 285 375 Q236 375 203 339.5 Q170 304 170 240 Q170 176 203 140.5 Q236 105 285 105 Q311 105 331.5 118 Q352 131 366 147 Q383 165 395 190 L395 290 Z M180 670 Q180 692 188.5 712 Q197 732 212 747 Q227 762 247 771 Q267 780 290 780 Q312 780 332 771 Q352 762 367 747 Q382 732 391 712 Q400 692 400 670 Q400 647 391 627 Q382 607 367 592 Q352 577 332 568.5 Q312 560 290 560 Q267 560 247 568.5 Q227 577 212 592 Q197 607 188.5 627 Q180 647 180 670 Z M245 670 Q245 647 258 633.5 Q271 620 291 620 Q309 620 322 633.5 Q335 647 335 670 Q335 693 322 706.5 Q309 720 290 720 Q271 720 258 706.5 Q245 693 245 670 Z " />
<glyph glyph-name="atilde" unicode="&#xe3;" horiz-adv-x="585" d="M30 240 Q30 296 49 344 Q68 392 99.5 426.5 Q131 461 171.5 480.5 Q212 500 255 500 Q290 500 315 489 Q340 478 356 465 Q374 449 385 430 L395 430 L395 480 L535 480 L535 0 L395 0 L395 50 L385 50 Q374 30 356 15 Q340 1 315 -9.5 Q290 -20 255 -20 Q212 -20 171.5 -0.5 Q131 19 99.5 53.5 Q68 88 49 136 Q30 184 30 240 Z M395 290 Q383 314 366 332 Q352 348 331.5 361.5 Q311 375 285 375 Q236 375 203 339.5 Q170 304 170 240 Q170 176 203 140.5 Q236 105 285 105 Q311 105 331.5 118 Q352 131 366 147 Q383 165 395 190 L395 290 Z M260 620 Q249 620 242 612.5 Q235 605 235 590 L235 580 L150 580 L150 615 Q150 672 171.5 696 Q193 720 235 720 Q260 720 273.5 712 Q287 704 297 695 Q307 686 316 678 Q325 670 340 670 Q351 670 358 677.5 Q365 685 365 700 L365 710 L450 710 L450 675 Q450 618 428.5 594 Q407 570 365 570 Q340 570 326 578 Q312 586 302.5 595 Q293 604 284 612 Q275 620 260 620 Z " />
<glyph glyph-name="ae" unicode="&#xe6;" horiz-adv-x="855" d="M215 105 Q237 105 256.5 112.5 Q276 120 290 132.5 Q304 145 312 160 Q320 175 320 190 L215 190 Q185 190 170 177 Q155 164 155 145 Q155 105 215 105 Z M575 375 Q537 375 511.5 351.5 Q486 328 475 290 L675 290 Q664 328 638.5 351.5 Q613 375 575 375 Z M395 60 Q376 38 350 20 Q327 5 292.5 -7.5 Q258 -20 210 -20 Q165 -20 129 -7 Q93 6 67.5 27 Q42 48 28.5 75 Q15 102 15 130 Q15 201 64.5 245.5 Q114 290 215 290 L320 290 Q320 332 299 353 Q278 374 242 374 Q222 374 208 367 Q194 360 185 352 Q174 342 168 331 Q139 342 110 354 Q81 366 52 378 Q66 412 92 439 Q115 462 152.5 481 Q190 500 247 500 Q289 500 317.5 487.5 Q346 475 363 460 Q383 442 395 420 L405 420 Q419 442 443 460 Q463 475 495 487.5 Q527 500 575 500 Q627 500 673.5 480 Q720 460 755 424.5 Q790 389 810 341.5 Q830 294 830 240 L780 190 L475 190 Q486 152 511.5 128.5 Q537 105 575 105 Q620 105 642.5 121 Q665 137 680 160 L820 140 Q809 110 788 81 Q767 52 736.5 29.5 Q706 7 666 -6.5 Q626 -20 575 -20 Q533 -20 502 -7.5 Q471 5 449 20 Q423 38 405 60 L395 60 Z " />
<glyph glyph-name="cacute" unicode="&#x107;" horiz-adv-x="550" d="M285 -20 Q234 -20 188 1 Q142 22 107 57.5 Q72 93 51 140 Q30 187 30 240 Q30 292 51 339.5 Q72 387 107 422.5 Q142 458 188 479 Q234 500 285 500 Q334 500 374 485.5 Q414 471 444 447.5 Q474 424 493 394.5 Q512 365 520 335 L380 315 Q369 338 346 356.5 Q323 375 285 375 Q262 375 241.5 365 Q221 355 205 337.5 Q189 320 179.5 295 Q170 270 170 240 Q170 210 179.5 185 Q189 160 205 142.5 Q221 125 241.5 115 Q262 105 285 105 Q327 105 353 127.5 Q379 150 390 180 L530 160 Q522 124 502.5 91.5 Q483 59 452.5 34.5 Q422 10 379.5 -5 Q337 -20 285 -20 Z M385 630 L220 570 L185 650 L340 730 L385 630 Z " />
<glyph glyph-name="ccaron" unicode="&#x10d;" horiz-adv-x="550" d="M285 -20 Q234 -20 188 1 Q142 22 107 57.5 Q72 93 51 140 Q30 187 30 240 Q30 292 51 339.5 Q72 387 107 422.5 Q142 458 188 479 Q234 500 285 500 Q334 500 374 485.5 Q414 471 444 447.5 Q474 424 493 394.5 Q512 365 520 335 L380 315 Q369 338 346 356.5 Q323 375 285 375 Q262 375 241.5 365 Q221 355 205 337.5 Q189 320 179.5 295 Q170 270 170 240 Q170 210 179.5 185 Q189 160 205 142.5 Q221 125 241.5 115 Q262 105 285 105 Q327 105 353 127.5 Q379 150 390 180 L530 160 Q522 124 502.5 91.5 Q483 59 452.5 34.5 Q422 10 379.5 -5 Q337 -20 285 -20 Z M240 570 L120 740 L230 740 L285 665 L295 665 L350 740 L460 740 L340 570 L240 570 Z " />
<glyph glyph-name="ccircumflex" unicode="&#x109;" horiz-adv-x="550" d="M285 -20 Q234 -20 188 1 Q142 22 107 57.5 Q72 93 51 140 Q30 187 30 240 Q30 292 51 339.5 Q72 387 107 422.5 Q142 458 188 479 Q234 500 285 500 Q334 500 374 485.5 Q414 471 444 447.5 Q474 424 493 394.5 Q512 365 520 335 L380 315 Q369 338 346 356.5 Q323 375 285 375 Q262 375 241.5 365 Q221 355 205 337.5 Q189 320 179.5 295 Q170 270 170 240 Q170 210 179.5 185 Q189 160 205 142.5 Q221 125 241.5 115 Q262 105 285 105 Q327 105 353 127.5 Q379 150 390 180 L530 160 Q522 124 502.5 91.5 Q483 59 452.5 34.5 Q422 10 379.5 -5 Q337 -20 285 -20 Z M340 740 L460 570 L350 570 L295 645 L285 645 L230 570 L120 570 L240 740 L340 740 Z " />
<glyph glyph-name="dcaron" unicode="&#x10f;" horiz-adv-x="675" d="M30 240 Q30 296 49 344 Q68 392 99.5 426.5 Q131 461 171.5 480.5 Q212 500 255 500 Q290 500 315 489 Q340 478 356 465 Q374 449 385 430 L395 430 L395 700 L535 700 L535 0 L395 0 L395 50 L385 50 Q374 30 356 15 Q340 1 315 -9.5 Q290 -20 255 -20 Q212 -20 171.5 -0.5 Q131 19 99.5 53.5 Q68 88 49 136 Q30 184 30 240 Z M395 290 Q383 314 366 332 Q352 348 331.5 361.5 Q311 375 285 375 Q236 375 203 339.5 Q170 304 170 240 Q170 176 203 140.5 Q236 105 285 105 Q311 105 331.5 118 Q352 131 366 147 Q383 165 395 190 L395 290 Z M565 640 Q565 653 571 665.5 Q577 678 587 688 Q597 698 609.5 704 Q622 710 635 710 Q648 710 660.5 704 Q673 698 683 688 Q693 678 699 665.5 Q705 653 705 640 Q705 630 703.5 623 Q702 616 700 611 Q697 605 695 600 L620 490 L570 490 L600 580 Q590 585 582 593 Q575 600 570 611.5 Q565 623 565 640 Z " />
<glyph glyph-name="dcroat" unicode="&#x111;" horiz-adv-x="600" d="M30 230 Q30 282 49 328 Q68 374 99.5 407.5 Q131 441 171.5 460.5 Q212 480 255 480 Q290 480 315 469 Q340 458 356 445 Q374 429 385 410 L395 410 L395 525 L290 525 L290 640 L395 640 L395 700 L535 700 L535 640 L590 640 L590 525 L535 525 L535 0 L395 0 L395 50 L385 50 Q374 30 356 15 Q340 1 315 -9.5 Q290 -20 255 -20 Q212 -20 171.5 -0.5 Q131 19 99.5 52.5 Q68 86 49 131.5 Q30 177 30 230 Z M395 270 Q383 294 366 312 Q352 328 331.5 341.5 Q311 355 285 355 Q236 355 203 321 Q170 287 170 230 Q170 173 203 139 Q236 105 285 105 Q311 105 331.5 118 Q352 131 366 147 Q383 165 395 190 L395 270 Z " />
<glyph glyph-name="eth" unicode="&#xf0;" horiz-adv-x="560" d="M275 495 L215 575 L275 620 L220 685 L315 765 L380 695 L440 740 L500 660 L435 615 Q459 591 477 555 Q493 524 506.5 476 Q520 428 520 360 L520 220 Q520 167 502 123 Q484 79 452 47.5 Q420 16 374.5 -2 Q329 -20 275 -20 Q221 -20 175.5 -2.5 Q130 15 98 46.5 Q66 78 48 121 Q30 164 30 215 Q30 266 47.5 309 Q65 352 96 383.5 Q127 415 169 432.5 Q211 450 260 450 Q286 450 306.5 442 Q327 434 341 425 Q358 414 370 400 L380 400 Q380 438 372.5 464 Q365 490 357 507 Q347 526 335 540 L275 495 Z M275 105 Q320 105 350 135.5 Q380 166 380 215 Q380 264 350 294.5 Q320 325 275 325 Q230 325 200 295 Q170 265 170 215 Q170 166 200 135.5 Q230 105 275 105 Z " />
<glyph glyph-name="egrave" unicode="&#xe8;" horiz-adv-x="570" d="M285 500 Q339 500 386.5 480 Q434 460 469.5 424.5 Q505 389 525 341.5 Q545 294 545 240 L495 190 L180 190 Q191 152 217 128.5 Q243 105 285 105 Q309 105 326.5 109.5 Q344 114 357 121.5 Q370 129 378.5 139 Q387 149 395 160 L535 140 Q524 110 503 81 Q482 52 451 29.5 Q420 7 378.5 -6.5 Q337 -20 285 -20 Q234 -20 188 1 Q142 22 107 57.5 Q72 93 51 140 Q30 187 30 240 Q30 292 51 339.5 Q72 387 107 422.5 Q142 458 188 479 Q234 500 285 500 Z M285 375 Q243 375 217 351.5 Q191 328 180 290 L390 290 Q379 328 353 351.5 Q327 375 285 375 Z M240 730 L395 650 L360 570 L195 630 L240 730 Z " />
<glyph glyph-name="eacute" unicode="&#xe9;" horiz-adv-x="570" d="M285 500 Q339 500 386.5 480 Q434 460 469.5 424.5 Q505 389 525 341.5 Q545 294 545 240 L495 190 L180 190 Q191 152 217 128.5 Q243 105 285 105 Q309 105 326.5 109.5 Q344 114 357 121.5 Q370 129 378.5 139 Q387 149 395 160 L535 140 Q524 110 503 81 Q482 52 451 29.5 Q420 7 378.5 -6.5 Q337 -20 285 -20 Q234 -20 188 1 Q142 22 107 57.5 Q72 93 51 140 Q30 187 30 240 Q30 292 51 339.5 Q72 387 107 422.5 Q142 458 188 479 Q234 500 285 500 Z M285 375 Q243 375 217 351.5 Q191 328 180 290 L390 290 Q379 328 353 351.5 Q327 375 285 375 Z M395 630 L230 570 L195 650 L350 730 L395 630 Z " />
<glyph glyph-name="ecaron" unicode="&#x11b;" horiz-adv-x="570" d="M285 500 Q339 500 386.5 480 Q434 460 469.5 424.5 Q505 389 525 341.5 Q545 294 545 240 L495 190 L180 190 Q191 152 217 128.5 Q243 105 285 105 Q309 105 326.5 109.5 Q344 114 357 121.5 Q370 129 378.5 139 Q387 149 395 160 L535 140 Q524 110 503 81 Q482 52 451 29.5 Q420 7 378.5 -6.5 Q337 -20 285 -20 Q234 -20 188 1 Q142 22 107 57.5 Q72 93 51 140 Q30 187 30 240 Q30 292 51 339.5 Q72 387 107 422.5 Q142 458 188 479 Q234 500 285 500 Z M285 375 Q243 375 217 351.5 Q191 328 180 290 L390 290 Q379 328 353 351.5 Q327 375 285 375 Z M240 565 L120 735 L230 735 L285 660 L295 660 L350 735 L460 735 L340 565 L240 565 Z " />
<glyph glyph-name="ecircumflex" unicode="&#xea;" horiz-adv-x="570" d="M285 500 Q339 500 386.5 480 Q434 460 469.5 424.5 Q505 389 525 341.5 Q545 294 545 240 L495 190 L180 190 Q191 152 217 128.5 Q243 105 285 105 Q309 105 326.5 109.5 Q344 114 357 121.5 Q370 129 378.5 139 Q387 149 395 160 L535 140 Q524 110 503 81 Q482 52 451 29.5 Q420 7 378.5 -6.5 Q337 -20 285 -20 Q234 -20 188 1 Q142 22 107 57.5 Q72 93 51 140 Q30 187 30 240 Q30 292 51 339.5 Q72 387 107 422.5 Q142 458 188 479 Q234 500 285 500 Z M285 375 Q243 375 217 351.5 Q191 328 180 290 L390 290 Q379 328 353 351.5 Q327 375 285 375 Z M335 735 L455 565 L345 565 L290 640 L280 640 L225 565 L115 565 L235 735 L335 735 Z " />
<glyph glyph-name="edieresis" unicode="&#xeb;" horiz-adv-x="570" d="M285 500 Q339 500 386.5 480 Q434 460 469.5 424.5 Q505 389 525 341.5 Q545 294 545 240 L495 190 L180 190 Q191 152 217 128.5 Q243 105 285 105 Q309 105 326.5 109.5 Q344 114 357 121.5 Q370 129 378.5 139 Q387 149 395 160 L535 140 Q524 110 503 81 Q482 52 451 29.5 Q420 7 378.5 -6.5 Q337 -20 285 -20 Q234 -20 188 1 Q142 22 107 57.5 Q72 93 51 140 Q30 187 30 240 Q30 292 51 339.5 Q72 387 107 422.5 Q142 458 188 479 Q234 500 285 500 Z M285 375 Q243 375 217 351.5 Q191 328 180 290 L390 290 Q379 328 353 351.5 Q327 375 285 375 Z M110 640 Q110 670 130 690 Q150 710 180 710 Q210 710 230 690 Q250 670 250 640 Q250 610 230 590 Q210 570 180 570 Q150 570 130 590 Q110 610 110 640 Z M310 640 Q310 670 330 690 Q350 710 380 710 Q410 710 430 690 Q450 670 450 640 Q450 610 430 590 Q410 570 380 570 Q350 570 330 590 Q310 610 310 640 Z " />
<glyph glyph-name="edotaccent" unicode="&#x117;" horiz-adv-x="570" d="M285 500 Q339 500 386.5 480 Q434 460 469.5 424.5 Q505 389 525 341.5 Q545 294 545 240 L495 190 L180 190 Q191 152 217 128.5 Q243 105 285 105 Q309 105 326.5 109.5 Q344 114 357 121.5 Q370 129 378.5 139 Q387 149 395 160 L535 140 Q524 110 503 81 Q482 52 451 29.5 Q420 7 378.5 -6.5 Q337 -20 285 -20 Q234 -20 188 1 Q142 22 107 57.5 Q72 93 51 140 Q30 187 30 240 Q30 292 51 339.5 Q72 387 107 422.5 Q142 458 188 479 Q234 500 285 500 Z M285 375 Q243 375 217 351.5 Q191 328 180 290 L390 290 Q379 328 353 351.5 Q327 375 285 375 Z M210 645 Q210 679 233 702 Q256 725 290 725 Q324 725 347 702 Q370 679 370 645 Q370 611 347 588 Q324 565 290 565 Q256 565 233 588 Q210 611 210 645 Z " />
<glyph glyph-name="emacron" unicode="&#x113;" horiz-adv-x="570" d="M285 500 Q339 500 386.5 480 Q434 460 469.5 424.5 Q505 389 525 341.5 Q545 294 545 240 L495 190 L180 190 Q191 152 217 128.5 Q243 105 285 105 Q309 105 326.5 109.5 Q344 114 357 121.5 Q370 129 378.5 139 Q387 149 395 160 L535 140 Q524 110 503 81 Q482 52 451 29.5 Q420 7 378.5 -6.5 Q337 -20 285 -20 Q234 -20 188 1 Q142 22 107 57.5 Q72 93 51 140 Q30 187 30 240 Q30 292 51 339.5 Q72 387 107 422.5 Q142 458 188 479 Q234 500 285 500 Z M285 375 Q243 375 217 351.5 Q191 328 180 290 L390 290 Q379 328 353 351.5 Q327 375 285 375 Z M138 686 L408 686 L408 576 L138 576 L138 686 Z " />
<glyph glyph-name="gbreve" unicode="&#x11f;" horiz-adv-x="585" d="M30 250 Q30 302 49 348 Q68 394 99.5 427.5 Q131 461 171.5 480.5 Q212 500 255 500 Q290 500 315 489 Q340 478 356 465 Q374 449 385 430 L395 430 L395 480 L535 480 L535 14 Q535 -33 515.5 -75 Q496 -117 463 -149.5 Q430 -182 385.5 -201 Q341 -220 290 -220 Q239 -220 199.5 -207 Q160 -194 130.5 -172 Q101 -150 81 -121 Q61 -92 50 -60 L190 -40 Q201 -59 225 -77 Q249 -95 290 -95 Q335 -95 365 -64.5 Q395 -34 395 15 L395 70 L385 70 Q374 50 356 35 Q340 21 315 10.5 Q290 0 255 0 Q212 0 171.5 19.5 Q131 39 99.5 72.5 Q68 106 49 151.5 Q30 197 30 250 Z M395 290 Q383 314 366 332 Q352 348 331.5 361.5 Q311 375 285 375 Q236 375 203 341 Q170 307 170 250 Q170 193 203 159 Q236 125 285 125 Q311 125 331.5 138 Q352 151 366 167 Q383 185 395 210 L395 290 Z M290 565 Q256 565 227.5 576.5 Q199 588 178.5 608 Q158 628 146.5 655.5 Q135 683 135 715 L235 715 Q239 692 253.5 678.5 Q268 665 290 665 Q312 665 326.5 678.5 Q341 692 345 715 L445 715 Q445 683 433.5 655.5 Q422 628 401.5 608 Q381 588 352.5 576.5 Q324 565 290 565 Z " />
<glyph glyph-name="gcommaaccent" unicode="&#x123;" horiz-adv-x="585" d="M375 640 Q375 610 352.5 587.5 Q330 565 300 565 Q270 565 247.5 587.5 Q225 610 225 640 Q225 658 232 672 Q236 679 240 685 L320 790 L370 790 L335 705 Q346 699 355 689 Q363 681 369 669 Q375 657 375 640 Z M30 250 Q30 302 49 348 Q68 394 99.5 427.5 Q131 461 171.5 480.5 Q212 500 255 500 Q290 500 315 489 Q340 478 356 465 Q374 449 385 430 L395 430 L395 480 L535 480 L535 14 Q535 -33 515.5 -75 Q496 -117 463 -149.5 Q430 -182 385.5 -201 Q341 -220 290 -220 Q239 -220 199.5 -207 Q160 -194 130.5 -172 Q101 -150 81 -121 Q61 -92 50 -60 L190 -40 Q201 -59 225 -77 Q249 -95 290 -95 Q335 -95 365 -64.5 Q395 -34 395 15 L395 70 L385 70 Q374 50 356 35 Q340 21 315 10.5 Q290 0 255 0 Q212 0 171.5 19.5 Q131 39 99.5 72.5 Q68 106 49 151.5 Q30 197 30 250 Z M395 290 Q383 314 366 332 Q352 348 331.5 361.5 Q311 375 285 375 Q236 375 203 341 Q170 307 170 250 Q170 193 203 159 Q236 125 285 125 Q311 125 331.5 138 Q352 151 366 167 Q383 185 395 210 L395 290 Z " />
<glyph glyph-name="kcommaaccent" unicode="&#x137;" horiz-adv-x="535" d="M195 0 L55 0 L55 700 L195 700 L195 310 L355 480 L525 480 L355 300 L540 0 L385 0 L260 200 L195 130 L195 0 Z M215 -145 Q215 -132 221 -119.5 Q227 -107 237 -97 Q247 -87 259.5 -81 Q272 -75 285 -75 Q298 -75 310.5 -81 Q323 -87 333 -97 Q343 -107 349 -119.5 Q355 -132 355 -145 Q355 -155 353.5 -162 Q352 -169 350 -174 Q347 -180 345 -185 L270 -295 L220 -295 L250 -205 Q240 -200 232 -192 Q225 -185 220 -173.5 Q215 -162 215 -145 Z " />
<glyph glyph-name="lacute" unicode="&#x13a;" horiz-adv-x="280" d="M75 575 L10 575 L10 700 L215 700 L215 0 L75 0 L75 575 Z M250 840 L85 780 L50 860 L205 940 L250 840 Z " />
<glyph glyph-name="lcaron" unicode="&#x13e;" horiz-adv-x="370" d="M75 575 L10 575 L10 700 L215 700 L215 0 L75 0 L75 575 Z M250 640 Q250 653 256 665.5 Q262 678 272 688 Q282 698 294.5 704 Q307 710 320 710 Q333 710 345.5 704 Q358 698 368 688 Q378 678 384 665.5 Q390 653 390 640 Q390 630 388.5 623 Q387 616 385 611 Q382 605 380 600 L305 490 L255 490 L285 580 Q275 585 267 593 Q260 600 255 611.5 Q250 623 250 640 Z " />
<glyph glyph-name="lcommaaccent" unicode="&#x13c;" horiz-adv-x="270" d="M75 575 L10 575 L10 700 L215 700 L215 0 L75 0 L75 575 Z M70 -140 Q70 -127 76 -114.5 Q82 -102 92 -92 Q102 -82 114.5 -76 Q127 -70 140 -70 Q153 -70 165.5 -76 Q178 -82 188 -92 Q198 -102 204 -114.5 Q210 -127 210 -140 Q210 -150 208.5 -157 Q207 -164 205 -169 Q202 -175 200 -180 L125 -290 L75 -290 L105 -200 Q95 -195 87 -187 Q80 -180 75 -168.5 Q70 -157 70 -140 Z " />
<glyph glyph-name="lslash" unicode="&#x142;" horiz-adv-x="325" d="M10 340 L85 370 L85 575 L20 575 L20 700 L225 700 L225 425 L315 460 L315 325 L225 290 L225 0 L85 0 L85 235 L10 205 L10 340 Z " />
<glyph glyph-name="igrave" unicode="&#xec;" horiz-adv-x="260" d="M46 725 L201 645 L166 565 L1 625 L46 725 Z M200 0 L60 0 L60 480 L200 480 L200 0 Z " />
<glyph glyph-name="iacute" unicode="&#xed;" horiz-adv-x="260" d="M240 625 L75 565 L40 645 L195 725 L240 625 Z M200 0 L60 0 L60 480 L200 480 L200 0 Z " />
<glyph glyph-name="icircumflex" unicode="&#xee;" horiz-adv-x="260" d="M200 0 L60 0 L60 480 L200 480 L200 0 Z M181 720 L301 550 L191 550 L136 625 L126 625 L71 550 L-39 550 L81 720 L181 720 Z " />
<glyph glyph-name="idieresis" unicode="&#xef;" horiz-adv-x="280" d="M-29 630 Q-29 660 -9 680 Q11 700 41 700 Q71 700 91 680 Q111 660 111 630 Q111 600 91 580 Q71 560 41 560 Q11 560 -9 580 Q-29 600 -29 630 Z M171 630 Q171 660 191 680 Q211 700 241 700 Q271 700 291 680 Q311 660 311 630 Q311 600 291 580 Q271 560 241 560 Q211 560 191 580 Q171 600 171 630 Z M210 0 L70 0 L70 480 L210 480 L210 0 Z " />
<glyph glyph-name="dotlessi" unicode="&#x131;" horiz-adv-x="240" d="M190 0 L50 0 L50 480 L190 480 L190 0 Z " />
<glyph glyph-name="imacron" unicode="&#x12b;" horiz-adv-x="260" d="M-21 691 L249 691 L249 581 L-21 581 L-21 691 Z M205 0 L65 0 L65 480 L205 480 L205 0 Z " />
<glyph glyph-name="nacute" unicode="&#x144;" horiz-adv-x="565" d="M520 0 L380 0 L380 275 Q380 320 354.5 347.5 Q329 375 295 375 Q270 375 251 361.5 Q232 348 218 332 Q202 314 190 290 L190 0 L50 0 L50 480 L190 480 L190 430 L200 430 Q211 449 229 465 Q244 478 267.5 489 Q291 500 325 500 Q364 500 399.5 484 Q435 468 462 438.5 Q489 409 504.5 367.5 Q520 326 520 275 L520 0 Z M390 630 L225 570 L190 650 L345 730 L390 630 Z " />
<glyph glyph-name="ncaron" unicode="&#x148;" horiz-adv-x="565" d="M520 0 L380 0 L380 275 Q380 320 354.5 347.5 Q329 375 295 375 Q270 375 251 361.5 Q232 348 218 332 Q202 314 190 290 L190 0 L50 0 L50 480 L190 480 L190 430 L200 430 Q211 449 229 465 Q244 478 267.5 489 Q291 500 325 500 Q364 500 399.5 484 Q435 468 462 438.5 Q489 409 504.5 367.5 Q520 326 520 275 L520 0 Z M235 570 L115 740 L225 740 L280 665 L290 665 L345 740 L455 740 L335 570 L235 570 Z " />
<glyph glyph-name="ncommaaccent" unicode="&#x146;" horiz-adv-x="565" d="M520 0 L380 0 L380 275 Q380 320 354.5 347.5 Q329 375 295 375 Q270 375 251 361.5 Q232 348 218 332 Q202 314 190 290 L190 0 L50 0 L50 480 L190 480 L190 430 L200 430 Q211 449 229 465 Q244 478 267.5 489 Q291 500 325 500 Q364 500 399.5 484 Q435 468 462 438.5 Q489 409 504.5 367.5 Q520 326 520 275 L520 0 Z M215 -150 Q215 -137 221 -124.5 Q227 -112 237 -102 Q247 -92 259.5 -86 Q272 -80 285 -80 Q298 -80 310.5 -86 Q323 -92 333 -102 Q343 -112 349 -124.5 Q355 -137 355 -150 Q355 -160 353.5 -167 Q352 -174 350 -179 Q347 -185 345 -190 L270 -300 L220 -300 L250 -210 Q240 -205 232 -197 Q225 -190 220 -178.5 Q215 -167 215 -150 Z " />
<glyph glyph-name="ntilde" unicode="&#xf1;" horiz-adv-x="565" d="M520 0 L380 0 L380 275 Q380 320 354.5 347.5 Q329 375 295 375 Q270 375 251 361.5 Q232 348 218 332 Q202 314 190 290 L190 0 L50 0 L50 480 L190 480 L190 430 L200 430 Q211 449 229 465 Q244 478 267.5 489 Q291 500 325 500 Q364 500 399.5 484 Q435 468 462 438.5 Q489 409 504.5 367.5 Q520 326 520 275 L520 0 Z M240 625 Q229 625 222 617.5 Q215 610 215 595 L215 585 L130 585 L130 620 Q130 677 151.5 701 Q173 725 215 725 Q240 725 253.5 717 Q267 709 277 700 Q287 691 296 683 Q305 675 320 675 Q331 675 338 682.5 Q345 690 345 705 L345 715 L430 715 L430 680 Q430 623 408.5 599 Q387 575 345 575 Q320 575 306 583 Q292 591 282.5 600 Q273 609 264 617 Q255 625 240 625 Z " />
<glyph glyph-name="ograve" unicode="&#xf2;" horiz-adv-x="590" d="M295 105 Q319 105 342 115.5 Q365 126 382 144.5 Q399 163 409.5 187.5 Q420 212 420 240 Q420 268 409.5 292.5 Q399 317 382 335.5 Q365 354 342 364.5 Q319 375 295 375 Q271 375 248 364.5 Q225 354 208 335.5 Q191 317 180.5 292.5 Q170 268 170 240 Q170 212 180.5 187.5 Q191 163 208 144.5 Q225 126 248 115.5 Q271 105 295 105 Z M295 -20 Q241 -20 192.5 1 Q144 22 108 57.5 Q72 93 51 140 Q30 187 30 240 Q30 292 51 339.5 Q72 387 108 422.5 Q144 458 192.5 479 Q241 500 295 500 Q349 500 397.5 479 Q446 458 482 422.5 Q518 387 539 339.5 Q560 292 560 240 Q560 187 539 140 Q518 93 482 57.5 Q446 22 397.5 1 Q349 -20 295 -20 Z M235 720 L390 640 L355 560 L190 620 L235 720 Z " />
<glyph glyph-name="oacute" unicode="&#xf3;" horiz-adv-x="590" d="M295 105 Q319 105 342 115.5 Q365 126 382 144.5 Q399 163 409.5 187.5 Q420 212 420 240 Q420 268 409.5 292.5 Q399 317 382 335.5 Q365 354 342 364.5 Q319 375 295 375 Q271 375 248 364.5 Q225 354 208 335.5 Q191 317 180.5 292.5 Q170 268 170 240 Q170 212 180.5 187.5 Q191 163 208 144.5 Q225 126 248 115.5 Q271 105 295 105 Z M295 -20 Q241 -20 192.5 1 Q144 22 108 57.5 Q72 93 51 140 Q30 187 30 240 Q30 292 51 339.5 Q72 387 108 422.5 Q144 458 192.5 479 Q241 500 295 500 Q349 500 397.5 479 Q446 458 482 422.5 Q518 387 539 339.5 Q560 292 560 240 Q560 187 539 140 Q518 93 482 57.5 Q446 22 397.5 1 Q349 -20 295 -20 Z M390 630 L225 570 L190 650 L345 730 L390 630 Z " />
<glyph glyph-name="ocircumflex" unicode="&#xf4;" horiz-adv-x="590" d="M295 105 Q319 105 342 115.5 Q365 126 382 144.5 Q399 163 409.5 187.5 Q420 212 420 240 Q420 268 409.5 292.5 Q399 317 382 335.5 Q365 354 342 364.5 Q319 375 295 375 Q271 375 248 364.5 Q225 354 208 335.5 Q191 317 180.5 292.5 Q170 268 170 240 Q170 212 180.5 187.5 Q191 163 208 144.5 Q225 126 248 115.5 Q271 105 295 105 Z M295 -20 Q241 -20 192.5 1 Q144 22 108 57.5 Q72 93 51 140 Q30 187 30 240 Q30 292 51 339.5 Q72 387 108 422.5 Q144 458 192.5 479 Q241 500 295 500 Q349 500 397.5 479 Q446 458 482 422.5 Q518 387 539 339.5 Q560 292 560 240 Q560 187 539 140 Q518 93 482 57.5 Q446 22 397.5 1 Q349 -20 295 -20 Z M345 740 L465 570 L355 570 L300 645 L290 645 L235 570 L125 570 L245 740 L345 740 Z " />
<glyph glyph-name="odieresis" unicode="&#xf6;" horiz-adv-x="590" d="M295 105 Q319 105 342 115.5 Q365 126 382 144.5 Q399 163 409.5 187.5 Q420 212 420 240 Q420 268 409.5 292.5 Q399 317 382 335.5 Q365 354 342 364.5 Q319 375 295 375 Q271 375 248 364.5 Q225 354 208 335.5 Q191 317 180.5 292.5 Q170 268 170 240 Q170 212 180.5 187.5 Q191 163 208 144.5 Q225 126 248 115.5 Q271 105 295 105 Z M295 -20 Q241 -20 192.5 1 Q144 22 108 57.5 Q72 93 51 140 Q30 187 30 240 Q30 292 51 339.5 Q72 387 108 422.5 Q144 458 192.5 479 Q241 500 295 500 Q349 500 397.5 479 Q446 458 482 422.5 Q518 387 539 339.5 Q560 292 560 240 Q560 187 539 140 Q518 93 482 57.5 Q446 22 397.5 1 Q349 -20 295 -20 Z M115 650 Q115 680 135 700 Q155 720 185 720 Q215 720 235 700 Q255 680 255 650 Q255 620 235 600 Q215 580 185 580 Q155 580 135 600 Q115 620 115 650 Z M315 650 Q315 680 335 700 Q355 720 385 720 Q415 720 435 700 Q455 680 455 650 Q455 620 435 600 Q415 580 385 580 Q355 580 335 600 Q315 620 315 650 Z " />
<glyph glyph-name="ohungarumlaut" unicode="&#x151;" horiz-adv-x="590" d="M295 105 Q319 105 342 115.5 Q365 126 382 144.5 Q399 163 409.5 187.5 Q420 212 420 240 Q420 268 409.5 292.5 Q399 317 382 335.5 Q365 354 342 364.5 Q319 375 295 375 Q271 375 248 364.5 Q225 354 208 335.5 Q191 317 180.5 292.5 Q170 268 170 240 Q170 212 180.5 187.5 Q191 163 208 144.5 Q225 126 248 115.5 Q271 105 295 105 Z M295 -20 Q241 -20 192.5 1 Q144 22 108 57.5 Q72 93 51 140 Q30 187 30 240 Q30 292 51 339.5 Q72 387 108 422.5 Q144 458 192.5 479 Q241 500 295 500 Q349 500 397.5 479 Q446 458 482 422.5 Q518 387 539 339.5 Q560 292 560 240 Q560 187 539 140 Q518 93 482 57.5 Q446 22 397.5 1 Q349 -20 295 -20 Z M225 720 L340 720 L240 560 L165 560 L225 720 Z M380 720 L495 720 L395 560 L320 560 L380 720 Z " />
<glyph glyph-name="omacron" unicode="&#x14d;" horiz-adv-x="590" d="M295 105 Q319 105 342 115.5 Q365 126 382 144.5 Q399 163 409.5 187.5 Q420 212 420 240 Q420 268 409.5 292.5 Q399 317 382 335.5 Q365 354 342 364.5 Q319 375 295 375 Q271 375 248 364.5 Q225 354 208 335.5 Q191 317 180.5 292.5 Q170 268 170 240 Q170 212 180.5 187.5 Q191 163 208 144.5 Q225 126 248 115.5 Q271 105 295 105 Z M295 -20 Q241 -20 192.5 1 Q144 22 108 57.5 Q72 93 51 140 Q30 187 30 240 Q30 292 51 339.5 Q72 387 108 422.5 Q144 458 192.5 479 Q241 500 295 500 Q349 500 397.5 479 Q446 458 482 422.5 Q518 387 539 339.5 Q560 292 560 240 Q560 187 539 140 Q518 93 482 57.5 Q446 22 397.5 1 Q349 -20 295 -20 Z M148 691 L418 691 L418 581 L148 581 L148 691 Z " />
<glyph glyph-name="otilde" unicode="&#xf5;" horiz-adv-x="590" d="M295 105 Q319 105 342 115.5 Q365 126 382 144.5 Q399 163 409.5 187.5 Q420 212 420 240 Q420 268 409.5 292.5 Q399 317 382 335.5 Q365 354 342 364.5 Q319 375 295 375 Q271 375 248 364.5 Q225 354 208 335.5 Q191 317 180.5 292.5 Q170 268 170 240 Q170 212 180.5 187.5 Q191 163 208 144.5 Q225 126 248 115.5 Q271 105 295 105 Z M295 -20 Q241 -20 192.5 1 Q144 22 108 57.5 Q72 93 51 140 Q30 187 30 240 Q30 292 51 339.5 Q72 387 108 422.5 Q144 458 192.5 479 Q241 500 295 500 Q349 500 397.5 479 Q446 458 482 422.5 Q518 387 539 339.5 Q560 292 560 240 Q560 187 539 140 Q518 93 482 57.5 Q446 22 397.5 1 Q349 -20 295 -20 Z M255 610 Q244 610 237 602.5 Q230 595 230 580 L230 570 L145 570 L145 605 Q145 662 166.5 686 Q188 710 230 710 Q255 710 268.5 702 Q282 694 292 685 Q302 676 311 668 Q320 660 335 660 Q346 660 353 667.5 Q360 675 360 690 L360 700 L445 700 L445 665 Q445 608 423.5 584 Q402 560 360 560 Q335 560 321 568 Q307 576 297.5 585 Q288 594 279 602 Q270 610 255 610 Z " />
<glyph glyph-name="oslash" unicode="&#xf8;" horiz-adv-x="590" d="M295 -20 Q225 -20 166.5 13 Q108 46 72 100 L0 70 L0 160 L38 176 Q34 192 32 207.5 Q30 223 30 240 Q30 292 51 339.5 Q72 387 108 422.5 Q144 458 192.5 479 Q241 500 295 500 Q364 500 423 466.5 Q482 433 517 379 L590 410 L590 320 L551 303 Q560 273 560 240 Q560 187 539 140 Q518 93 482 57.5 Q446 22 397.5 1 Q349 -20 295 -20 Z M295 105 Q319 105 342 115.5 Q365 126 382 144.5 Q399 163 409.5 187.5 Q420 212 420 240 L420 248 L199 154 Q217 131 242 118 Q267 105 295 105 Z M170 232 L390 325 Q373 348 348 361.5 Q323 375 295 375 Q271 375 248 364.5 Q225 354 208 335.5 Q191 317 180.5 292.5 Q170 268 170 240 L170 232 Z " />
<glyph glyph-name="oe" unicode="&#x153;" horiz-adv-x="935" d="M285 -20 Q232 -20 186 0 Q140 20 105 55.5 Q70 91 50 138.5 Q30 186 30 240 Q30 294 50 341.5 Q70 389 105 424.5 Q140 460 186 480 Q232 500 285 500 Q332 500 366.5 486.5 Q401 473 424 457 Q451 439 470 415 L480 415 Q498 439 524 457 Q546 473 578.5 486.5 Q611 500 655 500 Q707 500 753.5 480 Q800 460 835 424.5 Q870 389 890 341.5 Q910 294 910 240 L860 190 L555 190 Q566 152 591.5 128.5 Q617 105 655 105 Q700 105 722.5 121 Q745 137 760 160 L900 140 Q889 110 868 81 Q847 52 816.5 29.5 Q786 7 746 -6.5 Q706 -20 655 -20 Q611 -20 578.5 -7 Q546 6 524 22 Q498 40 480 65 L470 65 Q451 40 424 22 Q401 6 366.5 -7 Q332 -20 285 -20 Z M285 105 Q307 105 328 115 Q349 125 365 142.5 Q381 160 390.5 185 Q400 210 400 240 Q400 270 389 295 Q378 320 361 337.5 Q344 355 324 365 Q304 375 285 375 Q266 375 246 365 Q226 355 209 337.5 Q192 320 181 295 Q170 270 170 240 Q170 210 179.5 185 Q189 160 205 142.5 Q221 125 241.5 115 Q262 105 285 105 Z M655 375 Q617 375 591.5 351.5 Q566 328 555 290 L755 290 Q744 328 718.5 351.5 Q693 375 655 375 Z " />
<glyph glyph-name="racute" unicode="&#x155;" horiz-adv-x="345" d="M335 355 L290 355 Q260 355 240.5 343 Q221 331 210 317 Q197 300 190 280 L190 0 L50 0 L50 480 L190 480 L190 430 L200 430 Q211 447 229 460 Q244 471 267.5 480.5 Q291 490 325 490 L335 490 L335 355 Z M305 630 L140 570 L105 650 L260 730 L305 630 Z " />
<glyph glyph-name="rcaron" unicode="&#x159;" horiz-adv-x="340" d="M335 355 L290 355 Q260 355 240.5 343 Q221 331 210 317 Q197 300 190 280 L190 0 L50 0 L50 480 L190 480 L190 430 L200 430 Q211 447 229 460 Q244 471 267.5 480.5 Q291 490 325 490 L335 490 L335 355 Z M150 570 L30 740 L140 740 L195 665 L205 665 L260 740 L370 740 L250 570 L150 570 Z " />
<glyph glyph-name="rcommaaccent" unicode="&#x157;" horiz-adv-x="345" d="M335 355 L290 355 Q260 355 240.5 343 Q221 331 210 317 Q197 300 190 280 L190 0 L50 0 L50 480 L190 480 L190 430 L200 430 Q211 447 229 460 Q244 471 267.5 480.5 Q291 490 325 490 L335 490 L335 355 Z M50 -155 Q50 -142 56 -129.5 Q62 -117 72 -107 Q82 -97 94.5 -91 Q107 -85 120 -85 Q133 -85 145.5 -91 Q158 -97 168 -107 Q178 -117 184 -129.5 Q190 -142 190 -155 Q190 -165 188.5 -172 Q187 -179 185 -184 Q182 -190 180 -195 L105 -305 L55 -305 L85 -215 Q75 -210 67 -202 Q60 -195 55 -183.5 Q50 -172 50 -155 Z " />
<glyph glyph-name="sacute" unicode="&#x15b;" horiz-adv-x="495" d="M40 355 Q40 381 54 407 Q68 433 95 453.5 Q122 474 162 487 Q202 500 255 500 Q300 500 336.5 487 Q373 474 400.5 453.5 Q428 433 447 407 Q466 381 475 355 L345 335 Q337 350 315 367.5 Q293 385 255 385 Q225 385 207.5 370 Q190 355 190 340 Q190 324 211 314.5 Q232 305 264 296.5 Q296 288 332.5 277.5 Q369 267 401 248.5 Q433 230 454 200.5 Q475 171 475 125 Q475 99 461 73 Q447 47 419 26.5 Q391 6 348.5 -7 Q306 -20 250 -20 Q199 -20 159.5 -7 Q120 6 90.5 27.5 Q61 49 41 77 Q21 105 10 135 L150 155 Q161 132 184.5 113.5 Q208 95 250 95 Q288 95 306.5 110 Q325 125 325 140 Q325 156 304 165.5 Q283 175 251 183.5 Q219 192 182.5 202.5 Q146 213 114 231.5 Q82 250 61 279.5 Q40 309 40 355 Z M360 630 L195 570 L160 650 L315 730 L360 630 Z " />
<glyph glyph-name="scaron" unicode="&#x161;" horiz-adv-x="495" d="M40 355 Q40 381 54 407 Q68 433 95 453.5 Q122 474 162 487 Q202 500 255 500 Q300 500 336.5 487 Q373 474 400.5 453.5 Q428 433 447 407 Q466 381 475 355 L345 335 Q337 350 315 367.5 Q293 385 255 385 Q225 385 207.5 370 Q190 355 190 340 Q190 324 211 314.5 Q232 305 264 296.5 Q296 288 332.5 277.5 Q369 267 401 248.5 Q433 230 454 200.5 Q475 171 475 125 Q475 99 461 73 Q447 47 419 26.5 Q391 6 348.5 -7 Q306 -20 250 -20 Q199 -20 159.5 -7 Q120 6 90.5 27.5 Q61 49 41 77 Q21 105 10 135 L150 155 Q161 132 184.5 113.5 Q208 95 250 95 Q288 95 306.5 110 Q325 125 325 140 Q325 156 304 165.5 Q283 175 251 183.5 Q219 192 182.5 202.5 Q146 213 114 231.5 Q82 250 61 279.5 Q40 309 40 355 Z M205 570 L85 740 L195 740 L250 665 L260 665 L315 740 L425 740 L305 570 L205 570 Z " />
<glyph glyph-name="scommaaccent" unicode="&#x219;" horiz-adv-x="495" d="M40 355 Q40 381 54 407 Q68 433 95 453.5 Q122 474 162 487 Q202 500 255 500 Q300 500 336.5 487 Q373 474 400.5 453.5 Q428 433 447 407 Q466 381 475 355 L345 335 Q337 350 315 367.5 Q293 385 255 385 Q225 385 207.5 370 Q190 355 190 340 Q190 324 211 314.5 Q232 305 264 296.5 Q296 288 332.5 277.5 Q369 267 401 248.5 Q433 230 454 200.5 Q475 171 475 125 Q475 99 461 73 Q447 47 419 26.5 Q391 6 348.5 -7 Q306 -20 250 -20 Q199 -20 159.5 -7 Q120 6 90.5 27.5 Q61 49 41 77 Q21 105 10 135 L150 155 Q161 132 184.5 113.5 Q208 95 250 95 Q288 95 306.5 110 Q325 125 325 140 Q325 156 304 165.5 Q283 175 251 183.5 Q219 192 182.5 202.5 Q146 213 114 231.5 Q82 250 61 279.5 Q40 309 40 355 Z M180 -155 Q180 -142 186 -129.5 Q192 -117 202 -107 Q212 -97 224.5 -91 Q237 -85 250 -85 Q263 -85 275.5 -91 Q288 -97 298 -107 Q308 -117 314 -129.5 Q320 -142 320 -155 Q320 -165 318.5 -172 Q317 -179 315 -184 Q312 -190 310 -195 L235 -305 L185 -305 L215 -215 Q205 -210 197 -202 Q190 -195 185 -183.5 Q180 -172 180 -155 Z " />
<glyph glyph-name="thorn" unicode="&#xfe;" horiz-adv-x="590" d="M560 240 Q560 184 541 136 Q522 88 490.5 53.5 Q459 19 418.5 -0.5 Q378 -20 335 -20 Q299 -20 274.5 -9.5 Q250 1 234 15 Q216 30 205 50 L195 50 L195 -200 L55 -200 L55 700 L195 700 L195 430 L205 430 Q216 449 234 465 Q250 478 274.5 489 Q299 500 335 500 Q378 500 418.5 480.5 Q459 461 490.5 426.5 Q522 392 541 344 Q560 296 560 240 Z M195 190 Q207 165 224 147 Q238 131 258.5 118 Q279 105 305 105 Q354 105 387 140.5 Q420 176 420 240 Q420 304 387 339.5 Q354 375 305 375 Q279 375 258.5 361.5 Q238 348 224 332 Q207 314 195 290 L195 190 Z " />
<glyph glyph-name="tcaron" unicode="&#x165;" horiz-adv-x="425" d="M20 480 L75 480 L75 600 L215 600 L215 480 L315 480 L315 355 L215 355 L215 175 Q215 141 232.5 123 Q250 105 280 105 Q291 105 301 107 Q311 109 319 112 Q328 116 335 120 L355 0 Q342 -6 326 -10 Q312 -14 293.5 -17 Q275 -20 255 -20 Q217 -20 184.5 -5.5 Q152 9 127.5 34.5 Q103 60 89 96 Q75 132 75 175 L75 355 L20 355 L20 480 Z M325 630 Q325 643 331 655.5 Q337 668 347 678 Q357 688 369.5 694 Q382 700 395 700 Q408 700 420.5 694 Q433 688 443 678 Q453 668 459 655.5 Q465 643 465 630 Q465 620 463.5 613 Q462 606 460 601 Q457 595 455 590 L380 480 L330 480 L360 570 Q350 575 342 583 Q335 590 330 601.5 Q325 613 325 630 Z " />
<glyph glyph-name="tcommaaccent" unicode="&#x163;" horiz-adv-x="375" d="M20 480 L75 480 L75 600 L215 600 L215 480 L315 480 L315 355 L215 355 L215 175 Q215 141 232.5 123 Q250 105 280 105 Q291 105 301 107 Q311 109 319 112 Q328 116 335 120 L355 0 Q342 -6 326 -10 Q312 -14 293.5 -17 Q275 -20 255 -20 Q217 -20 184.5 -5.5 Q152 9 127.5 34.5 Q103 60 89 96 Q75 132 75 175 L75 355 L20 355 L20 480 Z M145 -155 Q145 -142 151 -129.5 Q157 -117 167 -107 Q177 -97 189.5 -91 Q202 -85 215 -85 Q228 -85 240.5 -91 Q253 -97 263 -107 Q273 -117 279 -129.5 Q285 -142 285 -155 Q285 -165 283.5 -172 Q282 -179 280 -184 Q277 -190 275 -195 L200 -305 L150 -305 L180 -215 Q170 -210 162 -202 Q155 -195 150 -183.5 Q145 -172 145 -155 Z " />
<glyph glyph-name="yacute" unicode="&#xfd;" horiz-adv-x="540" d="M520 480 L420 0 Q395 -120 343 -175 Q291 -230 220 -230 Q199 -230 181 -227 Q163 -224 149 -220 Q133 -216 120 -210 L140 -90 Q147 -94 156 -98 Q173 -105 195 -105 Q225 -105 247 -81 Q269 -57 280 0 L125 0 L20 480 L160 480 L236 125 L305 125 L380 480 L520 480 Z M370 620 L205 560 L170 640 L325 720 L370 620 Z " />
<glyph glyph-name="ydieresis" unicode="&#xff;" horiz-adv-x="540" d="M520 480 L420 0 Q395 -120 343 -175 Q291 -230 220 -230 Q199 -230 181 -227 Q163 -224 149 -220 Q133 -216 120 -210 L140 -90 Q147 -94 156 -98 Q173 -105 195 -105 Q225 -105 247 -81 Q269 -57 280 0 L125 0 L20 480 L160 480 L236 125 L305 125 L380 480 L520 480 Z M90 640 Q90 670 110 690 Q130 710 160 710 Q190 710 210 690 Q230 670 230 640 Q230 610 210 590 Q190 570 160 570 Q130 570 110 590 Q90 610 90 640 Z M290 640 Q290 670 310 690 Q330 710 360 710 Q390 710 410 690 Q430 670 430 640 Q430 610 410 590 Q390 570 360 570 Q330 570 310 590 Q290 610 290 640 Z " />
<glyph glyph-name="ugrave" unicode="&#xf9;" horiz-adv-x="570" d="M50 480 L190 480 L190 205 Q190 160 215.5 132.5 Q241 105 275 105 Q299 105 318.5 118 Q338 131 352 147 Q368 165 380 190 L380 480 L520 480 L520 0 L380 0 L380 50 L370 50 Q359 30 341 15 Q326 1 302.5 -9.5 Q279 -20 245 -20 Q206 -20 170.5 -4 Q135 12 108 41.5 Q81 71 65.5 112.5 Q50 154 50 205 L50 480 Z M235 715 L390 635 L355 555 L190 615 L235 715 Z " />
<glyph glyph-name="uacute" unicode="&#xfa;" horiz-adv-x="570" d="M50 480 L190 480 L190 205 Q190 160 215.5 132.5 Q241 105 275 105 Q299 105 318.5 118 Q338 131 352 147 Q368 165 380 190 L380 480 L520 480 L520 0 L380 0 L380 50 L370 50 Q359 30 341 15 Q326 1 302.5 -9.5 Q279 -20 245 -20 Q206 -20 170.5 -4 Q135 12 108 41.5 Q81 71 65.5 112.5 Q50 154 50 205 L50 480 Z M385 610 L220 550 L185 630 L340 710 L385 610 Z " />
<glyph glyph-name="ucircumflex" unicode="&#xfb;" horiz-adv-x="570" d="M50 480 L190 480 L190 205 Q190 160 215.5 132.5 Q241 105 275 105 Q299 105 318.5 118 Q338 131 352 147 Q368 165 380 190 L380 480 L520 480 L520 0 L380 0 L380 50 L370 50 Q359 30 341 15 Q326 1 302.5 -9.5 Q279 -20 245 -20 Q206 -20 170.5 -4 Q135 12 108 41.5 Q81 71 65.5 112.5 Q50 154 50 205 L50 480 Z M330 730 L450 560 L340 560 L285 635 L275 635 L220 560 L110 560 L230 730 L330 730 Z " />
<glyph glyph-name="udieresis" unicode="&#xfc;" horiz-adv-x="570" d="M50 480 L190 480 L190 205 Q190 160 215.5 132.5 Q241 105 275 105 Q299 105 318.5 118 Q338 131 352 147 Q368 165 380 190 L380 480 L520 480 L520 0 L380 0 L380 50 L370 50 Q359 30 341 15 Q326 1 302.5 -9.5 Q279 -20 245 -20 Q206 -20 170.5 -4 Q135 12 108 41.5 Q81 71 65.5 112.5 Q50 154 50 205 L50 480 Z M105 635 Q105 665 125 685 Q145 705 175 705 Q205 705 225 685 Q245 665 245 635 Q245 605 225 585 Q205 565 175 565 Q145 565 125 585 Q105 605 105 635 Z M305 635 Q305 665 325 685 Q345 705 375 705 Q405 705 425 685 Q445 665 445 635 Q445 605 425 585 Q405 565 375 565 Q345 565 325 585 Q305 605 305 635 Z " />
<glyph glyph-name="uhungarumlaut" unicode="&#x171;" horiz-adv-x="570" d="M50 480 L190 480 L190 205 Q190 160 215.5 132.5 Q241 105 275 105 Q299 105 318.5 118 Q338 131 352 147 Q368 165 380 190 L380 480 L520 480 L520 0 L380 0 L380 50 L370 50 Q359 30 341 15 Q326 1 302.5 -9.5 Q279 -20 245 -20 Q206 -20 170.5 -4 Q135 12 108 41.5 Q81 71 65.5 112.5 Q50 154 50 205 L50 480 Z M210 730 L325 730 L225 570 L150 570 L210 730 Z M365 730 L480 730 L380 570 L305 570 L365 730 Z " />
<glyph glyph-name="umacron" unicode="&#x16b;" horiz-adv-x="570" d="M50 480 L190 480 L190 205 Q190 160 215.5 132.5 Q241 105 275 105 Q299 105 318.5 118 Q338 131 352 147 Q368 165 380 190 L380 480 L520 480 L520 0 L380 0 L380 50 L370 50 Q359 30 341 15 Q326 1 302.5 -9.5 Q279 -20 245 -20 Q206 -20 170.5 -4 Q135 12 108 41.5 Q81 71 65.5 112.5 Q50 154 50 205 L50 480 Z M133 686 L403 686 L403 576 L133 576 L133 686 Z " />
<glyph glyph-name="uring" unicode="&#x16f;" horiz-adv-x="570" d="M50 480 L190 480 L190 205 Q190 160 215.5 132.5 Q241 105 275 105 Q299 105 318.5 118 Q338 131 352 147 Q368 165 380 190 L380 480 L520 480 L520 0 L380 0 L380 50 L370 50 Q359 30 341 15 Q326 1 302.5 -9.5 Q279 -20 245 -20 Q206 -20 170.5 -4 Q135 12 108 41.5 Q81 71 65.5 112.5 Q50 154 50 205 L50 480 Z M175 651 Q175 673 183.5 693 Q192 713 207 728 Q222 743 242 752 Q262 761 285 761 Q307 761 327 752 Q347 743 362 728 Q377 713 386 693 Q395 673 395 651 Q395 628 386 608 Q377 588 362 573 Q347 558 327 549.5 Q307 541 285 541 Q262 541 242 549.5 Q222 558 207 573 Q192 588 183.5 608 Q175 628 175 651 Z M240 651 Q240 628 253 614.5 Q266 601 286 601 Q304 601 317 614.5 Q330 628 330 651 Q330 674 317 687.5 Q304 701 285 701 Q266 701 253 687.5 Q240 674 240 651 Z " />
<glyph glyph-name="zacute" unicode="&#x17a;" horiz-adv-x="485" d="M450 355 L220 135 L220 125 L460 125 L460 0 L25 0 L25 125 L255 345 L255 355 L35 355 L35 480 L450 480 L450 355 Z M355 620 L190 560 L155 640 L310 720 L355 620 Z " />
<glyph glyph-name="zcaron" unicode="&#x17e;" horiz-adv-x="485" d="M450 355 L220 135 L220 125 L460 125 L460 0 L25 0 L25 125 L255 345 L255 355 L35 355 L35 480 L450 480 L450 355 Z M195 570 L75 740 L185 740 L240 665 L250 665 L305 740 L415 740 L295 570 L195 570 Z " />
<glyph glyph-name="zdotaccent" unicode="&#x17c;" horiz-adv-x="485" d="M450 355 L220 135 L220 125 L460 125 L460 0 L25 0 L25 125 L255 345 L255 355 L35 355 L35 480 L450 480 L450 355 Z M170 645 Q170 679 193 702 Q216 725 250 725 Q284 725 307 702 Q330 679 330 645 Q330 611 307 588 Q284 565 250 565 Q216 565 193 588 Q170 611 170 645 Z " />
<glyph glyph-name="cent" unicode="&#xa2;" horiz-adv-x="550" d="M360 489 Q426 470 467 426.5 Q508 383 520 335 L380 315 Q369 338 346 356.5 Q323 375 285 375 Q262 375 241.5 365 Q221 355 205 337.5 Q189 320 179.5 295 Q170 270 170 240 Q170 210 179.5 185 Q189 160 205 142.5 Q221 125 241.5 115 Q262 105 285 105 Q327 105 353 127.5 Q379 150 390 180 L530 160 Q518 102 475 54.5 Q432 7 360 -11 L360 -95 L220 -95 L220 -10 Q180 1 145 25 Q110 49 84.5 82 Q59 115 44.5 155.5 Q30 196 30 240 Q30 284 44.5 324.5 Q59 365 84.5 398 Q110 431 145 455 Q180 479 220 490 L220 580 L360 580 L360 489 Z " />
<glyph glyph-name="florin" unicode="&#x192;" horiz-adv-x="340" d="M25 480 L80 480 L80 525 Q80 568 94 604 Q108 640 132.5 665.5 Q157 691 189.5 705.5 Q222 720 260 720 Q280 720 298.5 717 Q317 714 331 710 Q347 706 360 700 L340 580 Q333 583 324 587 Q316 590 306 592.5 Q296 595 285 595 Q255 595 237.5 577 Q220 559 220 525 L220 480 L320 480 L320 355 L220 355 L220 -25 Q220 -68 206 -104 Q192 -140 167.5 -165.5 Q143 -191 110 -205.5 Q77 -220 40 -220 Q19 -220 1 -217 Q-17 -214 -31 -210 Q-47 -206 -60 -200 L-40 -80 Q-33 -84 -24 -88 Q-7 -95 15 -95 Q45 -95 62.5 -77 Q80 -59 80 -25 L80 355 L25 355 L25 480 Z " />
<glyph glyph-name="germandbls" unicode="&#xdf;" horiz-adv-x="565" d="M250 435 Q292 435 316 458 Q340 481 340 515 Q340 549 320 572 Q300 595 270 595 Q240 595 217.5 572 Q195 549 195 515 L195 0 L55 0 L55 520 Q55 561 71 597.5 Q87 634 115.5 661 Q144 688 183.5 704 Q223 720 270 720 Q317 720 355.5 705 Q394 690 422 665.5 Q450 641 465 608.5 Q480 576 480 540 Q480 498 466.5 471.5 Q453 445 437 429 Q419 411 395 400 L395 390 Q435 379 467 355 Q494 335 517 298.5 Q540 262 540 204 Q540 161 523.5 124 Q507 87 477 59.5 Q447 32 404.5 16 Q362 0 310 0 L250 0 L250 125 L310 125 Q348 125 374 151 Q400 177 400 215 Q400 253 374 279 Q348 305 310 305 L250 305 L250 435 Z " />
<glyph glyph-name="ordfeminine" unicode="&#xaa;" horiz-adv-x="350" d="M155 440 Q166 440 177.5 446 Q189 452 199 460 Q210 469 220 480 L220 490 L155 490 Q120 490 120 465 Q120 440 155 440 Z M170 700 Q204 700 231.5 689.5 Q259 679 278.5 660.5 Q298 642 309 617.5 Q320 593 320 565 L320 370 L220 370 L220 400 L210 400 Q201 389 189 380 Q178 372 163.5 366 Q149 360 130 360 Q106 360 85.5 369.5 Q65 379 50.5 394 Q36 409 28 427.5 Q20 446 20 465 Q20 510 53.5 540 Q87 570 155 570 L220 570 Q220 589 206.5 604.5 Q193 620 170 620 Q147 620 135 610.5 Q123 601 115 590 L30 620 Q34 631 45 645 Q56 659 74 671 Q92 683 116 691.5 Q140 700 170 700 Z " />
<glyph glyph-name="ordmasculine" unicode="&#xba;" horiz-adv-x="360" d="M240 530 Q240 568 221.5 589 Q203 610 180 610 Q157 610 138.5 588.5 Q120 567 120 530 Q120 492 138.5 471 Q157 450 180 450 Q203 450 221.5 471 Q240 492 240 530 Z M340 530 Q340 494 327 463 Q314 432 292 409 Q270 386 241 373 Q212 360 180 360 Q148 360 119 373 Q90 386 68 409 Q46 432 33 463 Q20 494 20 530 Q20 566 33 597 Q46 628 68 651 Q90 674 119 687 Q148 700 180 700 Q212 700 241 687 Q270 674 292 651 Q314 628 327 597 Q340 566 340 530 Z " />
<glyph glyph-name="onesuperior" unicode="&#xb9;" horiz-adv-x="210" d="M80 565 L20 565 L20 640 Q50 640 67.5 657 Q85 674 85 700 L180 700 L180 360 L80 360 L80 565 Z " />
<glyph glyph-name="twosuperior" unicode="&#xb2;" horiz-adv-x="330" d="M205 595 Q205 606 194.5 615.5 Q184 625 165 625 Q142 625 130 615 Q118 605 110 590 L20 605 Q31 650 68 682.5 Q105 715 165 715 Q199 715 225.5 705.5 Q252 696 271 680 Q290 664 300 643 Q310 622 310 600 Q310 573 297 553.5 Q284 534 264.5 521 Q245 508 222.5 499 Q200 490 180.5 482.5 Q161 475 148 467.5 Q135 460 135 450 L305 450 L305 360 L30 360 L30 430 Q30 460 43 479.5 Q56 499 75.5 512 Q95 525 117.5 533.5 Q140 542 159.5 550 Q179 558 192 568.5 Q205 579 205 595 Z " />
<glyph glyph-name="threesuperior" unicode="&#xb3;" horiz-adv-x="320" d="M155 435 Q178 435 189 445 Q200 455 200 470 Q200 485 189 495 Q178 505 155 505 L95 505 L95 560 L155 610 L155 615 L35 615 L35 700 L285 700 L285 630 L210 570 L210 565 Q235 559 255 547 Q272 536 286 516.5 Q300 497 300 465 Q300 442 290.5 420.5 Q281 399 263 382 Q245 365 218 355 Q191 345 155 345 Q96 345 60 376 Q24 407 10 455 L105 470 Q109 455 120.5 445 Q132 435 155 435 Z " />
<glyph glyph-name="foursuperior" unicode="&#x2074;" horiz-adv-x="325" d="M180 360 L180 415 L10 415 L10 505 L100 700 L210 700 L120 505 L180 505 L180 555 L280 555 L280 505 L315 505 L315 415 L280 415 L280 360 L180 360 Z " />
<glyph glyph-name="fraction" unicode="&#x2044;" horiz-adv-x="565" d="M150 0 L0 0 L415 700 L565 700 L150 0 Z " />
<glyph glyph-name="onehalf" unicode="&#xbd;" horiz-adv-x="755" d="M210 0 L60 0 L475 700 L625 700 L210 0 Z M100 565 L40 565 L40 640 Q70 640 87.5 657 Q105 674 105 700 L200 700 L200 360 L100 360 L100 565 Z M610 236 Q610 247 599.5 256.5 Q589 266 570 266 Q547 266 535 256 Q523 246 515 231 L425 246 Q436 291 473 323.5 Q510 356 570 356 Q604 356 630.5 346.5 Q657 337 676 321 Q695 305 705 284 Q715 263 715 241 Q715 214 702 194.5 Q689 175 669.5 162 Q650 149 627.5 140 Q605 131 585.5 123.5 Q566 116 553 108.5 Q540 101 540 91 L710 91 L710 1 L435 1 L435 71 Q435 101 448 120.5 Q461 140 480.5 153 Q500 166 522.5 174.5 Q545 183 564.5 191 Q584 199 597 209.5 Q610 220 610 236 Z " />
<glyph glyph-name="onequarter" unicode="&#xbc;" horiz-adv-x="735" d="M210 0 L60 0 L475 700 L625 700 L210 0 Z M100 565 L40 565 L40 640 Q70 640 87.5 657 Q105 674 105 700 L200 700 L200 360 L100 360 L100 565 Z M580 1 L580 56 L410 56 L410 146 L500 341 L610 341 L520 146 L580 146 L580 196 L680 196 L680 146 L715 146 L715 56 L680 56 L680 1 L580 1 Z " />
<glyph glyph-name="threequarters" unicode="&#xbe;" horiz-adv-x="775" d="M250 0 L100 0 L515 700 L665 700 L250 0 Z M620 1 L620 56 L450 56 L450 146 L540 341 L650 341 L560 146 L620 146 L620 196 L720 196 L720 146 L755 146 L755 56 L720 56 L720 1 L620 1 Z M155 435 Q178 435 189 445 Q200 455 200 470 Q200 485 189 495 Q178 505 155 505 L95 505 L95 560 L155 610 L155 615 L35 615 L35 700 L285 700 L285 630 L210 570 L210 565 Q235 559 255 547 Q272 536 286 516.5 Q300 497 300 465 Q300 442 290.5 420.5 Q281 399 263 382 Q245 365 218 355 Q191 345 155 345 Q96 345 60 376 Q24 407 10 455 L105 470 Q109 455 120.5 445 Q132 435 155 435 Z " />
<glyph glyph-name="Aogonek" unicode="&#x104;" horiz-adv-x="715" d="M615 -250 Q562 -250 533.5 -222.5 Q505 -195 505 -150 Q505 -115 525.5 -87 Q546 -59 572 -39 Q602 -16 640 0 L545 0 L510 145 L205 145 L170 0 L10 0 L180 700 L535 700 L705 0 Q673 -20 647 -43 Q625 -63 607.5 -87 Q590 -111 590 -135 Q590 -175 630 -175 Q648 -175 662 -168 Q669 -164 675 -160 L695 -230 Q684 -236 672 -240 Q661 -244 646.5 -247 Q632 -250 615 -250 Z M240 285 L475 285 L410 560 L305 560 L240 285 Z " />
<glyph glyph-name="aogonek" unicode="&#x105;" horiz-adv-x="585" d="M445 -250 Q392 -250 363.5 -222.5 Q335 -195 335 -150 Q335 -115 355.5 -87 Q376 -59 402 -39 Q432 -16 470 0 L395 0 L395 50 L385 50 Q374 30 356 15 Q340 1 315 -9.5 Q290 -20 255 -20 Q212 -20 171.5 -0.5 Q131 19 99.5 53.5 Q68 88 49 136 Q30 184 30 240 Q30 296 49 344 Q68 392 99.5 426.5 Q131 461 171.5 480.5 Q212 500 255 500 Q290 500 315 489 Q340 478 356 465 Q374 449 385 430 L395 430 L395 480 L535 480 L535 0 Q503 -20 477 -43 Q455 -63 437.5 -87 Q420 -111 420 -135 Q420 -175 460 -175 Q478 -175 492 -168 Q499 -164 505 -160 L525 -230 Q514 -236 502 -240 Q491 -244 476.5 -247 Q462 -250 445 -250 Z M395 290 Q383 314 366 332 Q352 348 331.5 361.5 Q311 375 285 375 Q236 375 203 339.5 Q170 304 170 240 Q170 176 203 140.5 Q236 105 285 105 Q311 105 331.5 118 Q352 131 366 147 Q383 165 395 190 L395 290 Z " />
<glyph glyph-name="Iogonek" unicode="&#x12e;" horiz-adv-x="280" d="M130 -250 Q77 -250 48.5 -222.5 Q20 -195 20 -150 Q20 -115 40.5 -87 Q61 -59 87 -39 Q117 -16 155 0 L65 0 L65 700 L220 700 L220 0 Q188 -20 162 -43 Q140 -63 122.5 -87 Q105 -111 105 -135 Q105 -175 145 -175 Q163 -175 177 -168 Q184 -164 190 -160 L210 -230 Q199 -236 187 -240 Q176 -244 161.5 -247 Q147 -250 130 -250 Z " />
<glyph glyph-name="iogonek" unicode="&#x12f;" horiz-adv-x="255" d="M110 -250 Q57 -250 28.5 -222.5 Q0 -195 0 -150 Q0 -115 20.5 -87 Q41 -59 67 -39 Q97 -16 135 0 L60 0 L60 480 L200 480 L200 0 Q168 -20 142 -43 Q120 -63 102.5 -87 Q85 -111 85 -135 Q85 -175 125 -175 Q143 -175 157 -168 Q164 -164 170 -160 L190 -230 Q179 -236 167 -240 Q156 -244 141.5 -247 Q127 -250 110 -250 Z M50 650 Q50 684 73 707 Q96 730 130 730 Q164 730 187 707 Q210 684 210 650 Q210 616 187 593 Q164 570 130 570 Q96 570 73 593 Q50 616 50 650 Z " />
<glyph glyph-name="Uogonek" unicode="&#x172;" horiz-adv-x="730" d="M385 -250 Q332 -250 303.5 -222.5 Q275 -195 275 -150 Q275 -130 282.5 -112 Q290 -94 301.5 -79 Q313 -64 327 -51.5 Q341 -39 355 -30 Q288 -29 233.5 -6.5 Q179 16 140.5 54.5 Q102 93 81 146.5 Q60 200 60 265 L60 700 L215 700 L215 265 Q215 193 256 151.5 Q297 110 365 110 Q433 110 474 151.5 Q515 193 515 265 L515 700 L670 700 L670 265 Q670 209 654 161.5 Q638 114 609 76.5 Q580 39 537.5 14 Q495 -11 443 -22 Q430 -31 415.5 -44 Q401 -57 388.5 -71.5 Q376 -86 368 -102.5 Q360 -119 360 -135 Q360 -175 400 -175 Q418 -175 432 -168 Q439 -164 445 -160 L465 -230 Q454 -236 442 -240 Q431 -244 416.5 -247 Q402 -250 385 -250 Z " />
<glyph glyph-name="Ccedilla" unicode="&#xc7;" horiz-adv-x="780" d="M760 220 Q748 176 721 134 Q694 92 654 57.5 Q614 23 561.5 0 Q509 -23 446 -28 L435 -55 Q457 -61 475 -73 Q490 -84 502.5 -103.5 Q515 -123 515 -155 Q515 -208 480 -241.5 Q445 -275 385 -275 Q362 -275 344.5 -268 Q327 -261 315 -253 Q301 -243 290 -230 L335 -175 Q340 -181 348 -185 Q354 -189 363.5 -192 Q373 -195 385 -195 Q404 -195 417 -182.5 Q430 -170 430 -155 Q430 -140 417 -127.5 Q404 -115 385 -115 L335 -115 L371 -27 Q300 -20 238 13 Q176 46 130 97 Q84 148 57 213 Q30 278 30 350 Q30 427 60.5 496 Q91 565 143 617 Q195 669 264 699.5 Q333 730 410 730 Q477 730 532.5 710 Q588 690 629.5 657.5 Q671 625 699 582.5 Q727 540 740 495 L585 475 Q574 497 557.5 518 Q541 539 519 555 Q497 571 469 580.5 Q441 590 405 590 Q362 590 322 571.5 Q282 553 251.5 520.5 Q221 488 203 444.5 Q185 401 185 350 Q185 299 203 255.5 Q221 212 251.5 179.5 Q282 147 322 128.5 Q362 110 405 110 Q444 110 475.5 120.5 Q507 131 531.5 149 Q556 167 574 190.5 Q592 214 605 240 L760 220 L760 220 Z " />
<glyph glyph-name="ccedilla" unicode="&#xe7;" horiz-adv-x="550" d="M530 160 Q523 127 506 96.5 Q489 66 462 42 Q435 18 399 2 Q363 -14 318 -18 L305 -50 Q327 -56 345 -68 Q360 -79 372.5 -98.5 Q385 -118 385 -150 Q385 -203 350 -236.5 Q315 -270 255 -270 Q232 -270 214.5 -263 Q197 -256 185 -248 Q171 -238 160 -225 L205 -170 Q210 -176 218 -180 Q224 -184 233.5 -187 Q243 -190 255 -190 Q274 -190 287 -177.5 Q300 -165 300 -150 Q300 -135 287 -122.5 Q274 -110 255 -110 L205 -110 L244 -16 Q200 -9 161 14.5 Q122 38 93 72.5 Q64 107 47 150 Q30 193 30 240 Q30 292 51 339.5 Q72 387 107 422.5 Q142 458 188 479 Q234 500 285 500 Q334 500 374 485.5 Q414 471 444 447.5 Q474 424 493 394.5 Q512 365 520 335 L380 315 Q369 338 346 356.5 Q323 375 285 375 Q262 375 241.5 365 Q221 355 205 337.5 Q189 320 179.5 295 Q170 270 170 240 Q170 210 179.5 185 Q189 160 205 142.5 Q221 125 241.5 115 Q262 105 285 105 Q327 105 353 127.5 Q379 150 390 180 L530 160 L530 160 Z " />
<glyph glyph-name="Eogonek" unicode="&#x118;" horiz-adv-x="635" d="M515 -250 Q462 -250 433.5 -222.5 Q405 -195 405 -150 Q405 -115 425.5 -87 Q446 -59 472 -39 Q502 -16 540 0 L60 0 L60 700 L615 700 L615 560 L215 560 L215 420 L530 420 L530 280 L215 280 L215 140 L615 140 L615 0 L605 0 Q573 -20 547 -43 Q525 -63 507.5 -87 Q490 -111 490 -135 Q490 -175 530 -175 Q548 -175 562 -168 Q569 -164 575 -160 L595 -230 Q584 -236 572 -240 Q561 -244 546.5 -247 Q532 -250 515 -250 Z " />
<glyph glyph-name="eogonek" unicode="&#x119;" horiz-adv-x="570" d="M300 -250 Q247 -250 218.5 -222.5 Q190 -195 190 -150 Q190 -127 199.5 -107 Q209 -87 223 -70.5 Q237 -54 254 -41.5 Q271 -29 286 -20 L285 -20 Q234 -20 188 1 Q142 22 107 57.5 Q72 93 51 140 Q30 187 30 240 Q30 292 51 339.5 Q72 387 107 422.5 Q142 458 188 479 Q234 500 285 500 Q339 500 386.5 480 Q434 460 469.5 424.5 Q505 389 525 341.5 Q545 294 545 240 L495 190 L180 190 Q191 152 217 128.5 Q243 105 285 105 Q309 105 326.5 109.5 Q344 114 357 121.5 Q370 129 378.5 139 Q387 149 395 160 L535 140 Q518 95 480.5 55 Q443 15 381 -5 Q372 -11 354.5 -24 Q337 -37 319 -55 Q301 -73 288 -93.5 Q275 -114 275 -135 Q275 -175 315 -175 Q333 -175 347 -168 Q354 -164 360 -160 L380 -230 Q369 -236 357 -240 Q346 -244 331.5 -247 Q317 -250 300 -250 Z M285 375 Q243 375 217 351.5 Q191 328 180 290 L390 290 Q379 328 353 351.5 Q327 375 285 375 Z " />
<glyph glyph-name="Scedilla" unicode="&#x15e;" horiz-adv-x="635" d="M455 200 Q455 232 425 251 Q395 270 350 285 Q305 300 252.5 315 Q200 330 155 355 Q110 380 80 418.5 Q50 457 50 520 Q50 559 69 597 Q88 635 123 664.5 Q158 694 208 712 Q258 730 320 730 Q382 730 431 713.5 Q480 697 516 667.5 Q552 638 575.5 599 Q599 560 610 515 L455 495 Q440 536 408 563 Q376 590 320 590 Q267 590 238.5 565 Q210 540 210 510 Q210 480 240 462.5 Q270 445 315 431.5 Q360 418 412.5 402.5 Q465 387 510 361.5 Q555 336 585 295.5 Q615 255 615 190 Q615 152 598 115.5 Q581 79 549 49.5 Q517 20 471.5 -0.5 Q426 -21 368 -27 L355 -60 Q377 -66 395 -78 Q410 -89 422.5 -108.5 Q435 -128 435 -160 Q435 -213 400 -246.5 Q365 -280 305 -280 Q282 -280 264.5 -273 Q247 -266 235 -258 Q221 -248 210 -235 L255 -180 Q260 -186 268 -190 Q274 -194 283.5 -197 Q293 -200 305 -200 Q324 -200 337 -187.5 Q350 -175 350 -160 Q350 -145 337 -132.5 Q324 -120 305 -120 L255 -120 L293 -29 Q233 -25 186 -5.5 Q139 14 104 44.5 Q69 75 45.5 116 Q22 157 10 205 L165 225 Q180 176 218.5 143 Q257 110 325 110 Q393 110 424 136 Q455 162 455 200 Z " />
<glyph glyph-name="scedilla" unicode="&#x15f;" horiz-adv-x="495" d="M40 355 Q40 381 54 407 Q68 433 95 453.5 Q122 474 162 487 Q202 500 255 500 Q300 500 336.5 487 Q373 474 400.5 453.5 Q428 433 447 407 Q466 381 475 355 L345 335 Q337 350 315 367.5 Q293 385 255 385 Q225 385 207.5 370 Q190 355 190 340 Q190 324 211 314.5 Q232 305 264 296.5 Q296 288 332.5 277.5 Q369 267 401 248.5 Q433 230 454 200.5 Q475 171 475 125 Q475 101 463 76.5 Q451 52 427 32 Q403 12 367 -1.5 Q331 -15 283 -19 L270 -50 Q292 -56 310 -68 Q325 -79 337.5 -98.5 Q350 -118 350 -150 Q350 -203 315 -236.5 Q280 -270 220 -270 Q197 -270 179.5 -263 Q162 -256 150 -248 Q136 -238 125 -225 L170 -170 Q175 -176 183 -180 Q189 -184 198.5 -187 Q208 -190 220 -190 Q239 -190 252 -177.5 Q265 -165 265 -150 Q265 -135 252 -122.5 Q239 -110 220 -110 L170 -110 L208 -17 Q167 -12 135 2 Q103 16 78.5 36.5 Q54 57 37 82.5 Q20 108 10 135 L150 155 Q161 132 184.5 113.5 Q208 95 250 95 Q288 95 306.5 110 Q325 125 325 140 Q325 156 304 165.5 Q283 175 251 183.5 Q219 192 182.5 202.5 Q146 213 114 231.5 Q82 250 61 279.5 Q40 309 40 355 Z " />
<glyph glyph-name="uogonek" unicode="&#x173;" horiz-adv-x="570" d="M430 -250 Q377 -250 348.5 -222.5 Q320 -195 320 -150 Q320 -115 340.5 -87 Q361 -59 387 -39 Q417 -16 455 0 L380 0 L380 50 L370 50 Q359 30 341 15 Q326 1 302.5 -9.5 Q279 -20 245 -20 Q206 -20 170.5 -4 Q135 12 108 41.5 Q81 71 65.5 112.5 Q50 154 50 205 L50 480 L190 480 L190 205 Q190 160 215.5 132.5 Q241 105 275 105 Q299 105 318.5 118 Q338 131 352 147 Q368 165 380 190 L380 480 L520 480 L520 0 Q488 -20 462 -43 Q440 -63 422.5 -87 Q405 -111 405 -135 Q405 -175 445 -175 Q463 -175 477 -168 Q484 -164 490 -160 L510 -230 Q499 -236 487 -240 Q476 -244 461.5 -247 Q447 -250 430 -250 Z " />
<glyph glyph-name="nbspace" unicode="&#xa0;" d="" />
<glyph glyph-name=".null" d="" />
</font>
</svg>
